SplineFontDB: 3.2
FontName: AiutoBoldItalic
FullName: Aiuto Bold Italic:
FamilyName: AiutoU
Weight: 
Copyright: Copyright  c  1989 Adobe Systems Incorporated.  All Rights Reserved. Adobe Garamond is a trademark of Adobe Systems Incorporated.
Version: p
ItalicAngle: 0
UnderlinePosition: 0
UnderlineWidth: 0
Ascent: 800
Descent: 200
InvalidEm: 0
sfntRevision: 0x00010000
LayerCount: 2
Layer: 0 0 "Back" 1
Layer: 1 0 "Fore" 0
XUID: [1021 1001 -774976532 12634774]
StyleMap: 0x0000
FSType: 0
OS2Version: 3
OS2_WeightWidthSlopeOnly: 0
OS2_UseTypoMetrics: 0
CreationTime: -2082844800
ModificationTime: 1710007851
PfmFamily: 17
TTFWeight: 700
TTFWidth: 5
LineGap: 0
VLineGap: 0
Panose: 2 0 8 3 0 0 0 0 0 0
OS2TypoAscent: 800
OS2TypoAOffset: 0
OS2TypoDescent: -200
OS2TypoDOffset: 0
OS2TypoLinegap: 90
OS2WinAscent: 957
OS2WinAOffset: 0
OS2WinDescent: 443
OS2WinDOffset: 0
HheadAscent: 957
HheadAOffset: 0
HheadDescent: -500
HheadDOffset: 0
OS2SubXSize: 650
OS2SubYSize: 700
OS2SubXOff: 0
OS2SubYOff: 140
OS2SupXSize: 650
OS2SupYSize: 700
OS2SupXOff: 0
OS2SupYOff: 480
OS2StrikeYSize: 49
OS2StrikeYPos: 258
OS2CapHeight: 957
OS2XHeight: 512
OS2Vendor: 'PfEd'
OS2CodePages: 20000000.00000000
OS2UnicodeRanges: 800000af.5000204a.00000000.00000000
DEI: 91125
LangName: 1033 "" "" "" "FontForge 2.0 : Aiuto Bold Italic: : 1-5-2021"
LangName: 1024 "Copyright  c  1989 Adobe Systems Incorporated.  All Rights Reserved. Adobe Garamond is a trademark of Adobe Systems Incorporated." "AiutoU" "Bold Italic" "Aiuto Bold Italic" "Aiuto Bold Italic:" "p"
Encoding: UnicodeBmp
Compacted: 1
UnicodeInterp: none
NameList: AGL For New Fonts
DisplaySize: -48
AntiAlias: 1
FitToEm: 1
WinInfo: 0 15 12
BeginPrivate: 3
BlueValues 17 [-366 -3 408 731]
BlueScale 10 0.00416667
BlueShift 2 15
EndPrivate
BeginChars: 65537 239

StartChar: .notdef
Encoding: 65536 -1 0
Width: 500
GlyphClass: 1
Flags: W
LayerCount: 2
Fore
SplineSet
40 667 m 1
 460 667 l 1
 460 0 l 1
 40 0 l 1
 40 667 l 1
60 647 m 1
 60 20 l 1
 440 20 l 1
 440 647 l 1
 60 647 l 1
EndSplineSet
EndChar

StartChar: .null
Encoding: 0 0 1
Width: 353
GlyphClass: 2
Flags: W
LayerCount: 2
Fore
SplineSet
133 350 m 0
 105.666992188 360.666992188 88.5 361.16796875 81.5 351.500976562 c 0
 74.5 341.833984375 73 325.166992188 77 301.5 c 0
 81 277.833007812 82.6669921875 263.666015625 82 258.999023438 c 0
 81.3330078125 250.999023438 74.5 244.499023438 61.5 239.499023438 c 0
 48.5 234.499023438 36.1669921875 235.499023438 24.5 242.499023438 c 0
 12.8330078125 249.499023438 7 264.33203125 7 286.999023438 c 0
 7 324.999023438 18.5 353.83203125 41.5 373.499023438 c 0
 64.5 393.166015625 94.6669921875 399.999023438 132 393.999023438 c 1
 139.333007812 398.666015625 143 404.333007812 143 411 c 0
 143 468.333007812 145.5 516.166015625 150.5 554.499023438 c 0
 155.5 592.83203125 168.333007812 626.665039062 189 655.998046875 c 0
 218.333007812 695.331054688 255 714.331054688 299 712.998046875 c 0
 317.666992188 712.998046875 331.5 711.331054688 340.5 707.998046875 c 0
 349.5 704.665039062 354 696.665039062 354 683.998046875 c 0
 354 654.665039062 339.666992188 642.33203125 311 646.999023438 c 1
 307 661.666015625 300.5 670.999023438 291.5 674.999023438 c 0
 282.5 678.999023438 267.333007812 677.999023438 246 671.999023438 c 0
 238 668.666015625 231.833007812 661.499023438 227.5 650.499023438 c 0
 223.166992188 639.499023438 220 621.999023438 218 597.999023438 c 0
 216 573.999023438 215 550.166015625 215 526.499023438 c 2
 215 448.999023438 l 1
 215 420.999023438 l 2
 215 407.666015625 215.666992188 399.666015625 217 396.999023438 c 0
 218.333007812 394.33203125 223.333007812 392.999023438 232 392.999023438 c 2
 308 392.999023438 l 1
 314 388.999023438 316 381.499023438 314 370.499023438 c 0
 312 359.499023438 308.333007812 352.999023438 303 350.999023438 c 2
 225 350.999023438 l 1
 232 350.999023438 l 1
 223.333007812 350.999023438 218.333007812 349.666015625 217 346.999023438 c 0
 215.666992188 344.33203125 215 335.999023438 215 321.999023438 c 2
 215 110.999023438 l 2
 215 75.666015625 217 52.666015625 221 41.9990234375 c 0
 225 31.33203125 235.666992188 25.6650390625 253 24.998046875 c 2
 297 21.998046875 l 2
 301 19.998046875 302.666992188 15.8310546875 302 9.498046875 c 0
 301.333007812 3.1650390625 299 -1.001953125 295 -3.001953125 c 0
 242.333007812 -1.001953125 203.333007812 -0.001953125 178 -0.001953125 c 0
 146.666992188 -0.001953125 112 -1.001953125 74 -3.001953125 c 0
 70 -0.3349609375 67.6669921875 3.83203125 67 9.4990234375 c 0
 66.3330078125 15.166015625 68 19.3330078125 72 22 c 2
 103 25 l 2
 121 27 131.833007812 32.5 135.5 41.5 c 0
 139.166992188 50.5 141 73.6669921875 141 111 c 2
 141 322 l 2
 141 340 138.333007812 349.333007812 133 350 c 0
EndSplineSet
EndChar

StartChar: SOH
Encoding: 1 1 2
Width: 525
GlyphClass: 2
Flags: W
LayerCount: 2
Fore
SplineSet
123 355 m 0
 100.333007812 363 86.16796875 362.002929688 80.5009765625 352.002929688 c 0
 74.833984375 342.002929688 73.6669921875 324.169921875 77 298.502929688 c 0
 80.3330078125 272.8359375 82 259.668945312 82 259.001953125 c 0
 81.3330078125 251.001953125 74.5 244.501953125 61.5 239.501953125 c 0
 48.5 234.501953125 36.1669921875 235.501953125 24.5 242.501953125 c 0
 12.8330078125 249.501953125 7 264.334960938 7 287.001953125 c 0
 7 324.334960938 18 353.001953125 40 373.001953125 c 0
 62 393.001953125 89.6669921875 400.001953125 123 394.001953125 c 0
 135 394.001953125 144.833007812 393.834960938 152.5 393.501953125 c 0
 160.166992188 393.168945312 168.666992188 393.001953125 178 393.001953125 c 0
 195.333007812 393.001953125 225 394.001953125 267 396.001953125 c 0
 271 394.001953125 273 390.001953125 273 384.001953125 c 0
 273 378.001953125 271.333007812 373.668945312 268 371.001953125 c 2
 248 370.001953125 l 2
 233.333007812 367.334960938 224.833007812 363.66796875 222.5 359.000976562 c 0
 220.166992188 354.333984375 221.333984375 344.666992188 226.000976562 330 c 0
 246.000976562 269.333007812 271.000976562 205.666015625 301.000976562 138.999023438 c 0
 310.333984375 118.999023438 315.666992188 108.33203125 317 106.999023438 c 0
 321 108.999023438 327.333007812 121.666015625 336 144.999023438 c 0
 343.333007812 162.999023438 353.833007812 189.83203125 367.5 225.499023438 c 0
 381.166992188 261.166015625 389.666992188 282.999023438 393 290.999023438 c 0
 405 321.666015625 411 342.333007812 411 353 c 0
 411 361 405 366.333007812 393 369 c 2
 362 371 l 2
 359.333007812 374.333007812 358.333007812 378.833007812 359 384.5 c 0
 359.666992188 390.166992188 361.333984375 394 364.000976562 396 c 0
 403.333984375 394 431.000976562 393 447.000976562 393 c 0
 463.000976562 393 489.000976562 394 525.000976562 396 c 0
 529.000976562 394 531.000976562 390 531.000976562 384 c 0
 531.000976562 378 529.66796875 373.666992188 527.000976562 371 c 2
 504.000976562 370 l 2
 489.333984375 367.333007812 479.000976562 362.333007812 473.000976562 355 c 0
 467.000976562 347.666992188 453.000976562 323.333984375 431.000976562 282.000976562 c 0
 423.66796875 268.66796875 407.000976562 231.000976562 381.000976562 169.000976562 c 0
 355.000976562 107.000976562 341.000976562 73.66796875 339.000976562 69.0009765625 c 0
 322.333984375 29.66796875 311.333984375 2.66796875 306.000976562 -11.9990234375 c 0
 304.000976562 -14.666015625 300.66796875 -15.9990234375 296.000976562 -15.9990234375 c 0
 290.000976562 -15.9990234375 285.66796875 -14.666015625 283.000976562 -11.9990234375 c 0
 275.66796875 13.333984375 263.000976562 47.6669921875 245.000976562 91 c 2
 161.000976562 294 l 2
 146.333984375 330.666992188 133.666992188 351 123 355 c 0
EndSplineSet
EndChar

StartChar: STX
Encoding: 2 2 3
Width: 572
GlyphClass: 2
Flags: W
LayerCount: 2
Fore
SplineSet
535 359 m 0
 497.666992188 359 469.999023438 347.328125 451.999023438 323.995117188 c 0
 441.999023438 311.328125 436.999023438 291.661132812 436.999023438 264.994140625 c 2
 436.999023438 110.994140625 l 2
 436.999023438 74.994140625 438.999023438 52.1611328125 442.999023438 42.494140625 c 0
 446.999023438 32.8271484375 457.666015625 26.994140625 474.999023438 24.994140625 c 2
 503.999023438 21.994140625 l 2
 507.999023438 19.994140625 509.666015625 15.8271484375 508.999023438 9.494140625 c 0
 508.33203125 3.1611328125 505.999023438 -1.005859375 501.999023438 -3.005859375 c 0
 463.999023438 -1.005859375 429.999023438 -0.005859375 399.999023438 -0.005859375 c 0
 369.999023438 -0.005859375 336.999023438 -1.005859375 300.999023438 -3.005859375 c 0
 296.999023438 -0.3388671875 294.666015625 3.828125 293.999023438 9.4951171875 c 0
 293.33203125 15.162109375 294.999023438 19.3291015625 298.999023438 21.99609375 c 2
 324.999023438 24.99609375 l 2
 342.999023438 27.6630859375 353.83203125 33.330078125 357.499023438 41.9970703125 c 0
 361.166015625 50.6640625 362.999023438 73.6640625 362.999023438 110.997070312 c 2
 362.999023438 255.997070312 l 2
 362.999023438 324.6640625 332.33203125 358.997070312 270.999023438 358.997070312 c 0
 234.999023438 358.997070312 206.999023438 346.997070312 186.999023438 322.997070312 c 0
 176.999023438 310.997070312 171.999023438 292.330078125 171.999023438 266.997070312 c 2
 171.999023438 110.997070312 l 2
 171.999023438 84.330078125 172.666015625 65.830078125 173.999023438 55.4970703125 c 0
 175.33203125 45.1640625 178.499023438 37.9970703125 183.499023438 33.9970703125 c 0
 188.499023438 29.9970703125 197.33203125 26.9970703125 209.999023438 24.9970703125 c 2
 235.999023438 21.9970703125 l 2
 239.999023438 19.9970703125 241.666015625 15.830078125 240.999023438 9.4970703125 c 0
 240.33203125 3.1640625 237.999023438 -1.0029296875 233.999023438 -3.0029296875 c 0
 199.33203125 -1.0029296875 166.33203125 -0.0029296875 134.999023438 -0.0029296875 c 0
 104.33203125 -0.0029296875 69.33203125 -1.0029296875 29.9990234375 -3.0029296875 c 0
 25.9990234375 -0.3359375 23.666015625 3.8310546875 22.9990234375 9.498046875 c 0
 22.33203125 15.1650390625 23.9990234375 19.33203125 27.9990234375 21.9990234375 c 2
 59.9990234375 24.9990234375 l 2
 77.9990234375 26.9990234375 88.83203125 32.4990234375 92.4990234375 41.4990234375 c 0
 96.166015625 50.4990234375 97.9990234375 73.666015625 97.9990234375 110.999023438 c 2
 97.9990234375 286.999023438 l 2
 97.9990234375 312.999023438 95.666015625 329.33203125 90.9990234375 335.999023438 c 0
 86.33203125 342.666015625 72.9990234375 348.666015625 50.9990234375 353.999023438 c 2
 41.9990234375 355.999023438 l 2
 39.9990234375 357.999023438 38.9990234375 360.83203125 38.9990234375 364.499023438 c 0
 38.9990234375 368.166015625 40.33203125 370.666015625 42.9990234375 371.999023438 c 0
 96.9990234375 380.666015625 137.33203125 400.333007812 163.999023438 431 c 1
 169.33203125 429.666992188 171.999023438 427.333984375 171.999023438 424.000976562 c 2
 171.999023438 367.000976562 l 2
 171.999023438 359.66796875 175.666015625 356.000976562 182.999023438 356.000976562 c 1
 230.999023438 390.000976562 275.33203125 407.000976562 315.999023438 407.000976562 c 0
 358.666015625 407.000976562 393.999023438 387.66796875 421.999023438 349.000976562 c 1
 429.999023438 346.333984375 438.33203125 348.666992188 446.999023438 356 c 0
 474.33203125 382 498.33203125 397.833007812 518.999023438 403.5 c 0
 539.666015625 409.166992188 554.499023438 408.166992188 563.499023438 400.5 c 0
 572.499023438 392.833007812 574.33203125 384 568.999023438 374 c 0
 563.666015625 364 552.333007812 359 535 359 c 0
EndSplineSet
EndChar

StartChar: ETX
Encoding: 3 3 4
Width: 400
GlyphClass: 2
Flags: W
LayerCount: 2
Fore
SplineSet
56 -259 m 0
 50.6669921875 -259 48.0009765625 -254.669921875 48.0009765625 -246.002929688 c 0
 48.0009765625 -235.3359375 49.333984375 -229.3359375 52.0009765625 -228.002929688 c 0
 64.0009765625 -220.002929688 83.0009765625 -197.669921875 109.000976562 -161.002929688 c 0
 111.66796875 -157.002929688 127.500976562 -136.3359375 156.500976562 -99.0029296875 c 0
 185.500976562 -61.669921875 201.66796875 -40.0029296875 205.000976562 -34.0029296875 c 0
 212.333984375 -21.3359375 216.000976562 -14.8359375 216.000976562 -14.5029296875 c 0
 216.000976562 -14.169921875 209.333984375 -14.0029296875 196.000976562 -14.0029296875 c 0
 136.000976562 -12.0029296875 92.16796875 7.4970703125 64.5009765625 44.4970703125 c 0
 36.833984375 81.4970703125 23.0009765625 124.6640625 23.0009765625 173.997070312 c 0
 23.0009765625 195.330078125 26.0009765625 217.997070312 32.0009765625 241.997070312 c 0
 38.0009765625 265.997070312 47.833984375 288.6640625 61.5009765625 309.997070312 c 0
 75.16796875 331.330078125 91.66796875 348.663085938 111.000976562 361.99609375 c 0
 141.000976562 382.663085938 165.16796875 394.99609375 183.500976562 398.99609375 c 0
 201.833984375 402.99609375 227.666992188 404.99609375 261 404.99609375 c 0
 298.333007812 404.99609375 327.666015625 399.99609375 348.999023438 389.99609375 c 1
 358.33203125 380.663085938 362.999023438 367.330078125 362.999023438 349.997070312 c 0
 362.999023438 340.6640625 360.83203125 332.1640625 356.499023438 324.497070312 c 0
 352.166015625 316.830078125 347.333007812 312.997070312 342 312.997070312 c 0
 337.333007812 312.997070312 333 315.330078125 329 319.997070312 c 0
 302.333007812 355.330078125 270.666015625 372.997070312 233.999023438 372.997070312 c 0
 146.666015625 371.6640625 102.999023438 305.331054688 102.999023438 173.998046875 c 0
 102.999023438 135.998046875 109.499023438 102.998046875 122.499023438 74.998046875 c 0
 135.499023438 46.998046875 154.666015625 30.998046875 179.999023438 26.998046875 c 0
 201.33203125 23.6650390625 227.999023438 24.33203125 259.999023438 28.9990234375 c 1
 278.666015625 26.33203125 284.999023438 15.9990234375 278.999023438 -2.0009765625 c 1
 266.999023438 -21.0009765625 l 2
 260.33203125 -32.333984375 240.33203125 -64.333984375 206.999023438 -117.000976562 c 0
 173.666015625 -169.66796875 154.666015625 -199.334960938 149.999023438 -206.001953125 c 0
 149.33203125 -207.334960938 147.499023438 -209.66796875 144.499023438 -213.000976562 c 0
 141.499023438 -216.333984375 141.33203125 -218.166992188 143.999023438 -218.5 c 0
 146.666015625 -218.833007812 149.999023438 -219 153.999023438 -219 c 2
 236.999023438 -214 l 2
 269.666015625 -211.333007812 289.499023438 -206.833007812 296.499023438 -200.5 c 0
 303.499023438 -194.166992188 310.666015625 -182 317.999023438 -164 c 0
 321.999023438 -156.666992188 325.499023438 -148.166992188 328.499023438 -138.5 c 0
 331.499023438 -128.833007812 333.999023438 -123.333007812 335.999023438 -122 c 0
 344.666015625 -116.666992188 353.333007812 -119 362 -129 c 1
 348 -203 337.333007812 -246.666992188 330 -260 c 1
 291.333007812 -258 257.333007812 -257 228 -257 c 2
 121 -257 l 2
 89.6669921875 -257 68 -257.666992188 56 -259 c 0
EndSplineSet
EndChar

StartChar: EOT
Encoding: 4 4 5
Width: 396
GlyphClass: 2
Flags: W
LayerCount: 2
Fore
SplineSet
295 -21 m 2
 275.666992188 -47.6669921875 256.833984375 -73.33203125 238.500976562 -97.9990234375 c 0
 220.16796875 -122.666015625 204.000976562 -144.166015625 190.000976562 -162.499023438 c 0
 176.000976562 -180.83203125 165.000976562 -195.33203125 157.000976562 -205.999023438 c 0
 153.66796875 -211.999023438 152.66796875 -215.83203125 154.000976562 -217.499023438 c 0
 155.333984375 -219.166015625 161.666992188 -219.666015625 173 -218.999023438 c 2
 246 -213.999023438 l 2
 282.666992188 -211.33203125 305.166992188 -206.33203125 313.5 -198.999023438 c 0
 321.833007812 -191.666015625 329.333007812 -179.999023438 336 -163.999023438 c 0
 338 -160.666015625 341.5 -153.166015625 346.5 -141.499023438 c 0
 351.5 -129.83203125 354.666992188 -123.33203125 356 -121.999023438 c 0
 369.333007812 -118.666015625 377.666015625 -120.999023438 380.999023438 -128.999023438 c 1
 363.666015625 -204.33203125 351.666015625 -247.999023438 344.999023438 -259.999023438 c 1
 312.999023438 -257.999023438 278.999023438 -256.999023438 242.999023438 -256.999023438 c 2
 135.999023438 -256.999023438 l 2
 100.666015625 -256.999023438 76.9990234375 -257.666015625 64.9990234375 -258.999023438 c 0
 58.33203125 -258.999023438 54.9990234375 -254.666015625 54.9990234375 -245.999023438 c 0
 54.9990234375 -235.33203125 56.9990234375 -229.33203125 60.9990234375 -227.999023438 c 0
 68.33203125 -223.33203125 88.33203125 -200.999023438 120.999023438 -160.999023438 c 0
 142.33203125 -134.999023438 162.665039062 -110.499023438 181.998046875 -87.4990234375 c 0
 201.331054688 -64.4990234375 220.6640625 -41.666015625 239.997070312 -18.9990234375 c 0
 248.6640625 -6.9990234375 252.6640625 -0.666015625 251.997070312 0.0009765625 c 0
 251.330078125 0.66796875 244.997070312 1.0009765625 232.997070312 1.0009765625 c 2
 167.997070312 0.0009765625 l 1
 143.997070312 0.0009765625 l 2
 127.330078125 0.0009765625 115.497070312 5.833984375 108.497070312 17.5009765625 c 0
 101.497070312 29.16796875 102.330078125 45.66796875 110.997070312 67.0009765625 c 0
 119.6640625 87.0009765625 133.331054688 115.66796875 151.998046875 153.000976562 c 2
 248.998046875 333.000976562 l 2
 257.665039062 346.333984375 260.83203125 354.666992188 258.499023438 358 c 0
 256.166015625 361.333007812 249.666015625 363 238.999023438 363 c 2
 166.999023438 363 l 2
 131.666015625 363 107.999023438 358.333007812 95.9990234375 349 c 0
 81.9990234375 337.666992188 67.666015625 311.666992188 52.9990234375 271 c 0
 50.33203125 269 45.9990234375 268.333007812 39.9990234375 269 c 0
 33.9990234375 269.666992188 28.9990234375 271.666992188 24.9990234375 275 c 1
 35.666015625 307.666992188 47.666015625 359.666992188 60.9990234375 431 c 1
 68.33203125 433.666992188 75.33203125 433.666992188 81.9990234375 431 c 1
 83.9990234375 413 88.83203125 402.166992188 96.4990234375 398.5 c 0
 104.166015625 394.833007812 123.999023438 393 155.999023438 393 c 2
 302.999023438 393 l 2
 335.666015625 393 356.999023438 394 366.999023438 396 c 0
 371.666015625 394 373.666015625 390.666992188 372.999023438 386 c 0
 347.666015625 352 321.666015625 314 294.999023438 272 c 2
 177.999023438 69 l 2
 166.666015625 51.6669921875 162.333007812 40.6669921875 165 36 c 0
 167.666992188 31.3330078125 178.666992188 29 198 29 c 2
 223 29 l 2
 251.666992188 29 273.666992188 30.3330078125 289 33 c 1
 309 30.3330078125 316 20 310 2 c 1
 295 -21 l 2
EndSplineSet
EndChar

StartChar: DLE
Encoding: 16 16 9
Width: 450
GlyphClass: 2
Flags: W
LayerCount: 2
Fore
SplineSet
367 393 m 0
 375 393 385.336914062 393.831054688 398.00390625 395.498046875 c 0
 410.670898438 397.165039062 419.00390625 397.998046875 423.00390625 397.998046875 c 0
 429.670898438 398.665039062 433.170898438 395.665039062 433.50390625 388.998046875 c 0
 433.836914062 382.331054688 432.00390625 376.998046875 428.00390625 372.998046875 c 2
 405.00390625 368.998046875 l 2
 393.00390625 366.331054688 377.336914062 355.998046875 358.00390625 337.998046875 c 0
 354.670898438 334.665039062 341.670898438 318.665039062 319.00390625 289.998046875 c 0
 296.336914062 261.331054688 277.669921875 238.6640625 263.002929688 221.997070312 c 0
 255.002929688 210.6640625 250.3359375 203.997070312 249.002929688 201.997070312 c 0
 247.669921875 199.997070312 248.669921875 196.330078125 252.002929688 190.997070312 c 2
 343.002929688 68.9970703125 l 2
 358.3359375 44.330078125 378.3359375 29.330078125 403.002929688 23.9970703125 c 2
 427.002929688 16.9970703125 l 2
 429.669921875 14.9970703125 431.002929688 10.830078125 431.002929688 4.4970703125 c 0
 431.002929688 -1.8359375 429.002929688 -6.0029296875 425.002929688 -8.0029296875 c 0
 403.002929688 -2.669921875 371.3359375 -0.0029296875 330.002929688 -0.0029296875 c 0
 324.002929688 -0.0029296875 309.8359375 -2.5029296875 287.502929688 -7.5029296875 c 0
 265.169921875 -12.5029296875 239.669921875 -15.3359375 211.002929688 -16.0029296875 c 0
 185.002929688 -15.3359375 160.669921875 -12.5029296875 138.002929688 -7.5029296875 c 0
 115.3359375 -2.5029296875 100.002929688 -0.0029296875 92.0029296875 -0.0029296875 c 0
 79.3359375 0.6640625 65.5029296875 0.6640625 50.5029296875 -0.0029296875 c 0
 35.5029296875 -0.669921875 22.3359375 -3.3369140625 11.0029296875 -8.00390625 c 0
 7.0029296875 -6.00390625 5.0029296875 -1.8369140625 5.0029296875 4.49609375 c 0
 5.0029296875 10.8291015625 6.3359375 14.99609375 9.0029296875 16.99609375 c 2
 32.0029296875 23.99609375 l 2
 51.3359375 28.6630859375 67.6689453125 38.330078125 81.001953125 52.9970703125 c 0
 99.6689453125 71.6640625 132.668945312 112.997070312 180.001953125 176.997070312 c 0
 186.001953125 185.6640625 189.668945312 191.331054688 191.001953125 193.998046875 c 0
 192.334960938 196.665039062 191.001953125 200.998046875 187.001953125 206.998046875 c 2
 92.001953125 324.998046875 l 2
 76.001953125 348.331054688 56.001953125 362.6640625 32.001953125 367.997070312 c 2
 8.001953125 371.997070312 l 2
 5.3349609375 375.997070312 4.66796875 380.997070312 6.0009765625 386.997070312 c 0
 7.333984375 392.997070312 10.0009765625 396.6640625 14.0009765625 397.997070312 c 0
 53.333984375 394.6640625 74.0009765625 392.997070312 76.0009765625 392.997070312 c 0
 100.66796875 392.330078125 117.66796875 386.330078125 127.000976562 374.997070312 c 0
 136.333984375 363.6640625 146.333984375 346.6640625 157.000976562 323.997070312 c 2
 203.000976562 253.997070312 l 2
 205.66796875 250.6640625 208.16796875 247.331054688 210.500976562 243.998046875 c 0
 212.833984375 240.665039062 216.666992188 235.33203125 222 227.999023438 c 1
 228 234.666015625 250.666992188 264.333007812 290 317 c 0
 294 323 299.5 333 306.5 347 c 0
 313.5 361 321.666992188 372.166992188 331 380.5 c 0
 340.333007812 388.833007812 352.333007812 393 367 393 c 0
268.00390625 20.998046875 m 0
 281.336914062 24.998046875 288.3359375 30.3310546875 289.002929688 36.998046875 c 0
 289.669921875 43.6650390625 285.669921875 54.998046875 277.002929688 70.998046875 c 2
 233.002929688 137.998046875 l 2
 229.669921875 142.665039062 226.336914062 146.998046875 223.00390625 150.998046875 c 0
 219.670898438 154.998046875 216.670898438 158.665039062 214.00390625 161.998046875 c 1
 207.336914062 156.665039062 186.00390625 127.665039062 150.00390625 74.998046875 c 0
 140.00390625 64.3310546875 135.836914062 54.1640625 137.50390625 44.4970703125 c 0
 139.170898438 34.830078125 145.670898438 27.330078125 157.00390625 21.9970703125 c 0
 198.336914062 6.6640625 235.336914062 6.3310546875 268.00390625 20.998046875 c 0
EndSplineSet
EndChar

StartChar: DC1
Encoding: 17 17 10
Width: 689
GlyphClass: 2
Flags: W
LayerCount: 2
Fore
SplineSet
185 407 m 0
 257 407 310.000976562 377.331054688 344.000976562 317.998046875 c 1
 361.333984375 345.331054688 383.833984375 366.998046875 411.500976562 382.998046875 c 0
 439.16796875 398.998046875 469.66796875 406.998046875 503.000976562 406.998046875 c 0
 547.66796875 406.998046875 582.500976562 394.498046875 607.500976562 369.498046875 c 0
 632.500976562 344.498046875 647.000976562 311.665039062 651.000976562 270.998046875 c 2
 653.000976562 244.998046875 l 2
 651.66796875 239.665039062 633.334960938 236.998046875 598.001953125 236.998046875 c 2
 403.001953125 236.998046875 l 2
 386.334960938 236.998046875 377.66796875 232.331054688 377.000976562 222.998046875 c 0
 377.66796875 219.665039062 377.834960938 216.165039062 377.501953125 212.498046875 c 0
 377.168945312 208.831054688 377.001953125 204.998046875 377.001953125 200.998046875 c 2
 377.001953125 190.998046875 l 2
 380.334960938 72.3310546875 434.66796875 19.998046875 540.000976562 33.998046875 c 0
 574.000976562 37.998046875 604.333984375 56.6650390625 631.000976562 89.998046875 c 1
 641.66796875 93.3310546875 647.66796875 89.6640625 649.000976562 78.9970703125 c 1
 634.333984375 48.330078125 612.666992188 24.9970703125 584 8.9970703125 c 0
 555.333007812 -7.0029296875 526.666015625 -15.0029296875 497.999023438 -15.0029296875 c 0
 435.999023438 -15.0029296875 387.666015625 6.9970703125 352.999023438 50.9970703125 c 0
 347.666015625 58.9970703125 343.999023438 64.6640625 341.999023438 67.9970703125 c 1
 306.666015625 12.6640625 255.666015625 -15.0029296875 188.999023438 -15.0029296875 c 0
 160.33203125 -15.0029296875 130.83203125 -7.0029296875 100.499023438 8.9970703125 c 0
 70.166015625 24.9970703125 47.3330078125 48.330078125 32 78.9970703125 c 1
 33.3330078125 89.6640625 39.3330078125 93.3310546875 50 89.998046875 c 1
 75.3330078125 57.998046875 106 41.998046875 142 41.998046875 c 0
 194.666992188 41.998046875 235.5 57.3310546875 264.5 87.998046875 c 0
 293.5 118.665039062 308 159.33203125 308 209.999023438 c 0
 308 222.666015625 306.833007812 230.333007812 304.5 233 c 0
 302.166992188 235.666992188 294.333984375 237 281.000976562 237 c 2
 83.0009765625 237 l 2
 48.333984375 237 30.333984375 239.666992188 29.0009765625 245 c 0
 28.333984375 247 28.6669921875 255.666992188 30 271 c 0
 34 311.666992188 49.3330078125 344.5 76 369.5 c 0
 102.666992188 394.5 139 407 185 407 c 0
387.000976562 267.998046875 m 2
 458.000976562 267.997070312 l 2
 523.333984375 267.997070312 560.000976562 270.997070312 568.000976562 276.997070312 c 0
 572.000976562 279.6640625 574.000976562 291.997070312 574.000976562 313.997070312 c 0
 574.000976562 330.6640625 566.833984375 345.331054688 552.500976562 357.998046875 c 0
 538.16796875 370.665039062 517.66796875 376.998046875 491.000976562 376.998046875 c 0
 463.66796875 376.998046875 438.66796875 364.498046875 416.000976562 339.498046875 c 0
 393.333984375 314.498046875 381.333984375 291.998046875 380.000976562 271.998046875 c 0
 380.000976562 269.331054688 382.333984375 267.998046875 387.000976562 267.998046875 c 2
298.000976562 267.997070312 m 2
 302.66796875 267.997070312 305 269.330078125 305 271.997070312 c 0
 305 290.6640625 290.666992188 313.831054688 262 341.498046875 c 0
 233.333007812 369.165039062 204.666015625 382.998046875 175.999023438 382.998046875 c 0
 150.666015625 382.998046875 130.833007812 376.665039062 116.5 363.998046875 c 0
 102.166992188 351.331054688 94.333984375 336.6640625 93.0009765625 319.997070312 c 0
 91.0009765625 298.6640625 94.333984375 284.997070312 103.000976562 278.997070312 c 0
 113.000976562 271.6640625 150.333984375 267.997070312 215.000976562 267.997070312 c 2
 298.000976562 267.997070312 l 2
EndSplineSet
EndChar

StartChar: DC2
Encoding: 18 18 11
Width: 689
GlyphClass: 2
Flags: W
LayerCount: 2
Fore
SplineSet
497 -15 m 0
 461.666992188 -15 430.331054688 -7.1669921875 402.998046875 8.5 c 0
 375.665039062 24.1669921875 353.998046875 46 337.998046875 74 c 1
 321.998046875 47.3330078125 299.998046875 25.8330078125 271.998046875 9.5 c 0
 243.998046875 -6.8330078125 212.998046875 -15 178.998046875 -15 c 0
 134.998046875 -15 100.331054688 -2.6669921875 74.998046875 22 c 0
 49.6650390625 46.6669921875 34.998046875 79.6669921875 30.998046875 121 c 2
 28.998046875 147 l 2
 30.3310546875 152.333007812 48.6640625 155 83.9970703125 155 c 2
 278.997070312 155 l 2
 290.330078125 155 297.497070312 155.833007812 300.497070312 157.5 c 0
 303.497070312 159.166992188 304.997070312 163 304.997070312 169 c 2
 304.997070312 191 l 1
 304.997070312 201 l 2
 301.6640625 319.666992188 247.331054688 372 141.998046875 358 c 0
 107.998046875 354 77.6650390625 335.333007812 50.998046875 302 c 1
 40.3310546875 298.666992188 34.3310546875 302.333984375 32.998046875 313.000976562 c 1
 48.998046875 345.66796875 70.8310546875 369.500976562 98.498046875 384.500976562 c 0
 126.165039062 399.500976562 154.665039062 407.000976562 183.998046875 407.000976562 c 0
 245.998046875 407.000976562 294.331054688 385.000976562 328.998046875 341.000976562 c 0
 334.331054688 333.000976562 337.998046875 327.333984375 339.998046875 324.000976562 c 1
 375.331054688 379.333984375 426.331054688 407.000976562 492.998046875 407.000976562 c 0
 522.998046875 407.000976562 552.998046875 399.16796875 582.998046875 383.500976562 c 0
 612.998046875 367.833984375 635.331054688 344.333984375 649.998046875 313.000976562 c 1
 648.665039062 302.333984375 642.665039062 298.666992188 631.998046875 302 c 1
 606.665039062 334 575.998046875 350 539.998046875 350 c 0
 487.331054688 350 446.498046875 334.833007812 417.498046875 304.5 c 0
 388.498046875 274.166992188 373.998046875 233.333984375 373.998046875 182.000976562 c 0
 373.998046875 169.333984375 375.331054688 161.666992188 377.998046875 159 c 0
 380.665039062 156.333007812 388.33203125 155 400.999023438 155 c 2
 598.999023438 155 l 2
 633.666015625 155 651.666015625 152.333007812 652.999023438 147 c 0
 653.666015625 145 653.333007812 136.333007812 652 121 c 0
 648 80.3330078125 632.5 47.5 605.5 22.5 c 0
 578.5 -2.5 542.333007812 -15 497 -15 c 0
294.997070312 124 m 2
 223.998046875 124.001953125 l 2
 158.665039062 124.001953125 121.998046875 121.001953125 113.998046875 115.001953125 c 0
 109.998046875 112.334960938 107.998046875 100.001953125 107.998046875 78.001953125 c 0
 107.998046875 61.3349609375 115.165039062 46.66796875 129.498046875 34.0009765625 c 0
 143.831054688 21.333984375 164.331054688 15.0009765625 190.998046875 15.0009765625 c 0
 218.331054688 15.0009765625 243.6640625 27.66796875 266.997070312 53.0009765625 c 0
 290.330078125 78.333984375 301.997070312 100.666992188 301.997070312 120 c 0
 301.997070312 122.666992188 299.6640625 124 294.997070312 124 c 2
383.998046875 124.001953125 m 2
 379.331054688 124.001953125 376.998046875 122.669921875 376.998046875 120.002929688 c 0
 378.331054688 100.002929688 393.331054688 76.5029296875 421.998046875 49.5029296875 c 0
 450.665039062 22.5029296875 478.665039062 9.0029296875 505.998046875 9.0029296875 c 0
 531.998046875 9.0029296875 551.998046875 15.169921875 565.998046875 27.5029296875 c 0
 579.998046875 39.8359375 587.665039062 54.6689453125 588.998046875 72.001953125 c 0
 590.998046875 93.3349609375 587.665039062 107.001953125 578.998046875 113.001953125 c 0
 568.998046875 120.334960938 531.665039062 124.001953125 466.998046875 124.001953125 c 2
 383.998046875 124.001953125 l 2
EndSplineSet
EndChar

StartChar: DC3
Encoding: 19 19 12
Width: 700
GlyphClass: 2
Flags: W
LayerCount: 2
Fore
SplineSet
350 65 m 2
 350 46.3330078125 357.5 33.9990234375 372.5 27.9990234375 c 0
 387.5 21.9990234375 408.666992188 18.9990234375 436 18.9990234375 c 0
 524 18.9990234375 568 77.666015625 568 194.999023438 c 0
 568 250.999023438 558.5 294.499023438 539.5 325.499023438 c 0
 520.5 356.499023438 483.333007812 371.999023438 428 371.999023438 c 0
 402 371.999023438 382.333007812 369.33203125 369 363.999023438 c 0
 356.333007812 358.666015625 350 343.333007812 350 318 c 2
 350 65 l 2
298 392.999023438 m 2
 318 392.999023438 342.330078125 394.6640625 370.997070312 397.997070312 c 0
 399.6640625 401.330078125 417.331054688 402.997070312 423.998046875 402.997070312 c 0
 506.665039062 402.997070312 565.665039062 382.830078125 600.998046875 342.497070312 c 0
 636.331054688 302.1640625 653.998046875 250.997070312 653.998046875 188.997070312 c 0
 653.998046875 128.997070312 636.665039062 80.6640625 601.998046875 43.9970703125 c 0
 567.331054688 7.330078125 510.998046875 -11.0029296875 432.998046875 -11.0029296875 c 0
 418.331054688 -11.0029296875 396.998046875 -9.0029296875 368.998046875 -5.0029296875 c 0
 340.998046875 -1.0029296875 317.998046875 0.6640625 299.998046875 -0.0029296875 c 2
 225.998046875 -3.0029296875 l 2
 199.998046875 -3.669921875 171.165039062 -4.169921875 139.498046875 -4.5029296875 c 0
 107.831054688 -4.8359375 81.6640625 -5.3359375 60.9970703125 -6.0029296875 c 1
 47.6640625 18.6640625 37.9970703125 51.9970703125 31.9970703125 93.9970703125 c 0
 33.9970703125 99.9970703125 37.9970703125 103.6640625 43.9970703125 104.997070312 c 0
 49.9970703125 106.330078125 54.6640625 105.330078125 57.9970703125 101.997070312 c 0
 70.6640625 68.6640625 85.9970703125 47.6640625 103.997070312 38.9970703125 c 0
 121.997070312 30.330078125 148.6640625 25.9970703125 183.997070312 25.9970703125 c 0
 229.997070312 25.9970703125 256.997070312 30.330078125 264.997070312 38.9970703125 c 0
 272.330078125 46.9970703125 275.997070312 68.6640625 275.997070312 103.997070312 c 2
 275.997070312 169.997070312 l 2
 275.997070312 179.330078125 275.1640625 184.830078125 273.497070312 186.497070312 c 0
 271.830078125 188.1640625 266.330078125 188.997070312 256.997070312 188.997070312 c 2
 211.997070312 188.997070312 l 2
 186.6640625 188.997070312 170.6640625 187.1640625 163.997070312 183.497070312 c 0
 157.330078125 179.830078125 151.997070312 170.330078125 147.997070312 154.997070312 c 2
 142.997070312 138.997070312 l 2
 140.997070312 134.330078125 137.330078125 132.330078125 131.997070312 132.997070312 c 0
 126.6640625 133.6640625 122.331054688 136.331054688 118.998046875 140.998046875 c 0
 120.331054688 158.331054688 120.998046875 179.998046875 120.998046875 205.998046875 c 0
 120.998046875 230.665039062 120.331054688 251.665039062 118.998046875 268.998046875 c 0
 122.331054688 272.998046875 126.831054688 274.998046875 132.498046875 274.998046875 c 0
 138.165039062 274.998046875 141.665039062 273.331054688 142.998046875 269.998046875 c 2
 147.998046875 252.998046875 l 2
 152.665039062 238.331054688 158.33203125 228.831054688 164.999023438 224.498046875 c 0
 171.666015625 220.165039062 187.333007812 217.998046875 212 217.998046875 c 2
 257 217.998046875 l 2
 265.666992188 217.998046875 271 218.998046875 273 220.998046875 c 0
 275 222.998046875 276 228.331054688 276 236.998046875 c 2
 276 336.998046875 l 2
 276 350.998046875 274.5 359.331054688 271.5 361.998046875 c 0
 268.5 364.665039062 258.333007812 365.998046875 241 365.998046875 c 2
 170 365.998046875 l 2
 125.333007812 365.998046875 98 358.998046875 88 344.998046875 c 0
 80 333.665039062 74 318.998046875 70 300.998046875 c 0
 68 298.331054688 63.8330078125 297.331054688 57.5 297.998046875 c 0
 51.1669921875 298.665039062 47 301.33203125 45 305.999023438 c 0
 51 349.33203125 54.6669921875 379.999023438 56 397.999023438 c 1
 62.6669921875 397.33203125 92.6669921875 396.33203125 146 394.999023438 c 2
 298 392.999023438 l 2
EndSplineSet
EndChar

StartChar: DC4
Encoding: 20 20 13
Width: 450
GlyphClass: 2
Flags: W
LayerCount: 2
Fore
SplineSet
397 393 m 0
 403 393 406.168945312 390.170898438 406.501953125 384.50390625 c 0
 406.834960938 378.836914062 404.334960938 373.669921875 399.001953125 369.002929688 c 0
 381.001953125 355.669921875 367.668945312 344.336914062 359.001953125 335.00390625 c 0
 340.334960938 316.336914062 307.334960938 275.00390625 260.001953125 211.00390625 c 0
 254.668945312 203.670898438 251.8359375 198.50390625 251.502929688 195.50390625 c 0
 251.169921875 192.50390625 252.669921875 188.336914062 256.002929688 183.00390625 c 2
 354.002929688 63.00390625 l 2
 373.3359375 39.00390625 393.3359375 24.6708984375 414.002929688 20.00390625 c 2
 432.002929688 16.00390625 l 2
 434.669921875 12.00390625 435.336914062 7.00390625 434.00390625 1.00390625 c 0
 432.670898438 -4.99609375 430.00390625 -8.6630859375 426.00390625 -9.99609375 c 0
 410.670898438 -8.6630859375 397.50390625 -7.49609375 386.50390625 -6.49609375 c 0
 375.50390625 -5.49609375 363.336914062 -4.3291015625 350.00390625 -2.99609375 c 0
 332.670898438 -2.3291015625 319.837890625 1.1708984375 311.504882812 7.50390625 c 0
 303.171875 13.8369140625 295.171875 24.8369140625 287.504882812 40.50390625 c 0
 279.837890625 56.1708984375 275.337890625 64.6708984375 274.004882812 66.00390625 c 2
 237.004882812 129.00390625 l 2
 235.004882812 132.336914062 232.671875 135.669921875 230.004882812 139.002929688 c 0
 227.337890625 142.3359375 223.337890625 147.668945312 218.004882812 155.001953125 c 1
 213.337890625 149.668945312 204.170898438 135.001953125 190.50390625 111.001953125 c 0
 176.836914062 87.001953125 168.669921875 72.6689453125 166.002929688 68.001953125 c 0
 162.669921875 62.6689453125 157.502929688 53.501953125 150.502929688 40.501953125 c 0
 143.502929688 27.501953125 135.169921875 17.001953125 125.502929688 9.001953125 c 0
 115.8359375 1.001953125 103.668945312 -2.998046875 89.001953125 -2.998046875 c 0
 73.001953125 -4.3310546875 60.1689453125 -5.6640625 50.501953125 -6.9970703125 c 0
 40.8349609375 -8.330078125 29.66796875 -9.330078125 17.0009765625 -9.9970703125 c 0
 10.333984375 -9.9970703125 7.0009765625 -6.330078125 7.0009765625 1.0029296875 c 0
 7.0009765625 8.3359375 8.66796875 13.0029296875 12.0009765625 15.0029296875 c 2
 29.0009765625 19.0029296875 l 2
 43.0009765625 22.3359375 58.66796875 32.6689453125 76.0009765625 50.001953125 c 0
 86.0009765625 60.001953125 104.16796875 80.501953125 130.500976562 111.501953125 c 0
 156.833984375 142.501953125 172.333984375 160.668945312 177.000976562 166.001953125 c 0
 181.000976562 171.334960938 184.333984375 175.66796875 187.000976562 179.000976562 c 0
 189.66796875 182.333984375 191.000976562 185.500976562 191.000976562 188.500976562 c 0
 191.000976562 191.500976562 190.000976562 194.333984375 188.000976562 197.000976562 c 2
 97.0009765625 319.000976562 l 2
 82.333984375 343.000976562 65.6669921875 358.000976562 47 364.000976562 c 0
 42.3330078125 367.333984375 40 372.166992188 40 378.5 c 0
 40 384.833007812 42.3330078125 389 47 391 c 0
 56.3330078125 389 77.3330078125 388 110 388 c 0
 116.666992188 388 131.833984375 391 155.500976562 397 c 0
 179.16796875 403 203.66796875 406.333007812 229.000976562 407 c 0
 251.000976562 406.333007812 274.500976562 403 299.500976562 397 c 0
 324.500976562 391 340.66796875 388 348.000976562 388 c 0
 373.333984375 388 389.666992188 389.666992188 397 393 c 0
172.001953125 358.00390625 m 0
 162.668945312 350.670898438 157.16796875 344.8359375 155.500976562 340.502929688 c 0
 153.833984375 336.169921875 156.333984375 328.336914062 163.000976562 317.00390625 c 2
 204.000976562 253.00390625 l 2
 208.66796875 247.00390625 212.334960938 242.336914062 215.001953125 239.00390625 c 2
 223.001953125 229.00390625 l 1
 232.334960938 237.00390625 254.66796875 267.00390625 290.000976562 319.00390625 c 0
 300.66796875 335.00390625 298.334960938 348.00390625 283.001953125 358.00390625 c 1
 243.001953125 372.670898438 206.001953125 372.670898438 172.001953125 358.00390625 c 0
EndSplineSet
EndChar

StartChar: NAK
Encoding: 21 21 14
Width: 700
GlyphClass: 2
Flags: W
LayerCount: 2
Fore
SplineSet
318 277 m 2
 277.998046875 351.999023438 l 2
 274.665039062 359.33203125 264.998046875 363.33203125 248.998046875 363.999023438 c 0
 232.998046875 364.666015625 219.998046875 359.999023438 209.998046875 349.999023438 c 2
 145.998046875 287.999023438 l 2
 118.665039062 261.999023438 105.83203125 236.166015625 107.499023438 210.499023438 c 0
 109.166015625 184.83203125 122.333007812 152.999023438 147 114.999023438 c 1
 219 39.9990234375 l 2
 225.666992188 33.33203125 236.5 30.6650390625 251.5 31.998046875 c 0
 266.5 33.3310546875 276.666992188 38.998046875 282 48.998046875 c 2
 313 107.998046875 l 2
 327.666992188 135.331054688 337 156.831054688 341 172.498046875 c 0
 345 188.165039062 345.333007812 203.33203125 342 217.999023438 c 0
 338.666992188 232.666015625 330.666992188 252.333007812 318 277 c 2
604.998046875 181.999023438 m 2
 449.000976562 185.999023438 l 2
 442.333984375 185.999023438 437.833984375 183.999023438 435.500976562 179.999023438 c 0
 433.16796875 175.999023438 433.000976562 171.999023438 435.000976562 167.999023438 c 2
 535.000976562 38.9990234375 l 2
 547.66796875 21.666015625 557.66796875 13.9990234375 565.000976562 15.9990234375 c 0
 572.333984375 17.9990234375 584.833984375 24.83203125 602.500976562 36.4990234375 c 0
 620.16796875 48.166015625 636.66796875 52.666015625 652.000976562 49.9990234375 c 0
 662.66796875 48.666015625 667.66796875 42.8330078125 667.000976562 32.5 c 0
 666.333984375 22.1669921875 658.333984375 10.6669921875 643.000976562 -2 c 0
 623.000976562 -14 597.833984375 -19.1669921875 567.500976562 -17.5 c 0
 537.16796875 -15.8330078125 513.000976562 -4.3330078125 495.000976562 17 c 2
 407.000976562 122 l 2
 401.66796875 128 396.000976562 128 390.000976562 122 c 2
 291.000976562 -6 l 2
 285.000976562 -14 269.16796875 -18 243.500976562 -18 c 0
 217.833984375 -18 202.000976562 -15 196.000976562 -9 c 2
 37.0009765625 160 l 2
 29.0009765625 168 25.66796875 183.166992188 27.0009765625 205.5 c 0
 28.333984375 227.833007812 34.0009765625 244.666015625 44.0009765625 255.999023438 c 2
 197.000976562 401.999023438 l 2
 204.333984375 409.33203125 221.333984375 412.999023438 248.000976562 412.999023438 c 0
 274.66796875 412.999023438 289.334960938 409.999023438 292.001953125 403.999023438 c 2
 391.001953125 290.999023438 l 2
 397.668945312 285.666015625 402.668945312 286.333007812 406.001953125 293 c 2
 485.001953125 381 l 2
 503.001953125 401.666992188 531.334960938 412.666992188 570.001953125 414 c 0
 608.668945312 415.333007812 634.668945312 410.333007812 648.001953125 399 c 0
 657.334960938 392.333007812 663.66796875 384.666015625 667.000976562 375.999023438 c 0
 670.333984375 367.33203125 670.666992188 359.999023438 668 353.999023438 c 0
 665.333007812 347.999023438 661.333007812 344.666015625 656 343.999023438 c 0
 639.333007812 341.33203125 621 346.33203125 601 358.999023438 c 0
 581 371.666015625 566.166992188 378.666015625 556.5 379.999023438 c 0
 546.833007812 381.33203125 533.666015625 371.33203125 516.999023438 349.999023438 c 2
 440.999023438 249.999023438 l 2
 437.666015625 244.666015625 437.166015625 238.999023438 439.499023438 232.999023438 c 0
 441.83203125 226.999023438 444.665039062 223.999023438 447.998046875 223.999023438 c 2
 603.998046875 227.999023438 l 2
 613.998046875 225.999023438 618.331054688 217.83203125 616.998046875 203.499023438 c 0
 615.665039062 189.166015625 611.665039062 181.999023438 604.998046875 181.999023438 c 2
EndSplineSet
EndChar

StartChar: SYN
Encoding: 22 22 15
Width: 730
GlyphClass: 2
Flags: W
LayerCount: 2
Fore
SplineSet
318 277 m 2
 277.998046875 352.000976562 l 2
 274.665039062 359.333984375 264.998046875 363.333984375 248.998046875 364.000976562 c 0
 232.998046875 364.66796875 219.998046875 360.000976562 209.998046875 350.000976562 c 2
 153.998046875 288.000976562 l 2
 122.665039062 255.333984375 107.33203125 226.500976562 107.999023438 201.500976562 c 0
 108.666015625 176.500976562 123.333007812 147.66796875 152 115.000976562 c 2
 219 40.0009765625 l 2
 226.333007812 33.333984375 237.333007812 30.6669921875 252 32 c 0
 266.666992188 33.3330078125 276.666992188 39 282 49 c 2
 313 108 l 2
 335 144.666992188 346.166992188 173.5 346.5 194.5 c 0
 346.833007812 215.5 337.333007812 243 318 277 c 2
448.998046875 224.000976562 m 2
 611 228.000976562 l 2
 630.333007812 228.000976562 634 242.000976562 622 270.000976562 c 2
 585 352.000976562 l 2
 581 358.000976562 570.666992188 361.66796875 554 363.000976562 c 0
 537.333007812 364.333984375 525 360.000976562 517 350.000976562 c 2
 441 250.000976562 l 2
 436.333007812 243.333984375 435.666015625 237.333984375 438.999023438 232.000976562 c 0
 442.33203125 226.66796875 445.665039062 224.000976562 448.998046875 224.000976562 c 2
438 168.000976562 m 2
 534.99609375 39 l 2
 547.663085938 22.3330078125 558.330078125 15.5 566.997070312 18.5 c 0
 575.6640625 21.5 587.831054688 28.1669921875 603.498046875 38.5 c 0
 619.165039062 48.8330078125 635.33203125 52.666015625 651.999023438 49.9990234375 c 0
 662.666015625 48.666015625 667.666015625 42.8330078125 666.999023438 32.5 c 0
 666.33203125 22.1669921875 658.33203125 10.6669921875 642.999023438 -2 c 0
 626.999023438 -11.3330078125 604.166015625 -16.666015625 574.499023438 -17.9990234375 c 0
 544.83203125 -19.33203125 523.999023438 -16.33203125 511.999023438 -8.9990234375 c 1
 405.999023438 123.000976562 l 2
 400.666015625 129.000976562 394.999023438 129.000976562 388.999023438 123.000976562 c 2
 290.999023438 -5.9990234375 l 2
 285.666015625 -13.33203125 270.166015625 -16.9990234375 244.499023438 -16.9990234375 c 0
 218.83203125 -16.9990234375 202.665039062 -14.33203125 195.998046875 -8.9990234375 c 2
 36.998046875 160.000976562 l 2
 28.998046875 168.000976562 25.6650390625 183.16796875 26.998046875 205.500976562 c 0
 28.3310546875 227.833984375 33.998046875 244.666992188 43.998046875 256 c 2
 196.998046875 402 l 2
 204.331054688 409.333007812 221.331054688 413 247.998046875 413 c 0
 274.665039062 413 289.33203125 410 291.999023438 404 c 2
 390.999023438 291 l 2
 397.666015625 285.666992188 402.666015625 286.333984375 405.999023438 293.000976562 c 2
 503.999023438 402.000976562 l 2
 511.33203125 409.333984375 528.33203125 413.000976562 554.999023438 413.000976562 c 0
 581.666015625 413.000976562 596.333007812 410.000976562 599 404.000976562 c 2
 692 268.000976562 l 2
 702 254.66796875 702.833007812 237.66796875 694.5 217.000976562 c 0
 686.166992188 196.333984375 663 186.000976562 625 186.000976562 c 2
 452 186.000976562 l 2
 434 186.000976562 429.333007812 180.000976562 438 168.000976562 c 2
EndSplineSet
EndChar

StartChar: ETB
Encoding: 23 23 16
Width: 502
GlyphClass: 2
Flags: W
LayerCount: 2
Fore
SplineSet
168 101 m 1
 327.999023438 315.999023438 l 1
 289.999023438 349.999023438 l 2
 285.999023438 355.999023438 275.499023438 359.666015625 258.499023438 360.999023438 c 0
 241.499023438 362.33203125 229.33203125 357.999023438 221.999023438 347.999023438 c 2
 165.999023438 284.999023438 l 2
 144.666015625 260.33203125 130.166015625 239.83203125 122.499023438 223.499023438 c 0
 114.83203125 207.166015625 113.83203125 189.333007812 119.499023438 170 c 0
 125.166015625 150.666992188 141.333007812 127.666992188 168 101 c 1
352.999023438 349.999023438 m 1
 373.998046875 325 l 1
 464.998046875 241 l 2
 472.331054688 235 475.331054688 220.666992188 473.998046875 198 c 0
 472.665039062 175.333007812 466.665039062 157.666015625 455.998046875 144.999023438 c 2
 302.998046875 -9.0009765625 l 2
 295.665039062 -16.333984375 278.998046875 -20.0009765625 252.998046875 -20.0009765625 c 0
 226.998046875 -20.0009765625 211.998046875 -17.333984375 207.998046875 -12.0009765625 c 2
 162.998046875 38.9990234375 l 1
 144.998046875 16.9990234375 l 1
 105.998046875 -37.0009765625 l 1
 99.998046875 -37.0009765625 94.498046875 -34.833984375 89.498046875 -30.5009765625 c 0
 84.498046875 -26.16796875 81.998046875 -21.3349609375 81.998046875 -16.001953125 c 2
 119.998046875 34.998046875 l 1
 139.998046875 63.998046875 l 1
 44.998046875 157.998046875 l 2
 36.998046875 165.998046875 33.6650390625 181.331054688 34.998046875 203.998046875 c 0
 36.3310546875 226.665039062 42.3310546875 243.33203125 52.998046875 253.999023438 c 2
 208.998046875 399.999023438 l 2
 216.331054688 407.33203125 233.331054688 410.999023438 259.998046875 410.999023438 c 0
 286.665039062 410.999023438 301.33203125 407.999023438 303.999023438 401.999023438 c 2
 352.999023438 349.999023438 l 1
347.998046875 291 m 1
 190.999023438 83 l 1
 231.999023438 38 l 2
 235.999023438 31.3330078125 245.999023438 29 261.999023438 31 c 0
 277.999023438 33 288.999023438 38.3330078125 294.999023438 47 c 2
 349.999023438 108 l 2
 376.666015625 143.333007812 390.166015625 174.5 390.499023438 201.5 c 0
 390.83203125 228.5 376.665039062 258.333007812 347.998046875 291 c 1
373.999023438 325 m 1
 352.999023438 350.000976562 l 1
 371.999023438 377.000976562 l 1
 407.999023438 424.000976562 l 1
 415.33203125 425.333984375 421.83203125 424.166992188 427.499023438 420.5 c 0
 433.166015625 416.833007812 435.999023438 412.333007812 435.999023438 407 c 2
 399.999023438 359 l 1
 373.999023438 325 l 1
EndSplineSet
EndChar

StartChar: CAN
Encoding: 24 24 17
Width: 498
GlyphClass: 2
Flags: W
LayerCount: 2
Fore
SplineSet
343 36 m 1
 301.993164062 -8.001953125 l 2
 294.66015625 -15.3349609375 278.327148438 -19.001953125 252.994140625 -19.001953125 c 0
 227.661132812 -19.001953125 212.328125 -16.3349609375 206.995117188 -11.001953125 c 2
 42.9951171875 157.998046875 l 2
 36.328125 165.998046875 33.328125 181.331054688 33.9951171875 203.998046875 c 0
 34.662109375 226.665039062 40.3291015625 243.33203125 50.99609375 253.999023438 c 2
 141.99609375 333.999023438 l 1
 125.99609375 358.999023438 l 1
 93.99609375 406.999023438 l 2
 94.6630859375 412.33203125 97.99609375 416.83203125 103.99609375 420.499023438 c 0
 109.99609375 424.166015625 116.329101562 425.333007812 122.99609375 424 c 1
 154.99609375 377 l 1
 166.99609375 359 l 1
 208.99609375 400 l 2
 216.329101562 407.333007812 233.329101562 411 259.99609375 411 c 0
 286.663085938 411 301.330078125 408 303.997070312 402 c 2
 462.997070312 241 l 2
 470.330078125 233.666992188 473.330078125 219 471.997070312 197 c 0
 470.6640625 175 464.331054688 157.666992188 452.998046875 145 c 2
 365.998046875 62 l 1
 383.998046875 35 l 1
 417.998046875 -16 l 1
 416.665039062 -22 413.83203125 -27 409.499023438 -31 c 0
 405.166015625 -35 399.333007812 -37 392 -37 c 1
 357 17 l 1
 343 36 l 1
348.993164062 275.998046875 m 2
 289.9921875 349.997070312 l 2
 285.9921875 355.997070312 275.659179688 359.6640625 258.9921875 360.997070312 c 0
 242.325195312 362.330078125 229.9921875 357.997070312 221.9921875 347.997070312 c 2
 182.9921875 318.997070312 l 1
 342.9921875 86.9970703125 l 1
 368.9921875 122.997070312 382.825195312 155.830078125 384.4921875 185.497070312 c 0
 386.159179688 215.1640625 374.326171875 245.331054688 348.993164062 275.998046875 c 2
165.9921875 112.997070312 m 1
 229.9921875 37.9970703125 l 2
 235.325195312 31.9970703125 245.325195312 29.330078125 259.9921875 29.9970703125 c 0
 274.659179688 30.6640625 287.9921875 34.6640625 299.9921875 41.9970703125 c 2
 318.9921875 60.9970703125 l 1
 156.9921875 298.997070312 l 1
 129.659179688 271.6640625 117.4921875 243.6640625 120.4921875 214.997070312 c 0
 123.4921875 186.330078125 138.659179688 152.330078125 165.9921875 112.997070312 c 1
EndSplineSet
EndChar

StartChar: exclam
Encoding: 33 33 18
Width: 628
GlyphClass: 2
Flags: W
LayerCount: 2
Fore
SplineSet
89 286 m 2
 89 312 86.669921875 328.499023438 82.0029296875 335.499023438 c 0
 77.3359375 342.499023438 64.0029296875 348.666015625 42.0029296875 353.999023438 c 2
 33.0029296875 355.999023438 l 2
 31.0029296875 357.999023438 30.0029296875 360.83203125 30.0029296875 364.499023438 c 0
 30.0029296875 368.166015625 31.3359375 370.666015625 34.0029296875 371.999023438 c 0
 88.0029296875 380.666015625 128.3359375 400.333007812 155.002929688 431 c 1
 160.3359375 429.666992188 163.002929688 427.333984375 163.002929688 424.000976562 c 2
 163.002929688 367.000976562 l 2
 163.002929688 359.66796875 166.3359375 356.000976562 173.002929688 356.000976562 c 1
 190.3359375 390.000976562 217.3359375 407.000976562 254.002929688 407.000976562 c 0
 274.669921875 407.000976562 290.002929688 401.833984375 300.002929688 391.500976562 c 0
 310.002929688 381.16796875 318.3359375 368.000976562 325.002929688 352.000976562 c 0
 327.669921875 348.66796875 330.336914062 348.66796875 333.00390625 352.000976562 c 0
 350.336914062 370.66796875 366.836914062 384.500976562 382.50390625 393.500976562 c 0
 398.170898438 402.500976562 416.00390625 407.000976562 436.00390625 407.000976562 c 0
 470.670898438 407.000976562 497.170898438 395.500976562 515.50390625 372.500976562 c 0
 533.836914062 349.500976562 543.00390625 320.000976562 543.00390625 284.000976562 c 2
 543.00390625 111.000976562 l 2
 543.00390625 75.66796875 544.836914062 53.0009765625 548.50390625 43.0009765625 c 0
 552.170898438 33.0009765625 561.670898438 26.66796875 577.00390625 24.0009765625 c 2
 607.00390625 22.0009765625 l 2
 609.670898438 20.0009765625 610.670898438 15.833984375 610.00390625 9.5009765625 c 0
 609.336914062 3.16796875 607.669921875 -0.9990234375 605.002929688 -2.9990234375 c 0
 567.002929688 -0.9990234375 535.3359375 0.0009765625 510.002929688 0.0009765625 c 0
 478.669921875 0.0009765625 446.336914062 -0.9990234375 413.00390625 -2.9990234375 c 0
 409.670898438 -0.9990234375 407.670898438 3.16796875 407.00390625 9.5009765625 c 0
 406.336914062 15.833984375 407.669921875 20.0009765625 411.002929688 22.0009765625 c 2
 435.002929688 24.0009765625 l 2
 451.669921875 26.66796875 461.502929688 32.5009765625 464.502929688 41.5009765625 c 0
 467.502929688 50.5009765625 469.002929688 73.66796875 469.002929688 111.000976562 c 2
 469.002929688 256.000976562 l 2
 470.3359375 324.66796875 449.3359375 359.000976562 406.002929688 359.000976562 c 0
 378.669921875 359.000976562 358.669921875 347.000976562 346.002929688 323.000976562 c 0
 338.002929688 310.333984375 334.002929688 288.000976562 334.002929688 256.000976562 c 0
 336.002929688 243.333984375 333.669921875 233.666992188 327.002929688 227 c 0
 320.3359375 220.333007812 313.668945312 219.5 307.001953125 224.5 c 0
 300.334960938 229.5 297.001953125 239.666992188 297.001953125 255 c 0
 297.001953125 324.333007812 274.668945312 359 230.001953125 359 c 0
 208.668945312 359 190.668945312 347 176.001953125 323 c 0
 167.334960938 311.666992188 163.001953125 292.666992188 163.001953125 266 c 2
 163.001953125 111 l 2
 163.001953125 73.6669921875 164.668945312 50.6669921875 168.001953125 42 c 0
 171.334960938 33.3330078125 181.001953125 27.3330078125 197.001953125 24 c 2
 221.001953125 22 l 2
 223.668945312 20 224.668945312 15.8330078125 224.001953125 9.5 c 0
 223.334960938 3.1669921875 221.66796875 -1 219.000976562 -3 c 0
 187.000976562 -1 154.66796875 0 122.000976562 0 c 0
 94.66796875 0 63.0009765625 -1 27.0009765625 -3 c 0
 23.66796875 -1 21.66796875 3.1669921875 21.0009765625 9.5 c 0
 20.333984375 15.8330078125 21.6669921875 20 25 22 c 2
 55 24 l 2
 71 26.6669921875 80.6669921875 32.5 84 41.5 c 0
 87.3330078125 50.5 89 73.6669921875 89 111 c 2
 89 286 l 2
299.002929688 -270.000976562 m 1
 299.002929688 -65.0009765625 l 1
 349.002929688 -65.0009765625 l 1
 349.002929688 -270.000976562 l 1
 299.002929688 -270.000976562 l 1
EndSplineSet
EndChar

StartChar: quotedbl
Encoding: 34 34 19
Width: 383
GlyphClass: 2
Flags: W
LayerCount: 2
Fore
SplineSet
182 607 m 0
 220.666992188 607 250.5 596.83203125 271.5 576.499023438 c 0
 292.5 556.166015625 306 521.333007812 312 472 c 1
 306 466.666992188 299.666992188 466.666992188 293 472 c 1
 285.666992188 501.333007812 273.833984375 522 257.500976562 534 c 0
 241.16796875 546 216.334960938 552 183.001953125 552 c 0
 150.334960938 552 126.66796875 546 112.000976562 534 c 0
 97.333984375 522 83.6669921875 501.333007812 71 472 c 0
 65 466.666992188 58.6669921875 466.666992188 52 472 c 1
 68.6669921875 562 112 607 182 607 c 0
116 204.999023438 m 1
 97.3330078125 212.999023438 80.9990234375 213.334960938 66.9990234375 206.001953125 c 0
 52.9990234375 198.668945312 39.666015625 181.668945312 26.9990234375 155.001953125 c 0
 23.666015625 153.001953125 19.4990234375 153.334960938 14.4990234375 156.001953125 c 0
 9.4990234375 158.668945312 6.9990234375 161.668945312 6.9990234375 165.001953125 c 0
 10.33203125 179.668945312 17.33203125 194.668945312 27.9990234375 210.001953125 c 0
 38.666015625 225.334960938 49.3330078125 234.66796875 60 238.000976562 c 0
 68 242.66796875 74 245.66796875 78 247.000976562 c 1
 70 259.000976562 65.3330078125 274.333984375 64 293.000976562 c 0
 63.3330078125 328.333984375 75.166015625 356.166992188 99.4990234375 376.5 c 0
 123.83203125 396.833007812 155.999023438 407 195.999023438 407 c 0
 241.999023438 407 271.33203125 400.666992188 283.999023438 388 c 1
 295.33203125 364 301.665039062 337.666992188 302.998046875 309 c 0
 302.331054688 305.666992188 299.1640625 303.5 293.497070312 302.5 c 0
 287.830078125 301.5 282.997070312 302.666992188 278.997070312 306 c 0
 258.997070312 354 228.997070312 378 188.997070312 378 c 0
 169.6640625 378 154.497070312 372.5 143.497070312 361.5 c 0
 132.497070312 350.5 126.997070312 335.666992188 126.997070312 317 c 0
 127.6640625 299 135.331054688 284 149.998046875 272 c 0
 164.665039062 260 183.665039062 247.333007812 206.998046875 234 c 0
 216.998046875 228.666992188 225.665039062 224 232.998046875 220 c 0
 240.331054688 216 246.998046875 212.333007812 252.998046875 209 c 0
 278.998046875 205 297.831054688 207.166992188 309.498046875 215.5 c 0
 321.165039062 223.833007812 329.33203125 241.333007812 333.999023438 268 c 1
 347.33203125 269.333007812 354.33203125 265.333007812 354.999023438 256 c 0
 346.33203125 219.333007812 331.999023438 194.666015625 311.999023438 181.999023438 c 0
 303.999023438 175.999023438 296.999023438 171.999023438 290.999023438 169.999023438 c 1
 305.666015625 147.999023438 313.333007812 124.666015625 314 99.9990234375 c 0
 316 63.9990234375 303.333007812 35.83203125 276 15.4990234375 c 0
 248.666992188 -4.833984375 215 -15.0009765625 175 -15.0009765625 c 0
 129 -15.0009765625 92.6669921875 -4.66796875 66 15.9990234375 c 1
 54.6669921875 42.666015625 49.6669921875 76.3330078125 51 117 c 0
 53 120.333007812 56.6669921875 122 62 122 c 0
 67.3330078125 122 71.3330078125 120.666992188 74 118 c 0
 98 49.3330078125 134.333007812 15 183 15 c 0
 203 15 219 20.6669921875 231 32 c 0
 243 43.3330078125 248.666992188 59 248 79 c 0
 247.333007812 99.6669921875 239.333007812 117.166992188 224 131.5 c 0
 208.666992188 145.833007812 190 158.666015625 168 169.999023438 c 0
 151.333007812 179.33203125 134 190.999023438 116 204.999023438 c 1
EndSplineSet
EndChar

StartChar: dollar
Encoding: 36 36 20
Width: 216
GlyphClass: 2
Flags: W
LayerCount: 2
Fore
SplineSet
168 -48 m 2
 168 -64 160.5 -80.1689453125 145.5 -96.501953125 c 0
 130.5 -112.834960938 111.666992188 -126.334960938 89 -137.001953125 c 0
 59 -150.334960938 30.5 -155.16796875 3.5 -151.500976562 c 0
 -23.5 -147.833984375 -41.6669921875 -136.666992188 -51 -118 c 0
 -59.6669921875 -99.3330078125 -56.5 -78 -41.5 -54 c 0
 -26.5 -30 -5 -11.6669921875 23 1 c 0
 59 17 92 20.6669921875 122 12 c 1
 122 581 l 1
 168 581 l 1
 168 -48 l 2
EndSplineSet
EndChar

StartChar: percent
Encoding: 37 37 21
Width: 547
GlyphClass: 2
Flags: W
LayerCount: 2
Fore
SplineSet
432 -66 m 2
 432 -135.333007812 433 -179.49609375 435 -198.49609375 c 0
 437 -217.49609375 445 -229.329101562 459 -233.99609375 c 0
 481.666992188 -241.329101562 497 -241.99609375 505 -235.99609375 c 0
 513 -229.99609375 517.5 -221.329101562 518.5 -209.99609375 c 0
 519.5 -198.663085938 520.666992188 -185.663085938 522 -170.99609375 c 0
 524 -164.99609375 529.166992188 -160.829101562 537.5 -158.49609375 c 0
 545.833007812 -156.163085938 554.166015625 -156.49609375 562.499023438 -159.49609375 c 0
 570.83203125 -162.49609375 576.33203125 -167.99609375 578.999023438 -175.99609375 c 0
 587.666015625 -201.329101562 584.333007812 -220.329101562 569 -232.99609375 c 0
 545 -256.99609375 516.166992188 -269.163085938 482.5 -269.49609375 c 0
 448.833007812 -269.829101562 419.666015625 -255.99609375 394.999023438 -227.99609375 c 0
 370.33203125 -199.99609375 357.999023438 -159.99609375 357.999023438 -107.99609375 c 2
 357.999023438 17.00390625 l 2
 357.999023438 27.6708984375 356.666015625 34.00390625 353.999023438 36.00390625 c 0
 309.33203125 1.3369140625 264.33203125 -15.99609375 218.999023438 -15.99609375 c 0
 188.33203125 -15.99609375 163.33203125 -10.3291015625 143.999023438 1.00390625 c 0
 124.666015625 12.3369140625 110.833007812 27.8369140625 102.5 47.50390625 c 0
 94.1669921875 67.1708984375 90 89.00390625 90 113.00390625 c 2
 90 280.00390625 l 2
 90 317.336914062 88.1669921875 340.836914062 84.5 350.50390625 c 0
 80.8330078125 360.170898438 70 365.337890625 52 366.004882812 c 2
 17 369.004882812 l 2
 13.6669921875 373.004882812 12.1669921875 377.837890625 12.5 383.504882812 c 0
 12.8330078125 389.171875 15 392.671875 19 394.004882812 c 0
 63 392.004882812 99 391.004882812 127 391.004882812 c 0
 159.666992188 391.004882812 193.333984375 392.004882812 228.000976562 394.004882812 c 0
 232.000976562 393.337890625 234.333984375 389.670898438 235.000976562 383.00390625 c 0
 235.66796875 376.336914062 234.000976562 371.669921875 230.000976562 369.002929688 c 2
 202.000976562 366.002929688 l 2
 184.000976562 364.002929688 173.16796875 358.502929688 169.500976562 349.502929688 c 0
 165.833984375 340.502929688 164.000976562 317.3359375 164.000976562 280.002929688 c 2
 164.000976562 137.002929688 l 2
 164.000976562 104.3359375 172.16796875 78.3359375 188.500976562 59.0029296875 c 0
 204.833984375 39.669921875 228.333984375 30.0029296875 259.000976562 30.0029296875 c 0
 289.66796875 30.0029296875 315.66796875 39.0029296875 337.000976562 57.0029296875 c 0
 346.333984375 65.0029296875 352.166992188 72.169921875 354.5 78.5029296875 c 0
 356.833007812 84.8359375 358 96.0029296875 358 112.002929688 c 2
 358 280.002929688 l 2
 358 317.3359375 356.166992188 340.502929688 352.5 349.502929688 c 0
 348.833007812 358.502929688 338 364.002929688 320 366.002929688 c 2
 291 369.002929688 l 2
 287 371.669921875 285.333007812 376.169921875 286 382.502929688 c 0
 286.666992188 388.8359375 289 392.668945312 293 394.001953125 c 0
 331 392.001953125 365 391.001953125 395 391.001953125 c 0
 425.666992188 391.001953125 461 392.001953125 501 394.001953125 c 0
 505 393.334960938 507.333007812 389.66796875 508 383.000976562 c 0
 508.666992188 376.333984375 507 371.666992188 503 369 c 2
 470 366 l 2
 452 364 441.166992188 358.5 437.5 349.5 c 0
 433.833007812 340.5 432 317.333007812 432 280 c 2
 432 -66 l 2
EndSplineSet
EndChar

StartChar: ampersand
Encoding: 38 38 22
Width: 609
GlyphClass: 2
Flags: W
LayerCount: 2
Fore
SplineSet
416 404 m 0
 437.333007812 404 449.993164062 404.66796875 453.993164062 406.000976562 c 0
 463.326171875 406.66796875 469.493164062 414.334960938 472.493164062 429.001953125 c 0
 475.493164062 443.668945312 476.993164062 473.3359375 476.993164062 518.002929688 c 0
 479.66015625 551.3359375 493.993164062 573.002929688 519.993164062 583.002929688 c 0
 529.326171875 587.669921875 540.993164062 588.836914062 554.993164062 586.50390625 c 0
 568.993164062 584.170898438 578.326171875 578.670898438 582.993164062 570.00390625 c 0
 589.66015625 558.00390625 590.327148438 547.670898438 584.994140625 539.00390625 c 0
 579.661132812 530.336914062 572.828125 525.50390625 564.495117188 524.50390625 c 0
 556.162109375 523.50390625 551.995117188 526.670898438 551.995117188 534.00390625 c 0
 551.995117188 544.00390625 549.162109375 551.00390625 543.495117188 555.00390625 c 0
 537.828125 559.00390625 532.161132812 558.336914062 526.494140625 553.00390625 c 0
 520.827148438 547.670898438 517.66015625 537.337890625 516.993164062 522.004882812 c 0
 515.66015625 476.671875 514.993164062 447.671875 514.993164062 435.004882812 c 0
 518.993164062 365.671875 524.326171875 324.004882812 530.993164062 310.004882812 c 0
 528.326171875 306.671875 524.159179688 304.671875 518.4921875 304.004882812 c 0
 512.825195312 303.337890625 507.9921875 304.004882812 503.9921875 306.004882812 c 0
 492.659179688 332.004882812 482.326171875 348.671875 472.993164062 356.004882812 c 1
 467.66015625 369.337890625 452.327148438 376.670898438 426.994140625 378.00390625 c 0
 406.994140625 378.00390625 391.161132812 372.50390625 379.494140625 361.50390625 c 0
 367.827148438 350.50390625 361.994140625 335.670898438 361.994140625 317.00390625 c 0
 361.994140625 299.00390625 368.994140625 284.170898438 382.994140625 272.50390625 c 0
 396.994140625 260.836914062 416.661132812 248.00390625 441.994140625 234.00390625 c 0
 451.994140625 228.670898438 460.661132812 224.00390625 467.994140625 220.00390625 c 0
 475.327148438 216.00390625 481.994140625 212.336914062 487.994140625 209.00390625 c 0
 513.994140625 205.00390625 532.827148438 207.170898438 544.494140625 215.50390625 c 0
 556.161132812 223.836914062 564.328125 241.336914062 568.995117188 268.00390625 c 1
 582.328125 269.336914062 589.328125 265.336914062 589.995117188 256.00390625 c 0
 581.328125 219.336914062 566.995117188 194.669921875 546.995117188 182.002929688 c 0
 538.328125 176.002929688 530.328125 172.002929688 522.995117188 170.002929688 c 2
 521.995117188 170.002929688 l 1
 537.328125 156.002929688 544.328125 135.669921875 542.995117188 109.002929688 c 0
 543.662109375 69.669921875 527.329101562 40.169921875 493.99609375 20.5029296875 c 0
 460.663085938 0.8359375 429.99609375 -9.9970703125 401.99609375 -11.9970703125 c 0
 353.329101562 -15.330078125 318.99609375 -16.330078125 298.99609375 -14.9970703125 c 0
 290.329101562 -14.330078125 283.329101562 -13.9970703125 277.99609375 -13.9970703125 c 0
 272.663085938 -13.9970703125 255.330078125 -11.6640625 225.997070312 -6.9970703125 c 0
 178.6640625 2.3359375 142.6640625 18.3359375 117.997070312 41.0029296875 c 0
 93.330078125 63.669921875 79.9970703125 98.669921875 77.9970703125 146.002929688 c 2
 77.9970703125 329.002929688 l 1
 77.9970703125 322.002929688 l 1
 77.9970703125 336.002929688 76.9970703125 344.3359375 74.9970703125 347.002929688 c 0
 72.9970703125 349.669921875 66.9970703125 351.002929688 56.9970703125 351.002929688 c 2
 28.9970703125 351.002929688 l 2
 25.6640625 353.002929688 23.8310546875 356.169921875 23.498046875 360.502929688 c 0
 23.1650390625 364.8359375 23.998046875 368.668945312 25.998046875 372.001953125 c 0
 55.998046875 381.334960938 77.3310546875 391.66796875 89.998046875 403.000976562 c 0
 110.665039062 421.66796875 124.665039062 462.66796875 131.998046875 526.000976562 c 1
 141.998046875 530.000976562 148.998046875 528.333984375 152.998046875 521.000976562 c 1
 152.998046875 412.000976562 l 2
 152.998046875 402.66796875 153.831054688 397.16796875 155.498046875 395.500976562 c 0
 157.165039062 393.833984375 162.33203125 393.000976562 170.999023438 393.000976562 c 2
 261.999023438 393.000976562 l 1
 268.666015625 389.000976562 271.666015625 381.66796875 270.999023438 371.000976562 c 0
 270.33203125 360.333984375 267.665039062 353.666992188 262.998046875 351 c 2
 169.998046875 351 l 2
 163.331054688 351 158.998046875 350.666992188 156.998046875 350 c 0
 154.998046875 349.333007812 153.665039062 347.666015625 152.998046875 344.999023438 c 0
 152.331054688 342.33203125 151.998046875 337.33203125 151.998046875 329.999023438 c 2
 151.998046875 168.999023438 l 2
 151.998046875 132.33203125 155.831054688 104.83203125 163.498046875 86.4990234375 c 0
 171.165039062 68.166015625 191.665039062 52.666015625 224.998046875 39.9990234375 c 0
 248.331054688 31.9990234375 274.331054688 26.83203125 302.998046875 24.4990234375 c 0
 331.665039062 22.166015625 354.33203125 22.3330078125 370.999023438 25 c 0
 408.999023438 31 435.499023438 41.8330078125 450.499023438 57.5 c 0
 465.499023438 73.1669921875 472.999023438 86.333984375 472.999023438 97.0009765625 c 0
 472.999023438 125.66796875 448.666015625 154.000976562 399.999023438 182.000976562 c 2
 375.999023438 194.000976562 l 1
 353.999023438 205.000976562 l 1
 351.999023438 205.000976562 l 1
 333.33203125 213.000976562 316.83203125 213.333984375 302.499023438 206.000976562 c 0
 288.166015625 198.66796875 274.666015625 181.66796875 261.999023438 155.000976562 c 0
 258.666015625 153.000976562 254.499023438 153.333984375 249.499023438 156.000976562 c 0
 244.499023438 158.66796875 241.999023438 161.66796875 241.999023438 165.000976562 c 0
 245.33203125 179.66796875 252.33203125 194.66796875 262.999023438 210.000976562 c 0
 273.666015625 225.333984375 284.333007812 234.666992188 295 238 c 0
 303 242.666992188 309 245.666992188 313 247 c 1
 305 259 300.333007812 277.666992188 299 303 c 0
 303 364.333007812 342 398 416 404 c 0
EndSplineSet
EndChar

StartChar: quotesingle
Encoding: 39 39 23
Width: 504
GlyphClass: 2
Flags: W
LayerCount: 2
Fore
SplineSet
361 855 m 0
 399.666992188 855 429.5 844.83203125 450.5 824.499023438 c 0
 471.5 804.166015625 485 769.333007812 491 720 c 1
 485 714.666992188 478.666992188 714.666992188 472 720 c 1
 464.666992188 749.333007812 452.833984375 770 436.500976562 782 c 0
 420.16796875 794 395.334960938 800 362.001953125 800 c 0
 329.334960938 800 305.66796875 794 291.000976562 782 c 0
 276.333984375 770 262.666992188 749.333007812 250 720 c 0
 244 714.666992188 237.666992188 714.666992188 231 720 c 1
 247.666992188 810 291 855 361 855 c 0
424 145.999023438 m 1
 424 -142.998046875 l 2
 424 -169.665039062 424.666992188 -187.998046875 426 -197.998046875 c 0
 427.333007812 -207.998046875 430.5 -214.998046875 435.5 -218.998046875 c 0
 440.5 -222.998046875 449.333007812 -225.998046875 462 -227.998046875 c 2
 501 -231.998046875 l 2
 505 -233.998046875 506.666992188 -238.165039062 506 -244.498046875 c 0
 505.333007812 -250.831054688 503 -254.998046875 499 -256.998046875 c 0
 451 -254.998046875 413.666992188 -253.998046875 387 -253.998046875 c 0
 357.666992188 -253.998046875 321 -254.998046875 277 -256.998046875 c 0
 273 -254.331054688 270.666992188 -250.1640625 270 -244.497070312 c 0
 269.333007812 -238.830078125 271 -234.663085938 275 -231.99609375 c 2
 312 -228.99609375 l 2
 330 -226.99609375 340.666992188 -221.49609375 344 -212.49609375 c 0
 347.333007812 -203.49609375 349 -180.329101562 349 -142.99609375 c 0
 349 -27.6630859375 348.666992188 30.3369140625 348 31.00390625 c 2
 344 31.00390625 l 1
 316.666992188 13.6708984375 294.666992188 1.6708984375 278 -4.99609375 c 0
 261.333007812 -11.6630859375 241.333007812 -14.99609375 218 -14.99609375 c 0
 164 -14.99609375 120 3.6708984375 86 41.00390625 c 0
 52 78.3369140625 35 123.669921875 35 177.002929688 c 0
 35 245.669921875 58 301.169921875 104 343.502929688 c 0
 150 385.8359375 207.666992188 407.002929688 277 407.002929688 c 0
 305 407.002929688 327.333007812 404.002929688 344 398.002929688 c 0
 348 398.002929688 350 402.669921875 350 412.002929688 c 2
 350 519.002929688 l 1
 314 533.002929688 l 2
 296.666992188 540.3359375 281.5 539.668945312 268.5 531.001953125 c 0
 255.5 522.334960938 241.666992188 506.66796875 227 484.000976562 c 0
 225 481.333984375 221.166992188 481.000976562 215.5 483.000976562 c 0
 209.833007812 485.000976562 207 487.333984375 207 490.000976562 c 0
 207 502.000976562 211.833007812 514.833984375 221.5 528.500976562 c 0
 231.166992188 542.16796875 241.333984375 552.000976562 252.000976562 558.000976562 c 0
 276.66796875 572.000976562 307.66796875 572.66796875 345.000976562 560.000976562 c 2
 350.000976562 558.000976562 l 1
 350.000976562 600.000976562 l 2
 350.000976562 621.333984375 346.000976562 634.166992188 338.000976562 638.5 c 0
 330.000976562 642.833007812 313.333984375 645.666015625 288.000976562 646.999023438 c 2
 270.000976562 648.999023438 l 2
 268.000976562 652.33203125 267.000976562 656.165039062 267.000976562 660.498046875 c 0
 267.000976562 664.831054688 268.333984375 667.6640625 271.000976562 668.997070312 c 0
 316.333984375 684.330078125 363.000976562 704.663085938 411.000976562 729.99609375 c 1
 425.000976562 727.329101562 432.000976562 724.329101562 432.000976562 720.99609375 c 2
 424.000976562 645.99609375 l 1
 424.000976562 528.99609375 l 1
 441.333984375 527.663085938 454.666992188 530.330078125 464 536.997070312 c 0
 473.333007812 543.6640625 484.333007812 555.997070312 497 573.997070312 c 0
 499 578.6640625 502.166992188 580.331054688 506.5 578.998046875 c 0
 510.833007812 577.665039062 513 574.33203125 513 568.999023438 c 0
 512.333007812 554.999023438 510 545.499023438 506 540.499023438 c 0
 502 535.499023438 493.666992188 527.33203125 481 515.999023438 c 0
 467.666992188 503.33203125 448.666992188 498.33203125 424 500.999023438 c 1
 424 145.999023438 l 1
352 99.001953125 m 2
 351.998046875 295.001953125 l 2
 351.998046875 308.334960938 347.665039062 321.334960938 338.998046875 334.001953125 c 0
 318.998046875 362.001953125 290.998046875 376.001953125 254.998046875 376.001953125 c 0
 211.665039062 376.001953125 177.83203125 359.834960938 153.499023438 327.501953125 c 0
 129.166015625 295.168945312 116.999023438 256.001953125 116.999023438 210.001953125 c 0
 116.999023438 162.001953125 130.33203125 120.668945312 156.999023438 86.001953125 c 0
 183.666015625 51.3349609375 219.999023438 34.001953125 265.999023438 34.001953125 c 0
 298.666015625 34.001953125 324.333007812 43.3349609375 343 62.001953125 c 0
 349 68.001953125 352 80.3349609375 352 99.001953125 c 2
EndSplineSet
EndChar

StartChar: parenleft
Encoding: 40 40 24
Width: 235
GlyphClass: 2
Flags: W
LayerCount: 2
Fore
SplineSet
76 192 m 0
 76 130 81.1669921875 80.501953125 91.5 43.501953125 c 0
 101.833007812 6.501953125 122 -27.6650390625 152 -58.998046875 c 0
 152 -63.6650390625 151.166992188 -68.83203125 149.5 -74.4990234375 c 0
 147.833007812 -80.166015625 145.666015625 -82.9990234375 142.999023438 -82.9990234375 c 0
 72.33203125 -36.9990234375 36.9990234375 54.66796875 36.9990234375 192.000976562 c 0
 36.9990234375 330.000976562 72.33203125 421.66796875 142.999023438 467.000976562 c 0
 145.666015625 467.000976562 147.833007812 463.500976562 149.5 456.500976562 c 0
 151.166992188 449.500976562 152 443.66796875 152 439.000976562 c 0
 131.333007812 418.333984375 115.333007812 396.000976562 104 372.000976562 c 0
 92.6669921875 348.000976562 85.1669921875 322.66796875 81.5 296.000976562 c 0
 77.8330078125 269.333984375 76 234.666992188 76 192 c 0
EndSplineSet
EndChar

StartChar: parenright
Encoding: 41 41 25
Width: 153
GlyphClass: 2
Flags: W
LayerCount: 2
Fore
SplineSet
77 192 m 0
 77 253.333007812 72.1669921875 301.999023438 62.5 337.999023438 c 0
 52.8330078125 373.999023438 32.3330078125 407.666015625 1 438.999023438 c 0
 1 443.666015625 1.8330078125 449.499023438 3.5 456.499023438 c 0
 5.1669921875 463.499023438 7.333984375 466.999023438 10.0009765625 466.999023438 c 0
 80.66796875 421.666015625 116.000976562 329.999023438 116.000976562 191.999023438 c 0
 116.000976562 54.666015625 80.66796875 -37.0009765625 10.0009765625 -83.0009765625 c 0
 7.333984375 -83.0009765625 5.1669921875 -80.16796875 3.5 -74.5009765625 c 0
 1.8330078125 -68.833984375 1 -63.6669921875 1 -59 c 0
 32.3330078125 -27.6669921875 52.8330078125 6.5 62.5 43.5 c 0
 72.1669921875 80.5 77 130 77 192 c 0
EndSplineSet
EndChar

StartChar: asterisk
Encoding: 42 42 26
Width: 796
GlyphClass: 2
Flags: W
LayerCount: 2
Fore
SplineSet
258 22 m 1
 535 21.9990234375 l 1
 584 24.9990234375 l 2
 602 27.666015625 612.833007812 33.3330078125 616.5 42 c 0
 620.166992188 50.6669921875 622 73.6669921875 622 111 c 2
 622 282 l 2
 622 319.333007812 620.166992188 342.5 616.5 351.5 c 0
 612.833007812 360.5 602 366 584 368 c 2
 558 371 l 2
 554.666992188 375 553.166992188 379.833007812 553.5 385.5 c 0
 553.833007812 391.166992188 556 394.666992188 560 396 c 0
 595.333007812 394 628.333007812 393 659 393 c 0
 691 393 725.333007812 394 762 396 c 0
 766 395.333007812 768.333007812 391.666015625 769 384.999023438 c 0
 769.666992188 378.33203125 768 373.665039062 764 370.998046875 c 2
 732 367.998046875 l 2
 714 365.998046875 703.166992188 360.831054688 699.5 352.498046875 c 0
 695.833007812 344.165039062 694 321.33203125 694 283.999023438 c 2
 694 111.999023438 l 2
 694 76.666015625 696 53.8330078125 700 43.5 c 0
 704 33.1669921875 714.666992188 27 732 25 c 2
 764 22 l 2
 768 20 769.666992188 15.8330078125 769 9.5 c 0
 768.333007812 3.1669921875 766 -1 762 -3 c 0
 723.333007812 -1 604.333007812 0 405 0 c 0
 193 0 67.3330078125 -1 28 -3 c 0
 24 -0.3330078125 21.6669921875 3.833984375 21 9.5009765625 c 0
 20.3330078125 15.16796875 22 19.3349609375 26 22.001953125 c 2
 58 25.001953125 l 2
 76 27.001953125 86.8330078125 32.501953125 90.5 41.501953125 c 0
 94.1669921875 50.501953125 96 73.6689453125 96 111.001953125 c 2
 96 282.001953125 l 2
 96 319.334960938 94.1669921875 342.501953125 90.5 351.501953125 c 0
 86.8330078125 360.501953125 76 366.001953125 58 368.001953125 c 2
 26 371.001953125 l 2
 22.6669921875 375.001953125 21.1669921875 379.834960938 21.5 385.501953125 c 0
 21.8330078125 391.168945312 24 394.668945312 28 396.001953125 c 0
 69.3330078125 394.001953125 104.333007812 393.001953125 133 393.001953125 c 0
 163.666992188 393.001953125 196 394.001953125 230 396.001953125 c 0
 234 395.334960938 236.333007812 391.66796875 237 385.000976562 c 0
 237.666992188 378.333984375 236 373.666992188 232 371 c 2
 206 368 l 2
 188 366 177.166992188 360.5 173.5 351.5 c 0
 169.833007812 342.5 168 319.333007812 168 282 c 2
 168 111 l 2
 168 84.3330078125 168.666992188 65.8330078125 170 55.5 c 0
 171.333007812 45.1669921875 174.5 38 179.5 34 c 0
 184.5 30 193.333007812 27 206 25 c 2
 258 22 l 1
540 21.9990234375 m 1
 253 22 l 1
 321 25 l 2
 339 27.6669921875 349.833007812 33.333984375 353.5 42.0009765625 c 0
 357.166992188 50.66796875 359 73.66796875 359 111.000976562 c 2
 359 282.000976562 l 2
 359 319.333984375 357.166992188 342.500976562 353.5 351.500976562 c 0
 349.833007812 360.500976562 339 366.000976562 321 368.000976562 c 2
 292 371.000976562 l 2
 288.666992188 375.000976562 287.166992188 379.833984375 287.5 385.500976562 c 0
 287.833007812 391.16796875 290 394.66796875 294 396.000976562 c 0
 332 394.000976562 365.333007812 393.000976562 394 393.000976562 c 0
 424 393.000976562 457 394.000976562 493 396.000976562 c 0
 497 395.333984375 499.333007812 391.666992188 500 385 c 0
 500.666992188 378.333007812 499 373.666015625 495 370.999023438 c 2
 469 367.999023438 l 2
 451 365.999023438 440.166992188 360.499023438 436.5 351.499023438 c 0
 432.833007812 342.499023438 431 319.33203125 431 281.999023438 c 2
 431 110.999023438 l 2
 431 74.9990234375 433 52.166015625 437 42.4990234375 c 0
 441 32.83203125 451.666992188 26.9990234375 469 24.9990234375 c 2
 540 21.9990234375 l 1
EndSplineSet
EndChar

StartChar: plus
Encoding: 43 43 27
Width: 357
GlyphClass: 2
Flags: W
LayerCount: 2
Fore
SplineSet
199 384 m 1
 199 34 l 1
 288 86 l 1
 297.333007812 86 303 82.3330078125 305 75 c 1
 193 -86 l 2
 187 -94.6669921875 180.166992188 -99 172.5 -99 c 0
 164.833007812 -99 158 -94.6669921875 152 -86 c 2
 40 77 l 1
 42 84.3330078125 48 88 58 88 c 1
 146 34 l 1
 146 384 l 1
 58 330 l 1
 48 330 42 333.333007812 40 340 c 1
 152 504 l 2
 158 513.333007812 164.833007812 518 172.5 518 c 0
 180.166992188 518 187 513.333007812 193 504 c 2
 305 340 l 1
 303 333.333007812 297.333007812 330 288 330 c 1
 199 384 l 1
EndSplineSet
EndChar

StartChar: comma
Encoding: 44 44 28
Width: 294
GlyphClass: 2
Flags: W
LayerCount: 2
Fore
SplineSet
103 -114 m 1
 103.001953125 286.998046875 l 2
 103.001953125 312.998046875 100.668945312 329.331054688 96.001953125 335.998046875 c 0
 91.3349609375 342.665039062 78.001953125 348.665039062 56.001953125 353.998046875 c 2
 47.001953125 355.998046875 l 2
 45.001953125 357.998046875 44.001953125 360.831054688 44.001953125 364.498046875 c 0
 44.001953125 368.165039062 45.3349609375 370.665039062 48.001953125 371.998046875 c 0
 102.001953125 380.665039062 142.334960938 400.33203125 169.001953125 430.999023438 c 1
 177.001953125 429.666015625 181.001953125 427.333007812 181.001953125 424 c 2
 177.001953125 356 l 1
 176.001953125 -77 l 1
 188.668945312 -70.3330078125 203.668945312 -67 221.001953125 -67 c 0
 235.001953125 -67 248.501953125 -69.6669921875 261.501953125 -75 c 0
 274.501953125 -80.3330078125 285.501953125 -87.3330078125 294.501953125 -96 c 0
 303.501953125 -104.666992188 310.668945312 -115.833984375 316.001953125 -129.500976562 c 0
 321.334960938 -143.16796875 324.001953125 -156.66796875 324.001953125 -170.000976562 c 0
 324.001953125 -192.66796875 317.168945312 -212.834960938 303.501953125 -230.501953125 c 0
 289.834960938 -248.168945312 272.334960938 -260.668945312 251.001953125 -268.001953125 c 0
 239.001953125 -270.668945312 226.668945312 -272.001953125 214.001953125 -272.001953125 c 0
 194.668945312 -272.001953125 177.501953125 -267.668945312 162.501953125 -259.001953125 c 0
 147.501953125 -250.334960938 135.001953125 -238.334960938 125.001953125 -223.001953125 c 0
 117.001953125 -209.001953125 111.334960938 -192.001953125 108.001953125 -172.001953125 c 1
 95.3349609375 -183.334960938 84.66796875 -195.66796875 76.0009765625 -209.000976562 c 0
 67.333984375 -222.333984375 60.6669921875 -235.000976562 56 -247.000976562 c 0
 51.3330078125 -259.000976562 48 -266.333984375 46 -269.000976562 c 0
 43.3330078125 -274.333984375 39.3330078125 -277.333984375 34 -278.000976562 c 0
 28.6669921875 -278.66796875 24 -277.66796875 20 -275.000976562 c 0
 16 -272.333984375 14 -267.666992188 14 -261 c 0
 16 -235.666992188 25.8330078125 -209 43.5 -181 c 0
 61.1669921875 -153 81 -130.666992188 103 -114 c 1
140.001953125 615.998046875 m 0
 157.334960938 615.998046875 170.8359375 610.663085938 180.502929688 599.99609375 c 0
 190.169921875 589.329101562 195.002929688 575.329101562 195.002929688 557.99609375 c 0
 195.002929688 539.99609375 189.3359375 526.163085938 178.002929688 516.49609375 c 0
 166.669921875 506.829101562 153.002929688 501.99609375 137.002929688 501.99609375 c 0
 120.3359375 501.99609375 106.668945312 507.329101562 96.001953125 517.99609375 c 0
 85.3349609375 528.663085938 80.001953125 541.330078125 80.001953125 555.997070312 c 0
 80.001953125 574.6640625 86.001953125 589.331054688 98.001953125 599.998046875 c 0
 110.001953125 610.665039062 124.001953125 615.998046875 140.001953125 615.998046875 c 0
224.002929688 -225.00390625 m 0
 237.3359375 -225.00390625 248.8359375 -219.50390625 258.502929688 -208.50390625 c 0
 268.169921875 -197.50390625 273.002929688 -184.00390625 273.002929688 -168.00390625 c 0
 273.002929688 -156.670898438 271.002929688 -147.670898438 267.002929688 -141.00390625 c 0
 256.3359375 -123.00390625 241.3359375 -114.00390625 222.002929688 -114.00390625 c 0
 189.3359375 -114.00390625 172.3359375 -133.336914062 171.002929688 -172.00390625 c 0
 171.002929688 -188.670898438 176.502929688 -201.670898438 187.502929688 -211.00390625 c 0
 198.502929688 -220.336914062 210.669921875 -225.00390625 224.002929688 -225.00390625 c 0
EndSplineSet
EndChar

StartChar: hyphen
Encoding: 45 45 29
Width: 210
GlyphClass: 2
Flags: W
LayerCount: 2
Fore
SplineSet
181 181 m 1
 10 181 l 1
 10 229 l 1
 181 229 l 1
 181 181 l 1
EndSplineSet
EndChar

StartChar: period
Encoding: 46 46 30
Width: 450
GlyphClass: 2
Flags: W
LayerCount: 2
Fore
SplineSet
290 -13 m 1
 271.001953125 -38.0029296875 l 2
 265.668945312 -47.3359375 268.668945312 -55.0029296875 280.001953125 -61.0029296875 c 0
 310.668945312 -82.3359375 326.001953125 -106.002929688 326.001953125 -132.002929688 c 0
 326.001953125 -157.3359375 315.501953125 -178.3359375 294.501953125 -195.002929688 c 0
 273.501953125 -211.669921875 249.334960938 -220.002929688 222.001953125 -220.002929688 c 0
 183.334960938 -220.002929688 164.001953125 -208.669921875 164.001953125 -186.002929688 c 0
 164.001953125 -179.3359375 166.334960938 -173.3359375 171.001953125 -168.002929688 c 0
 175.668945312 -162.669921875 181.668945312 -160.002929688 189.001953125 -160.002929688 c 0
 197.001953125 -160.002929688 206.834960938 -164.8359375 218.501953125 -174.502929688 c 0
 230.168945312 -184.169921875 238.001953125 -189.002929688 242.001953125 -189.002929688 c 0
 260.001953125 -189.002929688 269.001953125 -178.669921875 269.001953125 -158.002929688 c 0
 269.001953125 -144.669921875 262.668945312 -131.669921875 250.001953125 -119.002929688 c 0
 237.334960938 -106.3359375 222.66796875 -96.6689453125 206.000976562 -90.001953125 c 1
 206.000976562 -85.001953125 l 1
 253.000976562 -15.001953125 l 1
 199.000976562 -13.001953125 155.66796875 4.3310546875 123.000976562 36.998046875 c 0
 84.333984375 73.6650390625 65.0009765625 122.998046875 65.0009765625 184.998046875 c 1
 65.0009765625 184.998046875 l 1
 43.66796875 174.998046875 29.66796875 159.331054688 23.0009765625 137.998046875 c 0
 21.0009765625 134.665039062 18.0009765625 133.665039062 14.0009765625 134.998046875 c 0
 10.0009765625 136.331054688 7.333984375 138.998046875 6.0009765625 142.998046875 c 0
 2.66796875 171.665039062 15.3349609375 197.998046875 44.001953125 221.998046875 c 0
 47.3349609375 225.998046875 57.001953125 230.665039062 73.001953125 235.998046875 c 1
 85.001953125 283.998046875 111.168945312 324.498046875 151.501953125 357.498046875 c 0
 191.834960938 390.498046875 243.66796875 406.998046875 307.000976562 406.998046875 c 0
 341.000976562 406.998046875 370.66796875 401.331054688 396.000976562 389.998046875 c 0
 406.000976562 381.331054688 411.000976562 367.998046875 411.000976562 349.998046875 c 0
 411.000976562 340.665039062 408.833984375 332.165039062 404.500976562 324.498046875 c 0
 400.16796875 316.831054688 395.000976562 312.998046875 389.000976562 312.998046875 c 0
 383.66796875 312.998046875 379.000976562 315.331054688 375.000976562 319.998046875 c 0
 347.000976562 355.331054688 313.66796875 372.998046875 275.000976562 372.998046875 c 0
 240.333984375 372.998046875 209.166992188 358.331054688 181.5 328.998046875 c 0
 153.833007812 299.665039062 139.666015625 263.33203125 138.999023438 219.999023438 c 1
 207.999023438 194.999023438 l 2
 226.666015625 189.666015625 240.499023438 191.999023438 249.499023438 201.999023438 c 0
 258.499023438 211.999023438 267.999023438 229.999023438 277.999023438 255.999023438 c 0
 279.999023438 259.999023438 284.33203125 261.666015625 290.999023438 260.999023438 c 0
 297.666015625 260.33203125 301.333007812 257.33203125 302 251.999023438 c 0
 304 231.999023438 302.833007812 217.666015625 298.5 208.999023438 c 0
 294.166992188 200.33203125 287 190.33203125 277 178.999023438 c 0
 265 164.999023438 250.333007812 157.33203125 233 155.999023438 c 0
 215.666992188 154.666015625 200.333984375 156.333007812 187.000976562 161 c 2
 141.000976562 174 l 1
 148.333984375 138 165.666992188 107 193 81 c 0
 220.333007812 55 255.333007812 42 298 42 c 0
 344.666992188 42 381.666992188 62 409 102 c 0
 413 103.333007812 417 102.5 421 99.5 c 0
 425 96.5 427 92.6669921875 427 88 c 0
 401.666992188 32 356 -1.6669921875 290 -13 c 1
256.001953125 606.997070312 m 0
 294.668945312 606.997070312 324.501953125 596.829101562 345.501953125 576.49609375 c 0
 366.501953125 556.163085938 380.001953125 521.330078125 386.001953125 471.997070312 c 1
 380.001953125 466.6640625 373.668945312 466.6640625 367.001953125 471.997070312 c 1
 359.668945312 501.330078125 347.8359375 521.997070312 331.502929688 533.997070312 c 0
 315.169921875 545.997070312 290.336914062 551.997070312 257.00390625 551.997070312 c 0
 224.336914062 551.997070312 200.669921875 545.997070312 186.002929688 533.997070312 c 0
 171.3359375 521.997070312 157.668945312 501.330078125 145.001953125 471.997070312 c 0
 139.001953125 466.6640625 132.668945312 466.6640625 126.001953125 471.997070312 c 1
 142.668945312 561.997070312 186.001953125 606.997070312 256.001953125 606.997070312 c 0
EndSplineSet
EndChar

StartChar: slash
Encoding: 47 47 31
Width: 572
GlyphClass: 2
Flags: W
LayerCount: 2
Fore
SplineSet
256 -270 m 1
 256 -65 l 1
 306 -65 l 1
 306 -270 l 1
 256 -270 l 1
437 265 m 1
 437 110.991210938 l 2
 437 74.9912109375 439 52.158203125 443 42.4912109375 c 0
 447 32.82421875 457.666992188 26.9912109375 475 24.9912109375 c 2
 504 21.9912109375 l 2
 508 19.9912109375 509.666992188 15.82421875 509 9.4912109375 c 0
 508.333007812 3.158203125 506 -1.0087890625 502 -3.0087890625 c 0
 464 -1.0087890625 430 -0.0087890625 400 -0.0087890625 c 0
 370 -0.0087890625 337 -1.0087890625 301 -3.0087890625 c 0
 297 -0.341796875 294.666992188 3.8251953125 294 9.4921875 c 0
 293.333007812 15.1591796875 295 19.326171875 299 21.9931640625 c 2
 325 24.9931640625 l 2
 343 27.66015625 353.833007812 33.3271484375 357.5 41.994140625 c 0
 361.166992188 50.6611328125 363 73.6611328125 363 110.994140625 c 2
 363 255.994140625 l 2
 363 324.661132812 332.333007812 358.994140625 271 358.994140625 c 0
 235 358.994140625 207 346.994140625 187 322.994140625 c 0
 177 310.994140625 172 292.327148438 172 266.994140625 c 2
 172 110.994140625 l 2
 172 84.3271484375 172.666992188 65.8271484375 174 55.494140625 c 0
 175.333007812 45.1611328125 178.5 37.994140625 183.5 33.994140625 c 0
 188.5 29.994140625 197.333007812 26.994140625 210 24.994140625 c 2
 236 21.994140625 l 2
 240 19.994140625 241.666992188 15.8271484375 241 9.494140625 c 0
 240.333007812 3.1611328125 238 -1.005859375 234 -3.005859375 c 0
 199.333007812 -1.005859375 166.333007812 -0.005859375 135 -0.005859375 c 0
 104.333007812 -0.005859375 69.3330078125 -1.005859375 30 -3.005859375 c 0
 26 -0.3388671875 23.6669921875 3.828125 23 9.4951171875 c 0
 22.3330078125 15.162109375 24 19.3291015625 28 21.99609375 c 2
 60 24.99609375 l 2
 78 26.99609375 88.8330078125 32.49609375 92.5 41.49609375 c 0
 96.1669921875 50.49609375 98 73.6630859375 98 110.99609375 c 2
 98 286.99609375 l 2
 98 312.99609375 95.6669921875 329.329101562 91 335.99609375 c 0
 86.3330078125 342.663085938 73 348.663085938 51 353.99609375 c 2
 42 355.99609375 l 2
 40 357.99609375 39 360.829101562 39 364.49609375 c 0
 39 368.163085938 40.3330078125 370.663085938 43 371.99609375 c 0
 97 380.663085938 137.333007812 400.330078125 164 430.997070312 c 1
 169.333007812 429.6640625 172 427.331054688 172 423.998046875 c 2
 172 366.998046875 l 2
 172 359.665039062 175.666992188 355.998046875 183 355.998046875 c 1
 231 389.998046875 275.333007812 406.998046875 316 406.998046875 c 0
 338.666992188 406.998046875 357.333984375 402.998046875 372.000976562 394.998046875 c 1
 374.000976562 422.998046875 380.333984375 445.998046875 391.000976562 463.998046875 c 0
 411.66796875 499.998046875 440.000976562 519.665039062 476.000976562 522.998046875 c 0
 520.000976562 526.998046875 547.000976562 517.331054688 557.000976562 493.998046875 c 0
 563.000976562 478.665039062 562.000976562 466.33203125 554.000976562 456.999023438 c 0
 546.000976562 447.666015625 536.333984375 443.333007812 525.000976562 444 c 0
 513.66796875 444.666992188 509.000976562 449 511.000976562 457 c 0
 514.333984375 476.333007812 509.666992188 489.833007812 497 497.5 c 0
 484.333007812 505.166992188 470 500 454 482 c 0
 449.333007812 477.333007812 445.5 467.833007812 442.5 453.5 c 0
 439.5 439.166992188 437.833007812 423 437.5 405 c 0
 437.166992188 387 437 366 437 342 c 2
 437 265 l 1
EndSplineSet
EndChar

StartChar: zero
Encoding: 48 48 32
Width: 402
GlyphClass: 2
Flags: W
LayerCount: 2
Fore
SplineSet
155 600 m 2
 155 620.666992188 150.830078125 633.500976562 142.497070312 638.500976562 c 0
 134.1640625 643.500976562 118.331054688 646.66796875 94.998046875 648.000976562 c 2
 76.998046875 649.000976562 l 2
 74.998046875 652.333984375 73.998046875 656.166992188 73.998046875 660.5 c 0
 73.998046875 664.833007812 75.3310546875 667.666015625 77.998046875 668.999023438 c 0
 125.331054688 685.666015625 171.331054688 705.999023438 215.998046875 729.999023438 c 1
 229.998046875 727.33203125 236.998046875 724.33203125 236.998046875 720.999023438 c 2
 228.998046875 623.999023438 l 1
 228.998046875 404.999023438 l 1
 232.331054688 405.666015625 236.998046875 405.999023438 242.998046875 405.999023438 c 2
 249.998046875 405.999023438 l 2
 281.331054688 407.33203125 305.998046875 401.999023438 323.998046875 389.999023438 c 0
 340.665039062 378.666015625 351.33203125 363.999023438 355.999023438 345.999023438 c 0
 362.666015625 322.666015625 356.499023438 298.833007812 337.499023438 274.5 c 0
 318.499023438 250.166992188 292.666015625 233.666992188 259.999023438 225 c 0
 244.666015625 221 234.333007812 218.666992188 229 218 c 1
 229 111 l 2
 229 75 231 52.1669921875 235 42.5 c 0
 239 32.8330078125 249.666992188 27 267 25 c 2
 299 22 l 2
 303 20 304.666992188 15.8330078125 304 9.5 c 0
 303.333007812 3.1669921875 301 -1 297 -3 c 0
 256.333007812 -1 221.333007812 0 192 0 c 0
 160.666992188 0 126 -1 88 -3 c 0
 84 -0.3330078125 81.6669921875 3.833984375 81 9.5009765625 c 0
 80.3330078125 15.16796875 82 19.3349609375 86 22.001953125 c 2
 117 25.001953125 l 2
 135 27.001953125 145.833007812 32.501953125 149.5 41.501953125 c 0
 153.166992188 50.501953125 155 73.6689453125 155 111.001953125 c 2
 155 224.001953125 l 1
 151 225.334960938 147.333007812 226.66796875 144 228.000976562 c 0
 140.666992188 229.333984375 137 230.000976562 133 230.000976562 c 0
 105.666992188 240.66796875 82 253.500976562 62 268.500976562 c 0
 42 283.500976562 29.6669921875 297.333984375 25 310.000976562 c 0
 22.3330078125 318.66796875 25.5 324.000976562 34.5 326.000976562 c 0
 43.5 328.000976562 51.3330078125 326.000976562 58 320.000976562 c 0
 64 314.66796875 72.5 307.16796875 83.5 297.500976562 c 0
 94.5 287.833984375 109.333007812 278.666992188 128 270 c 1
 128 270 l 1
 140 266 149 262.666992188 155 260 c 1
 155 600 l 2
228.997070312 257.000976562 m 1
 242.997070312 259.66796875 252.99609375 262.333984375 258.99609375 265.000976562 c 0
 282.99609375 273.000976562 297.99609375 286.333984375 303.99609375 305.000976562 c 0
 308.663085938 313.66796875 310.330078125 323.000976562 308.997070312 333.000976562 c 0
 304.997070312 359.66796875 280.6640625 371.66796875 235.997070312 369.000976562 c 0
 234.6640625 369.000976562 233.497070312 368.833984375 232.497070312 368.500976562 c 0
 231.497070312 368.16796875 230.330078125 367.66796875 228.997070312 367.000976562 c 2
 228.997070312 257.000976562 l 1
194.99609375 -216 m 0
 156.99609375 -216 127.331054688 -206 105.998046875 -186 c 0
 84.6650390625 -166 70.998046875 -131.666992188 64.998046875 -83 c 1
 71.6650390625 -77 77.998046875 -77 83.998046875 -83 c 1
 91.3310546875 -110.333007812 103.1640625 -130.5 119.497070312 -143.5 c 0
 135.830078125 -156.5 160.663085938 -163 193.99609375 -163 c 0
 225.99609375 -163 249.829101562 -156.5 265.49609375 -143.5 c 0
 281.163085938 -130.5 294.663085938 -110.333007812 305.99609375 -83 c 0
 312.663085938 -77 318.99609375 -77 324.99609375 -83 c 1
 316.99609375 -126.333007812 301.663085938 -159.333007812 278.99609375 -182 c 0
 256.329101562 -204.666992188 228.329101562 -216 194.99609375 -216 c 0
EndSplineSet
EndChar

StartChar: one
Encoding: 49 49 33
Width: 369
GlyphClass: 2
Flags: W
LayerCount: 2
Fore
SplineSet
181 404 m 0
 202.333007812 404 214.998046875 404.666015625 218.998046875 405.999023438 c 0
 228.331054688 406.666015625 234.498046875 414.333007812 237.498046875 429 c 0
 240.498046875 443.666992188 241.998046875 473.333984375 241.998046875 518.000976562 c 0
 244.665039062 551.333984375 258.998046875 573.000976562 284.998046875 583.000976562 c 0
 294.331054688 587.66796875 305.998046875 588.834960938 319.998046875 586.501953125 c 0
 333.998046875 584.168945312 343.331054688 578.668945312 347.998046875 570.001953125 c 0
 354.665039062 558.001953125 355.33203125 547.668945312 349.999023438 539.001953125 c 0
 344.666015625 530.334960938 337.833007812 525.501953125 329.5 524.501953125 c 0
 321.166992188 523.501953125 317 526.668945312 317 534.001953125 c 0
 317 544.001953125 314.166992188 551.001953125 308.5 555.001953125 c 0
 302.833007812 559.001953125 297.166015625 558.334960938 291.499023438 553.001953125 c 0
 285.83203125 547.668945312 282.665039062 537.3359375 281.998046875 522.002929688 c 0
 280.665039062 476.669921875 279.998046875 447.669921875 279.998046875 435.002929688 c 0
 283.331054688 369.002929688 288.6640625 326.3359375 295.997070312 307.002929688 c 0
 293.330078125 303.669921875 289.163085938 301.669921875 283.49609375 301.002929688 c 0
 277.829101562 300.3359375 272.99609375 301.002929688 268.99609375 303.002929688 c 0
 260.329101562 328.3359375 249.99609375 346.002929688 237.99609375 356.002929688 c 1
 232.663085938 369.3359375 217.330078125 376.668945312 191.997070312 378.001953125 c 0
 171.997070312 378.001953125 156.1640625 372.501953125 144.497070312 361.501953125 c 0
 132.830078125 350.501953125 126.997070312 335.668945312 126.997070312 317.001953125 c 0
 126.997070312 299.001953125 133.997070312 284.168945312 147.997070312 272.501953125 c 0
 161.997070312 260.834960938 181.6640625 248.001953125 206.997070312 234.001953125 c 0
 216.997070312 228.668945312 225.6640625 224.001953125 232.997070312 220.001953125 c 0
 240.330078125 216.001953125 246.997070312 212.334960938 252.997070312 209.001953125 c 0
 278.997070312 205.001953125 297.830078125 207.168945312 309.497070312 215.501953125 c 0
 321.1640625 223.834960938 329.331054688 241.334960938 333.998046875 268.001953125 c 1
 347.331054688 269.334960938 354.331054688 265.334960938 354.998046875 256.001953125 c 0
 346.331054688 219.334960938 331.998046875 194.66796875 311.998046875 182.000976562 c 0
 303.998046875 176.000976562 296.998046875 172.000976562 290.998046875 170.000976562 c 1
 305.665039062 148.000976562 313.33203125 124.66796875 313.999023438 100.000976562 c 0
 315.999023438 64.0009765625 303.33203125 35.833984375 275.999023438 15.5009765625 c 0
 248.666015625 -4.83203125 214.999023438 -14.9990234375 174.999023438 -14.9990234375 c 0
 128.999023438 -14.9990234375 92.666015625 -4.666015625 65.9990234375 16.0009765625 c 1
 54.666015625 42.66796875 49.666015625 76.3349609375 50.9990234375 117.001953125 c 0
 52.9990234375 120.334960938 56.666015625 122.001953125 61.9990234375 122.001953125 c 0
 67.33203125 122.001953125 71.33203125 120.668945312 73.9990234375 118.001953125 c 0
 97.9990234375 49.3349609375 134.33203125 15.001953125 182.999023438 15.001953125 c 0
 202.999023438 15.001953125 218.999023438 20.6689453125 230.999023438 32.001953125 c 0
 242.999023438 43.3349609375 248.666015625 59.001953125 247.999023438 79.001953125 c 0
 247.33203125 99.6689453125 239.33203125 117.168945312 223.999023438 131.501953125 c 0
 208.666015625 145.834960938 189.999023438 158.66796875 167.999023438 170.000976562 c 0
 151.33203125 179.333984375 133.999023438 191.000976562 115.999023438 205.000976562 c 1
 97.33203125 213.000976562 80.9990234375 213.333984375 66.9990234375 206.000976562 c 0
 52.9990234375 198.66796875 39.666015625 181.66796875 26.9990234375 155.000976562 c 0
 23.666015625 153.000976562 19.4990234375 153.333984375 14.4990234375 156.000976562 c 0
 9.4990234375 158.66796875 6.9990234375 161.66796875 6.9990234375 165.000976562 c 0
 10.33203125 179.66796875 17.33203125 194.66796875 27.9990234375 210.000976562 c 0
 38.666015625 225.333984375 49.3330078125 234.666992188 60 238 c 0
 68 242.666992188 74 245.666992188 78 247 c 1
 70 259 65.3330078125 277.666992188 64 303 c 0
 68 364.333007812 107 398 181 404 c 0
EndSplineSet
EndChar

StartChar: two
Encoding: 50 50 34
Width: 607
GlyphClass: 2
Flags: W
LayerCount: 2
Fore
SplineSet
383 215 m 2
 379.998046875 231.005859375 l 1
 373.998046875 232.005859375 l 2
 339.998046875 238.005859375 315.998046875 221.672851562 301.998046875 183.005859375 c 0
 299.331054688 176.338867188 294.331054688 171.838867188 286.998046875 169.505859375 c 0
 279.665039062 167.172851562 275.33203125 167.672851562 273.999023438 171.005859375 c 0
 270.666015625 199.005859375 281.333007812 224.672851562 306 248.005859375 c 0
 318.666992188 264.672851562 340.666992188 273.005859375 372 273.005859375 c 2
 373 273.005859375 l 1
 373 275.005859375 372.833007812 277.505859375 372.5 280.505859375 c 0
 372.166992188 283.505859375 371.666992188 285.672851562 371 287.005859375 c 0
 360.333007812 350.338867188 353.666015625 416.338867188 350.999023438 485.005859375 c 0
 346.33203125 561.672851562 353.33203125 618.83984375 371.999023438 656.506835938 c 0
 390.666015625 694.173828125 418.666015625 713.006835938 455.999023438 713.006835938 c 0
 459.33203125 713.006835938 467.999023438 711.006835938 481.999023438 707.006835938 c 1
 483.33203125 743.673828125 484.665039062 770.006835938 485.998046875 786.006835938 c 0
 488.665039062 819.33984375 502.998046875 841.006835938 528.998046875 851.006835938 c 0
 538.331054688 855.673828125 549.998046875 856.840820312 563.998046875 854.5078125 c 0
 577.998046875 852.174804688 587.331054688 846.674804688 591.998046875 838.0078125 c 0
 598.665039062 826.0078125 599.33203125 815.674804688 593.999023438 807.0078125 c 0
 588.666015625 798.340820312 581.833007812 793.5078125 573.5 792.5078125 c 0
 565.166992188 791.5078125 561 794.674804688 561 802.0078125 c 0
 561 812.0078125 558.166992188 819.0078125 552.5 823.0078125 c 0
 546.833007812 827.0078125 541 826.340820312 535 821.0078125 c 0
 529 815.674804688 526 805.0078125 526 789.0078125 c 0
 528 737.674804688 530.333007812 700.0078125 533 676.0078125 c 0
 535.666992188 639.340820312 538.666992188 613.340820312 542 598.0078125 c 0
 543.333007812 593.340820312 544.5 589.173828125 545.5 585.506835938 c 0
 546.5 581.83984375 547 579.33984375 547 578.006835938 c 0
 544.333007812 574.673828125 540.166015625 572.673828125 534.499023438 572.006835938 c 0
 528.83203125 571.33984375 523.999023438 572.006835938 519.999023438 574.006835938 c 0
 519.999023438 575.33984375 519.83203125 576.506835938 519.499023438 577.506835938 c 0
 519.166015625 578.506835938 518.666015625 579.33984375 517.999023438 580.006835938 c 0
 515.999023438 587.33984375 513.83203125 595.172851562 511.499023438 603.505859375 c 0
 509.166015625 611.838867188 506.333007812 619.505859375 503 626.505859375 c 0
 499.666992188 633.505859375 494.666992188 640.338867188 488 647.005859375 c 0
 479.333007812 655.672851562 474 660.33984375 472 661.006835938 c 2
 460 665.006835938 l 2
 457.333007812 665.673828125 452.333007812 666.006835938 445 666.006835938 c 1
 445 666.006835938 l 1
 443 666.006835938 l 2
 427 665.33984375 416.333007812 654.006835938 411 632.006835938 c 0
 405.666992188 610.006835938 404 591.33984375 406 576.006835938 c 0
 408 542.673828125 412.333007812 507.173828125 419 469.506835938 c 0
 425.666992188 431.83984375 432.666992188 396.672851562 440 364.005859375 c 0
 447.333007812 331.338867188 457.666015625 286.671875 470.999023438 230.004882812 c 1
 478.999023438 227.004882812 l 2
 496.999023438 223.671875 511.33203125 225.671875 521.999023438 233.004882812 c 0
 532.666015625 240.337890625 542.999023438 258.004882812 552.999023438 286.004882812 c 0
 554.33203125 290.004882812 557.33203125 291.671875 561.999023438 291.004882812 c 0
 566.666015625 290.337890625 569.333007812 287.004882812 570 281.004882812 c 0
 569.333007812 247.004882812 561 222.671875 545 208.004882812 c 0
 529.666992188 193.337890625 507.666992188 188.004882812 479 192.004882812 c 1
 497 77.337890625 504.666992188 -21.9951171875 502 -105.995117188 c 1
 524.666992188 -123.995117188 546.166992188 -148.662109375 566.5 -179.995117188 c 0
 586.833007812 -211.328125 597.333007812 -238.328125 598 -260.995117188 c 0
 598 -267.662109375 596 -272.329101562 592 -274.99609375 c 0
 588 -277.663085938 583.5 -278.663085938 578.5 -277.99609375 c 0
 573.5 -277.329101562 569.333007812 -274.329101562 566 -268.99609375 c 0
 564.666992188 -266.329101562 561.5 -258.99609375 556.5 -246.99609375 c 0
 551.5 -234.99609375 544.666992188 -222.329101562 536 -208.99609375 c 0
 527.333007812 -195.663085938 516.666015625 -183.330078125 503.999023438 -171.997070312 c 0
 502.666015625 -170.6640625 501.666015625 -169.997070312 500.999023438 -169.997070312 c 1
 500.999023438 -169.997070312 l 1
 500.999023438 -188.6640625 496.33203125 -206.331054688 486.999023438 -222.998046875 c 0
 476.999023438 -238.331054688 464.499023438 -250.331054688 449.499023438 -258.998046875 c 0
 434.499023438 -267.665039062 417.33203125 -271.998046875 397.999023438 -271.998046875 c 0
 389.999023438 -271.998046875 379.999023438 -270.665039062 367.999023438 -267.998046875 c 0
 346.666015625 -260.665039062 329.166015625 -248.165039062 315.499023438 -230.498046875 c 0
 301.83203125 -212.831054688 294.999023438 -192.6640625 294.999023438 -169.997070312 c 0
 294.999023438 -141.330078125 304.999023438 -116.997070312 324.999023438 -96.9970703125 c 0
 344.999023438 -76.9970703125 369.33203125 -66.9970703125 397.999023438 -66.9970703125 c 0
 416.666015625 -66.9970703125 432.333007812 -70.330078125 445 -76.9970703125 c 1
 438.333007812 -34.9970703125 429.333007812 6.3359375 418 47.0029296875 c 1
 394 25.0029296875 371.166992188 9.5029296875 349.5 0.5029296875 c 0
 327.833007812 -8.4970703125 303 -13.6640625 275 -14.9970703125 c 0
 151.666992188 -16.9970703125 90 38.3359375 90 151.002929688 c 2
 90 321.002929688 l 1
 90 322.002929688 l 2
 90 336.002929688 89 344.3359375 87 347.002929688 c 0
 85 349.669921875 79 351.002929688 69 351.002929688 c 2
 41 351.002929688 l 2
 37.6669921875 353.002929688 35.833984375 356.169921875 35.5009765625 360.502929688 c 0
 35.16796875 364.8359375 36.0009765625 368.668945312 38.0009765625 372.001953125 c 0
 68.0009765625 381.334960938 89.333984375 391.66796875 102.000976562 403.000976562 c 0
 122.66796875 421.66796875 136.66796875 462.66796875 144.000976562 526.000976562 c 1
 154.000976562 530.000976562 161.000976562 528.333984375 165.000976562 521.000976562 c 1
 165.000976562 412.000976562 l 2
 165.000976562 402.66796875 165.833984375 397.16796875 167.500976562 395.500976562 c 0
 169.16796875 393.833984375 174.334960938 393.000976562 183.001953125 393.000976562 c 2
 274.001953125 393.000976562 l 1
 280.668945312 389.000976562 283.668945312 381.66796875 283.001953125 371.000976562 c 0
 282.334960938 360.333984375 279.66796875 353.666992188 275.000976562 351 c 2
 182.000976562 351 l 2
 173.333984375 351 168.166992188 349.833007812 166.5 347.5 c 0
 164.833007812 345.166992188 164 338.666992188 164 328 c 2
 164 169 l 2
 164 116.333007812 177.666992188 78.8330078125 205 56.5 c 0
 232.333007812 34.1669921875 265.5 27.6669921875 304.5 37 c 0
 343.5 46.3330078125 377.333007812 67 406 99 c 1
 398 133 390.333007812 171.666992188 383 215 c 2
442.998046875 666.005859375 m 1
 444.998046875 666.005859375 l 1
 442.998046875 666.005859375 l 1
388.998046875 -113.994140625 m 0
 370.998046875 -113.994140625 357.997070312 -123.327148438 349.997070312 -141.994140625 c 0
 346.6640625 -149.994140625 344.997070312 -158.661132812 344.997070312 -167.994140625 c 0
 344.997070312 -183.994140625 349.497070312 -197.494140625 358.497070312 -208.494140625 c 0
 367.497070312 -219.494140625 378.330078125 -224.994140625 390.997070312 -224.994140625 c 0
 395.6640625 -224.994140625 399.331054688 -224.661132812 401.998046875 -223.994140625 c 0
 432.665039062 -216.661132812 446.665039062 -198.994140625 443.998046875 -170.994140625 c 0
 441.331054688 -132.994140625 422.998046875 -113.994140625 388.998046875 -113.994140625 c 0
442.997070312 666.005859375 m 1
 444.997070312 666.005859375 l 1
 442.997070312 666.005859375 l 1
EndSplineSet
EndChar

StartChar: three
Encoding: 51 51 35
Width: 371
GlyphClass: 2
Flags: W
LayerCount: 2
Fore
SplineSet
185 632 m 0
 223.666992188 632 253.5 621.83203125 274.5 601.499023438 c 0
 295.5 581.166015625 309 546.333007812 315 497 c 1
 309 491.666992188 302.666992188 491.666992188 296 497 c 1
 288.666992188 526.333007812 276.833984375 547 260.500976562 559 c 0
 244.16796875 571 219.334960938 577 186.001953125 577 c 0
 153.334960938 577 129.66796875 571 115.000976562 559 c 0
 100.333984375 547 86.6669921875 526.333007812 74 497 c 0
 68 491.666992188 61.6669921875 491.666992188 55 497 c 1
 71.6669921875 587 115 632 185 632 c 0
122 -143.000976562 m 2
 122.000976562 192.997070312 l 1
 103.333984375 199.6640625 88.6669921875 199.331054688 78 191.998046875 c 0
 67.3330078125 184.665039062 54 169.665039062 38 146.998046875 c 0
 35.3330078125 142.998046875 31 141.998046875 25 143.998046875 c 0
 19 145.998046875 16 148.665039062 16 151.998046875 c 0
 24.6669921875 179.331054688 38.6669921875 200.331054688 58 214.998046875 c 0
 72 228.998046875 93.6669921875 233.665039062 123 228.998046875 c 1
 123 321.998046875 l 2
 123 335.998046875 122 344.331054688 120 346.998046875 c 0
 118 349.665039062 112 350.998046875 102 350.998046875 c 2
 74 350.998046875 l 2
 70.6669921875 352.998046875 68.833984375 356.165039062 68.5009765625 360.498046875 c 0
 68.16796875 364.831054688 69.0009765625 368.6640625 71.0009765625 371.997070312 c 0
 101.000976562 381.330078125 122.333984375 391.663085938 135.000976562 402.99609375 c 0
 155.66796875 421.663085938 169.66796875 462.663085938 177.000976562 525.99609375 c 1
 187.000976562 529.99609375 194.000976562 528.329101562 198.000976562 520.99609375 c 1
 198.000976562 411.99609375 l 2
 198.000976562 402.663085938 198.833984375 397.163085938 200.500976562 395.49609375 c 0
 202.16796875 393.829101562 207.334960938 392.99609375 216.001953125 392.99609375 c 2
 327.001953125 392.99609375 l 1
 333.668945312 388.99609375 336.668945312 381.663085938 336.001953125 370.99609375 c 0
 335.334960938 360.329101562 332.66796875 353.662109375 328.000976562 350.995117188 c 2
 215.000976562 350.995117188 l 2
 206.333984375 350.995117188 201.166992188 349.828125 199.5 347.495117188 c 0
 197.833007812 345.162109375 197 338.662109375 197 327.995117188 c 2
 197 205.995117188 l 1
 221 195.995117188 l 2
 243 187.995117188 258.5 186.328125 267.5 190.995117188 c 0
 276.5 195.662109375 289.333007812 211.329101562 306 237.99609375 c 0
 308 242.663085938 311.833007812 244.330078125 317.5 242.997070312 c 0
 323.166992188 241.6640625 326 238.331054688 326 232.998046875 c 0
 320.666992188 203.665039062 308.333984375 181.665039062 289.000976562 166.998046875 c 0
 280.333984375 160.331054688 270.666992188 156.6640625 260 155.997070312 c 0
 249.333007812 155.330078125 238.5 156.997070312 227.5 160.997070312 c 0
 216.5 164.997070312 206 168.997070312 196 172.997070312 c 1
 196 158.997070312 l 1
 196 -143.002929688 l 2
 196 -169.669921875 196.666992188 -188.002929688 198 -198.002929688 c 0
 199.333007812 -208.002929688 202.5 -215.002929688 207.5 -219.002929688 c 0
 212.5 -223.002929688 221.333007812 -226.002929688 234 -228.002929688 c 2
 275 -232.002929688 l 2
 279 -234.002929688 280.666992188 -238.169921875 280 -244.502929688 c 0
 279.333007812 -250.8359375 277 -255.002929688 273 -257.002929688 c 0
 223 -255.002929688 185 -254.002929688 159 -254.002929688 c 0
 129 -254.002929688 93 -255.002929688 51 -257.002929688 c 0
 47 -254.3359375 44.6669921875 -250.168945312 44 -244.501953125 c 0
 43.3330078125 -238.834960938 45 -234.66796875 49 -232.000976562 c 2
 84 -229.000976562 l 2
 102 -227.000976562 112.833007812 -221.500976562 116.5 -212.500976562 c 0
 120.166992188 -203.500976562 122 -180.333984375 122 -143.000976562 c 2
EndSplineSet
EndChar

StartChar: four
Encoding: 52 52 36
Width: 504
GlyphClass: 2
Flags: W
LayerCount: 2
Fore
SplineSet
142 -97 m 0
 166.666992188 -97 187.330078125 -105.000976562 203.997070312 -121.000976562 c 0
 220.6640625 -137.000976562 228.997070312 -158.000976562 228.997070312 -184.000976562 c 0
 228.997070312 -208.000976562 220.330078125 -228.333984375 202.997070312 -245.000976562 c 0
 185.6640625 -261.66796875 165.331054688 -270.000976562 141.998046875 -270.000976562 c 0
 118.665039062 -270.000976562 98.33203125 -261.333984375 80.9990234375 -244.000976562 c 0
 63.666015625 -226.66796875 54.9990234375 -206.66796875 54.9990234375 -184.000976562 c 0
 54.9990234375 -159.333984375 63.33203125 -138.666992188 79.9990234375 -122 c 0
 96.666015625 -105.333007812 117.333007812 -97 142 -97 c 0
141.99609375 -125.000976562 m 0
 125.329101562 -125.000976562 111.329101562 -130.66796875 99.99609375 -142.000976562 c 0
 88.6630859375 -153.333984375 82.99609375 -167.333984375 82.99609375 -184.000976562 c 0
 82.99609375 -199.333984375 88.99609375 -213.000976562 100.99609375 -225.000976562 c 0
 112.99609375 -237.000976562 126.663085938 -243.000976562 141.99609375 -243.000976562 c 0
 157.329101562 -243.000976562 170.99609375 -237.333984375 182.99609375 -226.000976562 c 0
 194.99609375 -214.66796875 200.99609375 -200.66796875 200.99609375 -184.000976562 c 0
 200.99609375 -166.000976562 195.329101562 -151.66796875 183.99609375 -141.000976562 c 0
 172.663085938 -130.333984375 158.663085938 -125.000976562 141.99609375 -125.000976562 c 0
360.99609375 854.999023438 m 0
 399.663085938 854.999023438 429.49609375 844.831054688 450.49609375 824.498046875 c 0
 471.49609375 804.165039062 484.99609375 769.33203125 490.99609375 719.999023438 c 1
 484.99609375 714.666015625 478.663085938 714.666015625 471.99609375 719.999023438 c 1
 464.663085938 749.33203125 452.830078125 769.999023438 436.497070312 781.999023438 c 0
 420.1640625 793.999023438 395.331054688 799.999023438 361.998046875 799.999023438 c 0
 329.331054688 799.999023438 305.6640625 793.999023438 290.997070312 781.999023438 c 0
 276.330078125 769.999023438 262.663085938 749.33203125 249.99609375 719.999023438 c 0
 243.99609375 714.666015625 237.663085938 714.666015625 230.99609375 719.999023438 c 1
 247.663085938 809.999023438 290.99609375 854.999023438 360.99609375 854.999023438 c 0
423.99609375 145.998046875 m 1
 423.99609375 -142.999023438 l 2
 423.99609375 -169.666015625 424.663085938 -187.999023438 425.99609375 -197.999023438 c 0
 427.329101562 -207.999023438 430.49609375 -214.999023438 435.49609375 -218.999023438 c 0
 440.49609375 -222.999023438 449.329101562 -225.999023438 461.99609375 -227.999023438 c 2
 500.99609375 -231.999023438 l 2
 504.99609375 -233.999023438 506.663085938 -238.166015625 505.99609375 -244.499023438 c 0
 505.329101562 -250.83203125 502.99609375 -254.999023438 498.99609375 -256.999023438 c 0
 450.99609375 -254.999023438 413.663085938 -253.999023438 386.99609375 -253.999023438 c 0
 357.663085938 -253.999023438 320.99609375 -254.999023438 276.99609375 -256.999023438 c 0
 272.99609375 -254.33203125 270.663085938 -250.165039062 269.99609375 -244.498046875 c 0
 269.329101562 -238.831054688 270.99609375 -234.6640625 274.99609375 -231.997070312 c 2
 311.99609375 -228.997070312 l 2
 329.99609375 -226.997070312 340.663085938 -221.497070312 343.99609375 -212.497070312 c 0
 347.329101562 -203.497070312 348.99609375 -180.330078125 348.99609375 -142.997070312 c 0
 348.99609375 -27.6640625 348.663085938 30.3359375 347.99609375 31.0029296875 c 2
 343.99609375 31.0029296875 l 1
 316.663085938 13.669921875 294.663085938 1.669921875 277.99609375 -4.9970703125 c 0
 261.329101562 -11.6640625 241.329101562 -14.9970703125 217.99609375 -14.9970703125 c 0
 163.99609375 -14.9970703125 119.99609375 3.669921875 85.99609375 41.0029296875 c 0
 51.99609375 78.3359375 34.99609375 123.668945312 34.99609375 177.001953125 c 0
 34.99609375 245.668945312 57.99609375 301.168945312 103.99609375 343.501953125 c 0
 149.99609375 385.834960938 207.663085938 407.001953125 276.99609375 407.001953125 c 0
 304.99609375 407.001953125 327.329101562 404.001953125 343.99609375 398.001953125 c 0
 347.99609375 398.001953125 349.99609375 402.668945312 349.99609375 412.001953125 c 2
 349.99609375 519.001953125 l 1
 313.99609375 533.001953125 l 2
 296.663085938 540.334960938 281.49609375 539.66796875 268.49609375 531.000976562 c 0
 255.49609375 522.333984375 241.663085938 506.666992188 226.99609375 484 c 0
 224.99609375 481.333007812 221.163085938 481 215.49609375 483 c 0
 209.829101562 485 206.99609375 487.333007812 206.99609375 490 c 0
 206.99609375 502 211.829101562 514.833007812 221.49609375 528.5 c 0
 231.163085938 542.166992188 241.330078125 552 251.997070312 558 c 0
 276.6640625 572 307.6640625 572.666992188 344.997070312 560 c 2
 349.997070312 558 l 1
 349.997070312 600 l 2
 349.997070312 621.333007812 345.997070312 634.166015625 337.997070312 638.499023438 c 0
 329.997070312 642.83203125 313.330078125 645.665039062 287.997070312 646.998046875 c 2
 269.997070312 648.998046875 l 2
 267.997070312 652.331054688 266.997070312 656.1640625 266.997070312 660.497070312 c 0
 266.997070312 664.830078125 268.330078125 667.663085938 270.997070312 668.99609375 c 0
 316.330078125 684.329101562 362.997070312 704.662109375 410.997070312 729.995117188 c 1
 424.997070312 727.328125 431.997070312 724.328125 431.997070312 720.995117188 c 2
 423.997070312 645.995117188 l 1
 423.997070312 528.995117188 l 1
 441.330078125 527.662109375 454.663085938 530.329101562 463.99609375 536.99609375 c 0
 473.329101562 543.663085938 484.329101562 555.99609375 496.99609375 573.99609375 c 0
 498.99609375 578.663085938 502.163085938 580.330078125 506.49609375 578.997070312 c 0
 510.829101562 577.6640625 512.99609375 574.331054688 512.99609375 568.998046875 c 0
 512.329101562 554.998046875 509.99609375 545.498046875 505.99609375 540.498046875 c 0
 501.99609375 535.498046875 493.663085938 527.331054688 480.99609375 515.998046875 c 0
 467.663085938 503.331054688 448.663085938 498.331054688 423.99609375 500.998046875 c 1
 423.99609375 145.998046875 l 1
351.99609375 99.0009765625 m 2
 351.994140625 295.000976562 l 2
 351.994140625 308.333984375 347.661132812 321.333984375 338.994140625 334.000976562 c 0
 318.994140625 362.000976562 290.994140625 376.000976562 254.994140625 376.000976562 c 0
 211.661132812 376.000976562 177.828125 359.833984375 153.495117188 327.500976562 c 0
 129.162109375 295.16796875 116.995117188 256.000976562 116.995117188 210.000976562 c 0
 116.995117188 162.000976562 130.328125 120.66796875 156.995117188 86.0009765625 c 0
 183.662109375 51.333984375 219.995117188 34.0009765625 265.995117188 34.0009765625 c 0
 298.662109375 34.0009765625 324.329101562 43.333984375 342.99609375 62.0009765625 c 0
 348.99609375 68.0009765625 351.99609375 80.333984375 351.99609375 99.0009765625 c 2
EndSplineSet
EndChar

StartChar: five
Encoding: 53 53 37
Width: 516
GlyphClass: 2
Flags: W
LayerCount: 2
Fore
SplineSet
248 607 m 0
 286.666992188 607 316.5 596.83203125 337.5 576.499023438 c 0
 358.5 556.166015625 372 521.333007812 378 472 c 1
 372 466.666992188 365.666992188 466.666992188 359 472 c 1
 351.666992188 501.333007812 339.833984375 522 323.500976562 534 c 0
 307.16796875 546 282.334960938 552 249.001953125 552 c 0
 216.334960938 552 192.66796875 546 178.000976562 534 c 0
 163.333984375 522 149.666992188 501.333007812 137 472 c 0
 131 466.666992188 124.666992188 466.666992188 118 472 c 1
 134.666992188 562 178 607 248 607 c 0
426 159.999023438 m 1
 426.99609375 110.995117188 l 2
 426.99609375 81.662109375 427.663085938 61.9951171875 428.99609375 51.9951171875 c 0
 430.329101562 41.9951171875 433.829101562 35.162109375 439.49609375 31.4951171875 c 0
 445.163085938 27.828125 453.663085938 25.6611328125 464.99609375 24.994140625 c 2
 494.99609375 21.994140625 l 2
 498.99609375 19.994140625 500.663085938 15.8271484375 499.99609375 9.494140625 c 0
 499.329101562 3.1611328125 496.99609375 -1.005859375 492.99609375 -3.005859375 c 0
 454.99609375 -1.005859375 420.99609375 -0.005859375 390.99609375 -0.005859375 c 0
 358.99609375 -0.005859375 325.329101562 -1.005859375 289.99609375 -3.005859375 c 0
 285.99609375 -0.3388671875 283.663085938 3.828125 282.99609375 9.4951171875 c 0
 282.329101562 15.162109375 283.99609375 19.3291015625 287.99609375 21.99609375 c 2
 314.99609375 24.99609375 l 2
 332.99609375 27.6630859375 343.829101562 34.1630859375 347.49609375 44.49609375 c 0
 351.163085938 54.8291015625 352.99609375 79.3291015625 352.99609375 117.99609375 c 2
 352.99609375 162.99609375 l 1
 270.99609375 171.99609375 l 1
 158.99609375 187.99609375 l 1
 158.99609375 -109.00390625 l 2
 161.663085938 -161.00390625 150.99609375 -201.00390625 126.99609375 -229.00390625 c 0
 102.99609375 -257.00390625 73.3291015625 -271.00390625 37.99609375 -271.00390625 c 0
 2.6630859375 -271.00390625 -27.00390625 -259.00390625 -51.00390625 -235.00390625 c 0
 -65.6708984375 -220.336914062 -68.6708984375 -200.669921875 -60.00390625 -176.002929688 c 0
 -54.6708984375 -163.3359375 -44.50390625 -156.668945312 -29.50390625 -156.001953125 c 0
 -14.50390625 -155.334960938 -5.6708984375 -160.334960938 -3.00390625 -171.001953125 c 0
 -1.6708984375 -185.668945312 -0.6708984375 -198.668945312 -0.00390625 -210.001953125 c 0
 0.6630859375 -221.334960938 4.99609375 -230.001953125 12.99609375 -236.001953125 c 0
 20.99609375 -242.001953125 36.3291015625 -241.334960938 58.99609375 -234.001953125 c 0
 69.6630859375 -231.334960938 76.830078125 -223.66796875 80.4970703125 -211.000976562 c 0
 84.1640625 -198.333984375 85.9970703125 -178.166992188 85.9970703125 -150.5 c 0
 85.9970703125 -122.833007812 85.6640625 -94.666015625 84.9970703125 -65.9990234375 c 2
 84.9970703125 193.000976562 l 1
 74.9970703125 195.66796875 66.9970703125 195.000976562 60.9970703125 191.000976562 c 0
 54.9970703125 187.000976562 48.330078125 180.000976562 40.9970703125 170.000976562 c 0
 33.6640625 160.000976562 27.6640625 152.333984375 22.9970703125 147.000976562 c 0
 20.9970703125 143.66796875 17.330078125 142.66796875 11.9970703125 144.000976562 c 0
 6.6640625 145.333984375 3.3310546875 147.666992188 1.998046875 151 c 0
 3.3310546875 170.333007812 13.998046875 190 33.998046875 210 c 0
 49.3310546875 225.333007812 66.3310546875 232.666015625 84.998046875 231.999023438 c 1
 84.998046875 286.999023438 l 2
 84.998046875 312.999023438 82.6650390625 329.33203125 77.998046875 335.999023438 c 0
 73.3310546875 342.666015625 59.998046875 348.666015625 37.998046875 353.999023438 c 2
 28.998046875 355.999023438 l 2
 26.998046875 357.999023438 25.998046875 360.83203125 25.998046875 364.499023438 c 0
 25.998046875 368.166015625 27.3310546875 370.666015625 29.998046875 371.999023438 c 0
 83.998046875 380.666015625 124.331054688 400.333007812 150.998046875 431 c 1
 156.331054688 429.666992188 158.998046875 427.333984375 158.998046875 424.000976562 c 2
 158.998046875 367.000976562 l 2
 158.998046875 359.66796875 162.665039062 356.000976562 169.998046875 356.000976562 c 0
 196.665039062 372.66796875 220.665039062 385.334960938 241.998046875 394.001953125 c 0
 263.331054688 402.668945312 285.998046875 407.001953125 309.998046875 407.001953125 c 0
 349.331054688 407.001953125 378.6640625 395.668945312 397.997070312 373.001953125 c 0
 417.330078125 350.334960938 426.997070312 320.66796875 426.997070312 284.000976562 c 2
 426.997070312 198.000976562 l 1
 439.6640625 198.66796875 448.831054688 201.334960938 454.498046875 206.001953125 c 0
 460.165039062 210.668945312 464.83203125 216.501953125 468.499023438 223.501953125 c 0
 472.166015625 230.501953125 477.333007812 240.668945312 484 254.001953125 c 0
 486 257.334960938 490 258.66796875 496 258.000976562 c 0
 502 257.333984375 505.333007812 254.666992188 506 250 c 0
 500.666992188 209.333007812 488.666992188 184 470 174 c 0
 454 165.333007812 439.333007812 160.666015625 426 159.999023438 c 1
352.99609375 200.995117188 m 1
 352.995117188 259.995117188 l 2
 352.995117188 325.995117188 321.662109375 358.995117188 258.995117188 358.995117188 c 0
 219.662109375 358.995117188 191.329101562 347.328125 173.99609375 323.995117188 c 0
 163.99609375 311.995117188 158.99609375 292.328125 158.99609375 264.995117188 c 2
 158.99609375 227.995117188 l 1
 253.99609375 210.995117188 l 1
 352.99609375 200.995117188 l 1
EndSplineSet
EndChar

StartChar: six
Encoding: 54 54 38
Width: 615
GlyphClass: 2
Flags: W
LayerCount: 2
Fore
SplineSet
419 -216 m 0
 381 -216 351.334960938 -206 330.001953125 -186 c 0
 308.668945312 -166 295.001953125 -131.666992188 289.001953125 -83 c 1
 295.668945312 -77 302.001953125 -77 308.001953125 -83 c 1
 315.334960938 -110.333007812 327.16796875 -130.5 343.500976562 -143.5 c 0
 359.833984375 -156.5 384.666992188 -163 418 -163 c 0
 450 -163 473.833007812 -156.5 489.5 -143.5 c 0
 505.166992188 -130.5 518.666992188 -110.333007812 530 -83 c 0
 536.666992188 -77 543 -77 549 -83 c 1
 541 -126.333007812 525.666992188 -159.333007812 503 -182 c 0
 480.333007812 -204.666992188 452.333007812 -216 419 -216 c 0
458.001953125 173 m 1
 480.999023438 158.002929688 l 2
 514.999023438 139.3359375 538.33203125 157.3359375 550.999023438 212.002929688 c 0
 551.666015625 214.669921875 553.833007812 216.502929688 557.5 217.502929688 c 0
 561.166992188 218.502929688 564.666992188 218.3359375 568 217.002929688 c 0
 571.333007812 215.669921875 573.666015625 212.669921875 574.999023438 208.002929688 c 0
 577.666015625 173.3359375 569.333007812 146.3359375 550 127.002929688 c 0
 538 115.002929688 523.333007812 109.502929688 506 110.502929688 c 0
 488.666992188 111.502929688 473.333984375 116.3359375 460.000976562 125.002929688 c 2
 458.000976562 126.002929688 l 1
 458.000976562 89.0029296875 l 2
 458.000976562 58.3359375 460.16796875 40.1689453125 464.500976562 34.501953125 c 0
 468.833984375 28.8349609375 481.666992188 25.001953125 503 23.001953125 c 2
 536 20.001953125 l 2
 538.666992188 18.001953125 540 14.001953125 540 8.001953125 c 0
 540 2.001953125 538 -1.3310546875 534 -1.998046875 c 0
 464.666992188 -0.6650390625 427 0.001953125 421 0.001953125 c 0
 408.333007812 0.001953125 374 -0.6650390625 318 -1.998046875 c 0
 314.666992188 -1.3310546875 312.666992188 2.001953125 312 8.001953125 c 0
 311.333007812 14.001953125 312.666015625 18.001953125 315.999023438 20.001953125 c 2
 337.999023438 23.001953125 l 2
 353.999023438 25.001953125 364.666015625 27.1689453125 369.999023438 29.501953125 c 0
 375.33203125 31.8349609375 378.999023438 37.3349609375 380.999023438 46.001953125 c 0
 382.999023438 54.6689453125 383.999023438 69.001953125 383.999023438 89.001953125 c 2
 383.999023438 153.001953125 l 1
 380.999023438 154.001953125 l 1
 352.999023438 169.334960938 326.999023438 149.334960938 302.999023438 94.001953125 c 0
 300.999023438 89.3349609375 296.83203125 88.001953125 290.499023438 90.001953125 c 0
 284.166015625 92.001953125 280.333007812 95.001953125 279 99.001953125 c 0
 276.333007812 123.001953125 288.333007812 149.668945312 315 179.001953125 c 0
 333.666992188 199.001953125 356.666992188 204.668945312 384 196.001953125 c 1
 384 254.001953125 l 1
 378.666992188 254.668945312 368.333984375 257.001953125 353.000976562 261.001953125 c 0
 328.333984375 267.668945312 307.000976562 279.3359375 289.000976562 296.002929688 c 0
 271.000976562 312.669921875 260.000976562 331.002929688 256.000976562 351.002929688 c 1
 179.000976562 351.002929688 l 2
 170.333984375 351.002929688 165.166992188 349.8359375 163.5 347.502929688 c 0
 161.833007812 345.169921875 161 338.669921875 161 328.002929688 c 2
 161 141.002929688 l 2
 161 52.3359375 185.333007812 15.0029296875 234 29.0029296875 c 0
 236 29.669921875 241.333007812 33.169921875 250 39.5029296875 c 0
 258.666992188 45.8359375 263.333984375 49.0029296875 264.000976562 49.0029296875 c 0
 267.333984375 49.0029296875 270.166992188 46.8359375 272.5 42.5029296875 c 0
 274.833007812 38.169921875 275.666015625 34.3369140625 274.999023438 31.00390625 c 0
 264.33203125 0.3369140625 236.33203125 -14.99609375 190.999023438 -14.99609375 c 0
 121.666015625 -14.99609375 86.9990234375 25.3369140625 86.9990234375 106.00390625 c 2
 86.9990234375 322.00390625 l 2
 86.9990234375 336.00390625 85.9990234375 344.336914062 83.9990234375 347.00390625 c 0
 81.9990234375 349.670898438 75.9990234375 351.00390625 65.9990234375 351.00390625 c 2
 37.9990234375 351.00390625 l 2
 34.666015625 353.00390625 32.8330078125 356.170898438 32.5 360.50390625 c 0
 32.1669921875 364.836914062 33 368.669921875 35 372.002929688 c 0
 65 381.3359375 86.3330078125 391.668945312 99 403.001953125 c 0
 119.666992188 421.668945312 133.666992188 462.668945312 141 526.001953125 c 1
 151 530.001953125 158 528.334960938 162 521.001953125 c 1
 162 412.001953125 l 2
 162 402.668945312 162.833007812 397.168945312 164.5 395.501953125 c 0
 166.166992188 393.834960938 171.333984375 393.001953125 180.000976562 393.001953125 c 2
 261.000976562 393.001953125 l 1
 266.333984375 405.668945312 275.666992188 416.668945312 289 426.001953125 c 0
 307 438.001953125 331.666992188 443.334960938 363 442.001953125 c 2
 370 442.001953125 l 2
 376.666992188 442.001953125 381.333984375 441.668945312 384.000976562 441.001953125 c 1
 384.000976562 600.001953125 l 2
 384.000976562 620.668945312 379.833984375 633.501953125 371.500976562 638.501953125 c 0
 363.16796875 643.501953125 347.334960938 646.668945312 324.001953125 648.001953125 c 2
 306.001953125 649.001953125 l 2
 304.001953125 652.334960938 303.001953125 656.16796875 303.001953125 660.500976562 c 0
 303.001953125 664.833984375 304.334960938 667.666992188 307.001953125 669 c 0
 354.334960938 685.666992188 400.334960938 706 445.001953125 730 c 1
 459.001953125 727.333007812 466.001953125 724.333007812 466.001953125 721 c 2
 458.001953125 624 l 1
 458.001953125 296 l 1
 470.001953125 300 479.001953125 303.333007812 485.001953125 306 c 1
 485.001953125 306 l 1
 505.001953125 315.333007812 520.334960938 324.833007812 531.001953125 334.5 c 0
 541.668945312 344.166992188 549.668945312 351.333984375 555.001953125 356.000976562 c 0
 561.668945312 362.000976562 569.501953125 364.000976562 578.501953125 362.000976562 c 0
 587.501953125 360.000976562 590.668945312 354.66796875 588.001953125 346.000976562 c 0
 583.334960938 333.333984375 571.001953125 319.666992188 551.001953125 305 c 0
 531.001953125 290.333007812 507.334960938 277 480.001953125 265 c 0
 477.334960938 265 474.001953125 264.333007812 470.001953125 263 c 2
 458.001953125 259 l 1
 458.001953125 173 l 1
383.999023438 403.002929688 m 2
 382.666015625 404.3359375 380.331054688 405.00390625 376.998046875 405.00390625 c 0
 332.331054688 407.670898438 307.998046875 395.670898438 303.998046875 369.00390625 c 0
 302.665039062 359.00390625 304.33203125 349.670898438 308.999023438 341.00390625 c 0
 314.999023438 322.336914062 329.999023438 309.00390625 353.999023438 301.00390625 c 0
 359.999023438 298.336914062 369.999023438 295.669921875 383.999023438 293.002929688 c 1
 383.999023438 403.002929688 l 2
EndSplineSet
EndChar

StartChar: seven
Encoding: 55 55 39
Width: 402
GlyphClass: 2
Flags: W
LayerCount: 2
Fore
SplineSet
155 600 m 2
 155 620.666992188 150.830078125 633.500976562 142.497070312 638.500976562 c 0
 134.1640625 643.500976562 118.331054688 646.66796875 94.998046875 648.000976562 c 2
 76.998046875 649.000976562 l 2
 74.998046875 652.333984375 73.998046875 656.166992188 73.998046875 660.5 c 0
 73.998046875 664.833007812 75.3310546875 667.666015625 77.998046875 668.999023438 c 0
 125.331054688 685.666015625 171.331054688 705.999023438 215.998046875 729.999023438 c 1
 229.998046875 727.33203125 236.998046875 724.33203125 236.998046875 720.999023438 c 2
 228.998046875 623.999023438 l 1
 228.998046875 404.999023438 l 1
 232.331054688 405.666015625 236.998046875 405.999023438 242.998046875 405.999023438 c 2
 249.998046875 405.999023438 l 2
 281.331054688 407.33203125 305.998046875 401.999023438 323.998046875 389.999023438 c 0
 340.665039062 378.666015625 351.33203125 363.999023438 355.999023438 345.999023438 c 0
 362.666015625 322.666015625 356.499023438 298.833007812 337.499023438 274.5 c 0
 318.499023438 250.166992188 292.666015625 233.666992188 259.999023438 225 c 0
 244.666015625 221 234.333007812 218.666992188 229 218 c 1
 229 111 l 2
 229 75 231 52.1669921875 235 42.5 c 0
 239 32.8330078125 249.666992188 27 267 25 c 2
 299 22 l 2
 303 20 304.666992188 15.8330078125 304 9.5 c 0
 303.333007812 3.1669921875 301 -1 297 -3 c 0
 256.333007812 -1 221.333007812 0 192 0 c 0
 160.666992188 0 126 -1 88 -3 c 0
 84 -0.3330078125 81.6669921875 3.833984375 81 9.5009765625 c 0
 80.3330078125 15.16796875 82 19.3349609375 86 22.001953125 c 2
 117 25.001953125 l 2
 135 27.001953125 145.833007812 32.501953125 149.5 41.501953125 c 0
 153.166992188 50.501953125 155 73.6689453125 155 111.001953125 c 2
 155 224.001953125 l 1
 151 225.334960938 147.333007812 226.66796875 144 228.000976562 c 0
 140.666992188 229.333984375 137 230.000976562 133 230.000976562 c 0
 105.666992188 240.66796875 82 253.500976562 62 268.500976562 c 0
 42 283.500976562 29.6669921875 297.333984375 25 310.000976562 c 0
 22.3330078125 318.66796875 25.5 324.000976562 34.5 326.000976562 c 0
 43.5 328.000976562 51.3330078125 326.000976562 58 320.000976562 c 0
 64 314.66796875 72.5 307.16796875 83.5 297.500976562 c 0
 94.5 287.833984375 109.333007812 278.666992188 128 270 c 1
 128 270 l 1
 140 266 149 262.666992188 155 260 c 1
 155 600 l 2
228.997070312 257.000976562 m 1
 242.997070312 259.66796875 252.99609375 262.333984375 258.99609375 265.000976562 c 0
 282.99609375 273.000976562 297.99609375 286.333984375 303.99609375 305.000976562 c 0
 308.663085938 313.66796875 310.330078125 323.000976562 308.997070312 333.000976562 c 0
 304.997070312 359.66796875 280.6640625 371.66796875 235.997070312 369.000976562 c 0
 234.6640625 369.000976562 233.497070312 368.833984375 232.497070312 368.500976562 c 0
 231.497070312 368.16796875 230.330078125 367.66796875 228.997070312 367.000976562 c 2
 228.997070312 257.000976562 l 1
191.99609375 -97 m 0
 216.663085938 -97 237.326171875 -105.000976562 253.993164062 -121.000976562 c 0
 270.66015625 -137.000976562 278.993164062 -158.000976562 278.993164062 -184.000976562 c 0
 278.993164062 -208.000976562 270.326171875 -228.333984375 252.993164062 -245.000976562 c 0
 235.66015625 -261.66796875 215.327148438 -270.000976562 191.994140625 -270.000976562 c 0
 168.661132812 -270.000976562 148.328125 -261.333984375 130.995117188 -244.000976562 c 0
 113.662109375 -226.66796875 104.995117188 -206.66796875 104.995117188 -184.000976562 c 0
 104.995117188 -159.333984375 113.328125 -138.666992188 129.995117188 -122 c 0
 146.662109375 -105.333007812 167.329101562 -97 191.99609375 -97 c 0
191.9921875 -125.000976562 m 0
 175.325195312 -125.000976562 161.325195312 -130.66796875 149.9921875 -142.000976562 c 0
 138.659179688 -153.333984375 132.9921875 -167.333984375 132.9921875 -184.000976562 c 0
 132.9921875 -199.333984375 138.9921875 -213.000976562 150.9921875 -225.000976562 c 0
 162.9921875 -237.000976562 176.659179688 -243.000976562 191.9921875 -243.000976562 c 0
 207.325195312 -243.000976562 220.9921875 -237.333984375 232.9921875 -226.000976562 c 0
 244.9921875 -214.66796875 250.9921875 -200.66796875 250.9921875 -184.000976562 c 0
 250.9921875 -166.000976562 245.325195312 -151.66796875 233.9921875 -141.000976562 c 0
 222.659179688 -130.333984375 208.659179688 -125.000976562 191.9921875 -125.000976562 c 0
EndSplineSet
EndChar

StartChar: eight
Encoding: 56 56 40
Width: 607
GlyphClass: 2
Flags: W
LayerCount: 2
Fore
SplineSet
418 47 m 0
 394 25 371.1640625 9.4990234375 349.497070312 0.4990234375 c 0
 327.830078125 -8.5009765625 302.997070312 -13.66796875 274.997070312 -15.0009765625 c 0
 151.6640625 -17.0009765625 89.9970703125 38.33203125 89.9970703125 150.999023438 c 2
 89.9970703125 320.999023438 l 1
 89.9970703125 321.999023438 l 2
 89.9970703125 335.999023438 88.9970703125 344.33203125 86.9970703125 346.999023438 c 0
 84.9970703125 349.666015625 78.9970703125 350.999023438 68.9970703125 350.999023438 c 2
 40.9970703125 350.999023438 l 2
 37.6640625 352.999023438 35.8310546875 356.166015625 35.498046875 360.499023438 c 0
 35.1650390625 364.83203125 35.998046875 368.665039062 37.998046875 371.998046875 c 0
 67.998046875 381.331054688 89.3310546875 391.6640625 101.998046875 402.997070312 c 0
 122.665039062 421.6640625 136.665039062 462.6640625 143.998046875 525.997070312 c 1
 153.998046875 529.997070312 160.998046875 528.330078125 164.998046875 520.997070312 c 1
 164.998046875 411.997070312 l 2
 164.998046875 402.6640625 165.831054688 397.1640625 167.498046875 395.497070312 c 0
 169.165039062 393.830078125 174.33203125 392.997070312 182.999023438 392.997070312 c 2
 273.999023438 392.997070312 l 1
 280.666015625 388.997070312 283.666015625 381.6640625 282.999023438 370.997070312 c 0
 282.33203125 360.330078125 279.665039062 353.663085938 274.998046875 350.99609375 c 2
 181.998046875 350.99609375 l 2
 173.331054688 350.99609375 168.1640625 349.829101562 166.497070312 347.49609375 c 0
 164.830078125 345.163085938 163.997070312 338.663085938 163.997070312 327.99609375 c 2
 163.997070312 168.99609375 l 2
 163.997070312 116.329101562 177.6640625 78.8291015625 204.997070312 56.49609375 c 0
 232.330078125 34.1630859375 265.497070312 27.6630859375 304.497070312 36.99609375 c 0
 343.497070312 46.3291015625 377.330078125 66.99609375 405.997070312 98.99609375 c 1
 397.997070312 132.99609375 390.330078125 171.663085938 382.997070312 214.99609375 c 2
 379.997070312 230.99609375 l 1
 373.997070312 231.99609375 l 2
 339.997070312 236.663085938 315.997070312 220.330078125 301.997070312 182.997070312 c 0
 299.330078125 176.330078125 294.330078125 171.830078125 286.997070312 169.497070312 c 0
 279.6640625 167.1640625 275.331054688 167.6640625 273.998046875 170.997070312 c 0
 270.665039062 198.997070312 281.33203125 224.6640625 305.999023438 247.997070312 c 0
 311.999023438 255.997070312 321.999023438 262.330078125 335.999023438 266.997070312 c 0
 349.999023438 271.6640625 361.999023438 273.6640625 371.999023438 272.997070312 c 2
 372.999023438 272.997070312 l 1
 372.999023438 274.997070312 372.83203125 277.497070312 372.499023438 280.497070312 c 0
 372.166015625 283.497070312 371.666015625 285.6640625 370.999023438 286.997070312 c 0
 360.33203125 350.330078125 353.665039062 416.330078125 350.998046875 484.997070312 c 0
 346.331054688 561.6640625 353.331054688 618.831054688 371.998046875 656.498046875 c 0
 390.665039062 694.165039062 418.665039062 712.998046875 455.998046875 712.998046875 c 0
 483.998046875 713.665039062 506.665039062 705.165039062 523.998046875 687.498046875 c 0
 541.331054688 669.831054688 548.998046875 647.998046875 546.998046875 621.998046875 c 0
 546.998046875 608.665039062 543.498046875 597.83203125 536.498046875 589.499023438 c 0
 529.498046875 581.166015625 521.665039062 578.333007812 512.998046875 581 c 0
 498.331054688 584.333007812 489.331054688 589.666015625 485.998046875 596.999023438 c 0
 482.665039062 604.33203125 481.33203125 614.499023438 481.999023438 627.499023438 c 0
 482.666015625 640.499023438 480.666015625 650.166015625 475.999023438 656.499023438 c 0
 471.33203125 662.83203125 460.999023438 665.999023438 444.999023438 665.999023438 c 0
 428.33203125 666.666015625 417.165039062 655.666015625 411.498046875 632.999023438 c 0
 405.831054688 610.33203125 403.998046875 591.33203125 405.998046875 575.999023438 c 0
 407.331054688 545.999023438 411.331054688 511.666015625 417.998046875 472.999023438 c 0
 424.665039062 434.33203125 432.665039062 394.33203125 441.998046875 352.999023438 c 0
 451.331054688 311.666015625 460.998046875 270.666015625 470.998046875 229.999023438 c 1
 478.998046875 226.999023438 l 2
 496.998046875 223.666015625 511.331054688 225.666015625 521.998046875 232.999023438 c 0
 532.665039062 240.33203125 542.998046875 257.999023438 552.998046875 285.999023438 c 0
 554.331054688 289.999023438 557.331054688 291.666015625 561.998046875 290.999023438 c 0
 566.665039062 290.33203125 569.33203125 286.999023438 569.999023438 280.999023438 c 0
 569.33203125 246.999023438 560.999023438 222.666015625 544.999023438 207.999023438 c 0
 529.666015625 193.33203125 507.666015625 187.999023438 478.999023438 191.999023438 c 1
 489.666015625 127.999023438 497.333007812 71.9990234375 502 23.9990234375 c 0
 505.333007812 -46.66796875 500.333007812 -103.500976562 487 -146.500976562 c 0
 473.666992188 -189.500976562 443.333984375 -212.333984375 396.000976562 -215.000976562 c 0
 379.333984375 -215.66796875 363.833984375 -212.16796875 349.500976562 -204.500976562 c 0
 335.16796875 -196.833984375 324.334960938 -185.666992188 317.001953125 -171 c 0
 309.668945312 -156.333007812 306.3359375 -141 307.002929688 -125 c 0
 310.3359375 -99.6669921875 321.002929688 -86 339.002929688 -84 c 0
 355.669921875 -82 366.669921875 -85 372.002929688 -93 c 0
 377.3359375 -101 379.668945312 -112 379.001953125 -126 c 0
 378.334960938 -140 379.16796875 -150.166992188 381.500976562 -156.5 c 0
 383.833984375 -162.833007812 391.333984375 -166.333007812 404.000976562 -167 c 0
 422.000976562 -169 433.66796875 -158.666992188 439.000976562 -136 c 0
 444.333984375 -113.333007812 446.000976562 -94.666015625 444.000976562 -79.9990234375 c 0
 443.333984375 -58.666015625 439.166992188 -31.8330078125 431.5 0.5 c 0
 423.833007812 32.8330078125 419.333007812 48.3330078125 418 47 c 0
396.997070312 -366.000976562 m 0
 358.997070312 -366.000976562 329.33203125 -356.000976562 307.999023438 -336.000976562 c 0
 286.666015625 -316.000976562 272.999023438 -281.66796875 266.999023438 -233.000976562 c 1
 273.666015625 -227.000976562 279.999023438 -227.000976562 285.999023438 -233.000976562 c 1
 293.33203125 -260.333984375 305.165039062 -280.500976562 321.498046875 -293.500976562 c 0
 337.831054688 -306.500976562 362.6640625 -313.000976562 395.997070312 -313.000976562 c 0
 427.997070312 -313.000976562 451.830078125 -306.500976562 467.497070312 -293.500976562 c 0
 483.1640625 -280.500976562 496.6640625 -260.333984375 507.997070312 -233.000976562 c 0
 514.6640625 -227.000976562 520.997070312 -227.000976562 526.997070312 -233.000976562 c 1
 518.997070312 -276.333984375 503.6640625 -309.333984375 480.997070312 -332.000976562 c 0
 458.330078125 -354.66796875 430.330078125 -366.000976562 396.997070312 -366.000976562 c 0
EndSplineSet
EndChar

StartChar: nine
Encoding: 57 57 41
Width: 807
GlyphClass: 2
Flags: W
LayerCount: 2
Fore
SplineSet
426 29 m 1
 392.666992188 60.3330078125 366.998046875 104.670898438 348.998046875 162.00390625 c 0
 330.998046875 219.336914062 321.998046875 280.669921875 321.998046875 346.002929688 c 0
 321.998046875 406.669921875 329.998046875 464.502929688 345.998046875 519.502929688 c 0
 361.998046875 574.502929688 385.998046875 619.669921875 417.998046875 655.002929688 c 0
 449.998046875 690.3359375 488.998046875 708.002929688 534.998046875 708.002929688 c 0
 580.998046875 708.002929688 619.998046875 690.3359375 651.998046875 655.002929688 c 0
 683.998046875 619.669921875 707.998046875 574.502929688 723.998046875 519.502929688 c 0
 739.998046875 464.502929688 747.998046875 406.669921875 747.998046875 346.002929688 c 0
 747.998046875 250.002929688 729.498046875 166.002929688 692.498046875 94.0029296875 c 0
 655.498046875 22.0029296875 602.998046875 -13.9970703125 534.998046875 -13.9970703125 c 0
 527.665039062 -13.9970703125 521.998046875 -14.1640625 517.998046875 -14.4970703125 c 0
 513.998046875 -14.830078125 509.331054688 -14.9970703125 503.998046875 -14.9970703125 c 0
 483.998046875 -15.6640625 448.498046875 -15.9970703125 397.498046875 -15.9970703125 c 0
 346.498046875 -15.9970703125 316.331054688 -15.6640625 306.998046875 -14.9970703125 c 0
 298.331054688 -14.330078125 291.331054688 -13.9970703125 285.998046875 -13.9970703125 c 0
 280.665039062 -13.9970703125 263.33203125 -11.6640625 233.999023438 -6.9970703125 c 0
 137.33203125 10.3359375 88.9990234375 61.3359375 88.9990234375 146.002929688 c 2
 88.9990234375 329.002929688 l 2
 88.9990234375 339.669921875 87.9990234375 346.002929688 85.9990234375 348.002929688 c 0
 83.9990234375 350.002929688 77.9990234375 351.002929688 67.9990234375 351.002929688 c 2
 39.9990234375 351.002929688 l 2
 36.666015625 353.002929688 34.8330078125 356.169921875 34.5 360.502929688 c 0
 34.1669921875 364.8359375 35 368.668945312 37 372.001953125 c 0
 67 381.334960938 88.3330078125 391.66796875 101 403.000976562 c 0
 121.666992188 421.66796875 135.666992188 462.66796875 143 526.000976562 c 1
 153 530.000976562 160 528.333984375 164 521.000976562 c 1
 164 412.000976562 l 2
 164 402.66796875 164.833007812 397.16796875 166.5 395.500976562 c 0
 168.166992188 393.833984375 173.333984375 393.000976562 182.000976562 393.000976562 c 2
 273.000976562 393.000976562 l 1
 279.66796875 389.000976562 282.66796875 381.66796875 282.000976562 371.000976562 c 0
 281.333984375 360.333984375 278.666992188 353.666992188 274 351 c 2
 181 351 l 2
 174.333007812 351 170 350.666992188 168 350 c 0
 166 349.333007812 164.666992188 347.666015625 164 344.999023438 c 0
 163.333007812 342.33203125 163 337.33203125 163 329.999023438 c 2
 163 168.999023438 l 2
 163 132.33203125 166.833007812 104.83203125 174.5 86.4990234375 c 0
 182.166992188 68.166015625 202.666992188 52.666015625 236 39.9990234375 c 0
 282 22.666015625 340.333007812 18.3330078125 411 27 c 0
 417.666992188 28.3330078125 422.666992188 29 426 29 c 1
662.998046875 388.004882812 m 1
 661.665039062 457.337890625 650.998046875 522.504882812 630.998046875 583.504882812 c 0
 610.998046875 644.504882812 578.998046875 675.004882812 534.998046875 675.004882812 c 0
 492.331054688 675.004882812 460.998046875 645.171875 440.998046875 585.504882812 c 0
 420.998046875 525.837890625 409.665039062 460.004882812 406.998046875 388.004882812 c 1
 662.998046875 388.004882812 l 1
406.998046875 343.004882812 m 1
 408.331054688 261.004882812 418.499023438 186.337890625 437.499023438 119.004882812 c 0
 456.499023438 51.671875 488.999023438 18.0048828125 534.999023438 18.0048828125 c 0
 566.999023438 18.0048828125 592.33203125 35.171875 610.999023438 69.5048828125 c 0
 629.666015625 103.837890625 642.666015625 145.504882812 649.999023438 194.504882812 c 0
 657.33203125 243.504882812 661.665039062 293.004882812 662.998046875 343.004882812 c 1
 406.998046875 343.004882812 l 1
533.999023438 -215.995117188 m 0
 495.999023438 -215.995117188 466.333984375 -205.995117188 445.000976562 -185.995117188 c 0
 423.66796875 -165.995117188 410.000976562 -131.662109375 404.000976562 -82.9951171875 c 1
 410.66796875 -76.9951171875 417.000976562 -76.9951171875 423.000976562 -82.9951171875 c 1
 430.333984375 -110.328125 442.166992188 -130.495117188 458.5 -143.495117188 c 0
 474.833007812 -156.495117188 499.666015625 -162.995117188 532.999023438 -162.995117188 c 0
 564.999023438 -162.995117188 588.83203125 -156.495117188 604.499023438 -143.495117188 c 0
 620.166015625 -130.495117188 633.666015625 -110.328125 644.999023438 -82.9951171875 c 0
 651.666015625 -76.9951171875 657.999023438 -76.9951171875 663.999023438 -82.9951171875 c 1
 655.999023438 -126.328125 640.666015625 -159.328125 617.999023438 -181.995117188 c 0
 595.33203125 -204.662109375 567.33203125 -215.995117188 533.999023438 -215.995117188 c 0
EndSplineSet
EndChar

StartChar: colon
Encoding: 58 58 42
Width: 837
GlyphClass: 2
Flags: W
LayerCount: 2
Fore
SplineSet
388 -270 m 1
 388 -65 l 1
 438 -65 l 1
 438 -270 l 1
 388 -270 l 1
580 407 m 0
 602.666992188 407 621.333984375 402.98828125 636.000976562 394.98828125 c 1
 638.000976562 422.98828125 644.333984375 445.98828125 655.000976562 463.98828125 c 0
 675.66796875 499.98828125 704.000976562 519.655273438 740.000976562 522.98828125 c 0
 784.000976562 526.98828125 811.000976562 517.321289062 821.000976562 493.98828125 c 0
 827.000976562 478.655273438 826.000976562 466.322265625 818.000976562 456.989257812 c 0
 810.000976562 447.65625 800.333984375 443.323242188 789.000976562 443.990234375 c 0
 777.66796875 444.657226562 773.000976562 448.990234375 775.000976562 456.990234375 c 0
 778.333984375 476.323242188 773.666992188 489.823242188 761 497.490234375 c 0
 748.333007812 505.157226562 734 499.990234375 718 481.990234375 c 0
 713.333007812 477.323242188 709.5 467.823242188 706.5 453.490234375 c 0
 703.5 439.157226562 701.833007812 422.990234375 701.5 404.990234375 c 0
 701.166992188 386.990234375 701 365.990234375 701 341.990234375 c 2
 701 264.990234375 l 1
 702 111.990234375 l 2
 702 76.6572265625 704 53.82421875 708 43.4912109375 c 0
 712 33.158203125 722.666992188 26.9912109375 740 24.9912109375 c 2
 772 21.9912109375 l 2
 776 19.9912109375 777.666992188 15.82421875 777 9.4912109375 c 0
 776.333007812 3.158203125 774 -1.0087890625 770 -3.0087890625 c 0
 729.333007812 -1.0087890625 694.333007812 -0.0087890625 665 -0.0087890625 c 0
 635 -0.0087890625 602 -1.0087890625 566 -3.0087890625 c 0
 562 -0.341796875 559.666992188 3.8251953125 559 9.4921875 c 0
 558.333007812 15.1591796875 560 19.326171875 564 21.9931640625 c 2
 590 24.9931640625 l 2
 608 27.66015625 618.833007812 33.3271484375 622.5 41.994140625 c 0
 626.166992188 50.6611328125 628 73.6611328125 628 110.994140625 c 2
 628 255.994140625 l 2
 628 324.661132812 597 358.994140625 535 358.994140625 c 0
 497.666992188 358.994140625 470 347.327148438 452 323.994140625 c 0
 442 311.327148438 437 291.66015625 437 264.993164062 c 2
 437 110.993164062 l 2
 437 74.9931640625 439 52.16015625 443 42.4931640625 c 0
 447 32.826171875 457.666992188 26.9931640625 475 24.9931640625 c 2
 504 21.9931640625 l 2
 508 19.9931640625 509.666992188 15.826171875 509 9.4931640625 c 0
 508.333007812 3.16015625 506 -1.0068359375 502 -3.0068359375 c 0
 464 -1.0068359375 430 -0.0068359375 400 -0.0068359375 c 0
 370 -0.0068359375 337 -1.0068359375 301 -3.0068359375 c 0
 297 -0.33984375 294.666992188 3.8271484375 294 9.494140625 c 0
 293.333007812 15.1611328125 295 19.328125 299 21.9951171875 c 2
 325 24.9951171875 l 2
 343 27.662109375 353.833007812 33.3291015625 357.5 41.99609375 c 0
 361.166992188 50.6630859375 363 73.6630859375 363 110.99609375 c 2
 363 255.99609375 l 2
 363 324.663085938 332.333007812 358.99609375 271 358.99609375 c 0
 235 358.99609375 207 346.99609375 187 322.99609375 c 0
 177 310.99609375 172 292.329101562 172 266.99609375 c 2
 172 110.99609375 l 2
 172 84.3291015625 172.666992188 65.8291015625 174 55.49609375 c 0
 175.333007812 45.1630859375 178.5 37.99609375 183.5 33.99609375 c 0
 188.5 29.99609375 197.333007812 26.99609375 210 24.99609375 c 2
 236 21.99609375 l 2
 240 19.99609375 241.666992188 15.8291015625 241 9.49609375 c 0
 240.333007812 3.1630859375 238 -1.00390625 234 -3.00390625 c 0
 199.333007812 -1.00390625 166.333007812 -0.00390625 135 -0.00390625 c 0
 104.333007812 -0.00390625 69.3330078125 -1.00390625 30 -3.00390625 c 0
 26 -0.3369140625 23.6669921875 3.830078125 23 9.4970703125 c 0
 22.3330078125 15.1640625 24 19.3310546875 28 21.998046875 c 2
 60 24.998046875 l 2
 78 26.998046875 88.8330078125 32.498046875 92.5 41.498046875 c 0
 96.1669921875 50.498046875 98 73.6650390625 98 110.998046875 c 2
 98 286.998046875 l 2
 98 312.998046875 95.6669921875 329.331054688 91 335.998046875 c 0
 86.3330078125 342.665039062 73 348.665039062 51 353.998046875 c 2
 42 355.998046875 l 2
 40 357.998046875 39 360.831054688 39 364.498046875 c 0
 39 368.165039062 40.3330078125 370.665039062 43 371.998046875 c 0
 97 380.665039062 137.333007812 400.33203125 164 430.999023438 c 1
 169.333007812 429.666015625 172 427.333007812 172 424 c 2
 172 367 l 2
 172 359.666992188 175.666992188 356 183 356 c 1
 231 390 275.333007812 407 316 407 c 0
 358.666992188 407 394 387.666992188 422 349 c 1
 428.666992188 347 437 349.333007812 447 356 c 0
 495.666992188 390 540 407 580 407 c 0
EndSplineSet
EndChar

StartChar: semicolon
Encoding: 59 59 43
Width: 501
GlyphClass: 2
Flags: W
LayerCount: 2
Fore
SplineSet
272 376 m 0
 228.666992188 376 190.833984375 361.162109375 158.500976562 331.495117188 c 0
 126.16796875 301.828125 110.000976562 261.995117188 110.000976562 211.995117188 c 0
 110.000976562 174.662109375 119.833984375 138.329101562 139.500976562 102.99609375 c 0
 159.16796875 67.6630859375 188.000976562 45.330078125 226.000976562 35.9970703125 c 1
 228.66796875 39.9970703125 236.66796875 53.330078125 250.000976562 75.9970703125 c 0
 255.333984375 83.9970703125 262.833984375 95.830078125 272.500976562 111.497070312 c 0
 282.16796875 127.1640625 292.000976562 140.6640625 302.000976562 151.997070312 c 0
 312.000976562 163.330078125 322.000976562 170.997070312 332.000976562 174.997070312 c 0
 356.66796875 184.997070312 379.000976562 186.830078125 399.000976562 180.497070312 c 0
 419.000976562 174.1640625 433.333984375 160.997070312 442.000976562 140.997070312 c 0
 446.000976562 134.997070312 448.000976562 122.830078125 448.000976562 104.497070312 c 0
 448.000976562 86.1640625 445.66796875 72.6640625 441.000976562 63.9970703125 c 0
 429.66796875 43.9970703125 413.000976562 27.330078125 391.000976562 13.9970703125 c 0
 376.333984375 5.330078125 353.333984375 -2.0029296875 322.000976562 -8.0029296875 c 0
 298.66796875 -12.669921875 271.334960938 -15.0029296875 240.001953125 -15.0029296875 c 1
 212.001953125 -61.0029296875 192.668945312 -92.669921875 182.001953125 -110.002929688 c 0
 179.334960938 -114.002929688 174.334960938 -117.502929688 167.001953125 -120.502929688 c 0
 159.668945312 -123.502929688 152.668945312 -123.669921875 146.001953125 -121.002929688 c 0
 142.668945312 -119.002929688 160.668945312 -83.0029296875 200.001953125 -13.0029296875 c 1
 160.001953125 -7.0029296875 125.334960938 9.6640625 96.001953125 36.9970703125 c 0
 57.3349609375 73.6640625 38.001953125 122.997070312 38.001953125 184.997070312 c 0
 38.001953125 244.330078125 59.001953125 295.997070312 101.001953125 339.997070312 c 0
 143.001953125 383.997070312 203.001953125 405.997070312 281.001953125 405.997070312 c 0
 293.001953125 403.997070312 302.334960938 403.997070312 309.001953125 405.997070312 c 0
 318.334960938 407.997070312 324.501953125 416.330078125 327.501953125 430.997070312 c 0
 330.501953125 445.6640625 332.001953125 475.331054688 332.001953125 519.998046875 c 0
 334.668945312 553.331054688 349.001953125 574.998046875 375.001953125 584.998046875 c 0
 384.334960938 589.665039062 396.001953125 590.83203125 410.001953125 588.499023438 c 0
 424.001953125 586.166015625 433.334960938 580.666015625 438.001953125 571.999023438 c 0
 444.668945312 559.999023438 445.3359375 549.666015625 440.002929688 540.999023438 c 0
 434.669921875 532.33203125 427.836914062 527.499023438 419.50390625 526.499023438 c 0
 411.170898438 525.499023438 407.00390625 528.666015625 407.00390625 535.999023438 c 0
 407.00390625 545.999023438 404.170898438 552.999023438 398.50390625 556.999023438 c 0
 392.836914062 560.999023438 387.169921875 560.33203125 381.502929688 554.999023438 c 0
 375.8359375 549.666015625 372.668945312 539.333007812 372.001953125 524 c 0
 370.668945312 478.666992188 370.001953125 449.666992188 370.001953125 437 c 0
 373.334960938 371 378.66796875 328.333007812 386.000976562 309 c 0
 383.333984375 305.666992188 379.166992188 303.666992188 373.5 303 c 0
 367.833007812 302.333007812 363 303 359 305 c 0
 350.333007812 330.333007812 340 348 328 358 c 0
 318 370 299.333007812 376 272 376 c 0
271 30.9951171875 m 1
 319.666992188 30.9951171875 356.666015625 37.994140625 381.999023438 51.994140625 c 0
 401.33203125 64.6611328125 408.33203125 84.6611328125 402.999023438 111.994140625 c 0
 401.666015625 121.994140625 397.333007812 128.994140625 390 132.994140625 c 0
 378 139.661132812 364.666992188 140.328125 350 134.995117188 c 0
 337.333007812 131.662109375 311 96.9951171875 271 30.9951171875 c 1
EndSplineSet
EndChar

StartChar: less
Encoding: 60 60 44
Width: 440
GlyphClass: 2
Flags: W
LayerCount: 2
Fore
SplineSet
157 209 m 0
 147 216.333007812 135.168945312 229.99609375 121.501953125 249.99609375 c 0
 107.834960938 269.99609375 101.001953125 287.663085938 101.001953125 302.99609375 c 0
 101.001953125 333.663085938 112.168945312 358.830078125 134.501953125 378.497070312 c 0
 156.834960938 398.1640625 182.001953125 407.997070312 210.001953125 407.997070312 c 0
 242.668945312 407.997070312 268.3359375 398.997070312 287.002929688 380.997070312 c 0
 305.669921875 362.997070312 315.002929688 340.997070312 315.002929688 314.997070312 c 0
 315.002929688 276.997070312 292.669921875 239.997070312 248.002929688 203.997070312 c 0
 245.3359375 199.997070312 243.168945312 197.497070312 241.501953125 196.497070312 c 0
 239.834960938 195.497070312 239.501953125 194.330078125 240.501953125 192.997070312 c 0
 241.501953125 191.6640625 243.001953125 189.331054688 245.001953125 185.998046875 c 2
 340.001953125 66.998046875 l 2
 356.001953125 43.6650390625 376.001953125 29.33203125 400.001953125 23.9990234375 c 2
 424.001953125 21.9990234375 l 2
 426.668945312 19.9990234375 428.001953125 15.83203125 428.001953125 9.4990234375 c 0
 428.001953125 3.166015625 426.001953125 -1.0009765625 422.001953125 -3.0009765625 c 0
 375.334960938 -1.0009765625 343.66796875 -0.0009765625 327.000976562 -0.0009765625 c 0
 312.333984375 -0.0009765625 281.333984375 -1.0009765625 234.000976562 -3.0009765625 c 0
 230.66796875 -1.0009765625 229.000976562 3.166015625 229.000976562 9.4990234375 c 0
 229.000976562 15.83203125 230.333984375 19.9990234375 233.000976562 21.9990234375 c 2
 256.000976562 23.9990234375 l 2
 269.333984375 26.666015625 276.333984375 30.8330078125 277.000976562 36.5 c 0
 277.66796875 42.1669921875 273.66796875 53 265.000976562 69 c 2
 217.000976562 139 l 2
 214.333984375 143 211.833984375 146.666992188 209.500976562 150 c 0
 207.16796875 153.333007812 204.334960938 157 201.001953125 161 c 1
 200.334960938 160.333007812 181.001953125 132 143.001953125 76 c 0
 125.668945312 49.3330078125 129.3359375 32 154.002929688 24 c 1
 174.002929688 22 l 2
 177.3359375 18.6669921875 178.668945312 14.333984375 178.001953125 9.0009765625 c 0
 177.334960938 3.66796875 174.66796875 -0.33203125 170.000976562 -2.9990234375 c 0
 139.333984375 -0.9990234375 112.333984375 0.0009765625 89.0009765625 0.0009765625 c 0
 62.333984375 0.0009765625 35.333984375 -0.9990234375 8.0009765625 -2.9990234375 c 0
 4.0009765625 -0.9990234375 2.0009765625 3.16796875 2.0009765625 9.5009765625 c 0
 2.0009765625 15.833984375 3.333984375 20.0009765625 6.0009765625 22.0009765625 c 2
 29.0009765625 24.0009765625 l 2
 39.0009765625 26.66796875 47.0009765625 31.16796875 53.0009765625 37.5009765625 c 0
 59.0009765625 43.833984375 64.333984375 49.6669921875 69.0009765625 55 c 0
 85.0009765625 68.3330078125 118.000976562 108.666015625 168.000976562 175.999023438 c 0
 171.333984375 179.999023438 173.666992188 183.499023438 175 186.499023438 c 0
 176.333007812 189.499023438 175.5 192.33203125 172.5 194.999023438 c 0
 169.5 197.666015625 164.333007812 202.333007812 157 209 c 0
205.001953125 379.99609375 m 0
 173.001953125 373.99609375 157.001953125 350.662109375 157.001953125 309.995117188 c 0
 157.001953125 280.662109375 172.001953125 252.662109375 202.001953125 225.995117188 c 0
 206.001953125 222.662109375 209.168945312 221.829101562 211.501953125 223.49609375 c 0
 213.834960938 225.163085938 219.001953125 229.99609375 227.001953125 237.99609375 c 0
 251.668945312 258.663085938 264.001953125 282.99609375 264.001953125 310.99609375 c 0
 264.001953125 329.663085938 257.834960938 346.49609375 245.501953125 361.49609375 c 0
 233.168945312 376.49609375 219.668945312 382.663085938 205.001953125 379.99609375 c 0
177.001953125 577.995117188 m 2
 258.000976562 541.994140625 l 2
 276.000976562 534.661132812 290.000976562 535.161132812 300.000976562 543.494140625 c 0
 310.000976562 551.827148438 321.66796875 567.994140625 335.000976562 591.994140625 c 0
 337.000976562 595.994140625 340.16796875 597.661132812 344.500976562 596.994140625 c 0
 348.833984375 596.327148438 351.333984375 593.327148438 352.000976562 587.994140625 c 0
 354.000976562 555.327148438 345.66796875 528.327148438 327.000976562 506.994140625 c 0
 315.66796875 494.327148438 301.66796875 486.994140625 285.000976562 484.994140625 c 0
 268.333984375 482.994140625 252.333984375 484.661132812 237.000976562 489.994140625 c 2
 158.000976562 522.994140625 l 2
 130.66796875 534.994140625 102.334960938 518.661132812 73.001953125 473.994140625 c 0
 71.001953125 469.994140625 67.8349609375 468.994140625 63.501953125 470.994140625 c 0
 59.1689453125 472.994140625 56.6689453125 475.661132812 56.001953125 478.994140625 c 0
 53.3349609375 500.994140625 66.001953125 527.327148438 94.001953125 557.994140625 c 0
 102.001953125 568.661132812 114.168945312 576.328125 130.501953125 580.995117188 c 0
 146.834960938 585.662109375 162.334960938 584.662109375 177.001953125 577.995117188 c 2
194.000976562 -62.005859375 m 0
 218.000976562 -62.005859375 239.502929688 -68.6689453125 258.502929688 -82.001953125 c 0
 277.502929688 -95.3349609375 287.3359375 -117.334960938 288.002929688 -148.001953125 c 0
 288.669921875 -180.668945312 278.502929688 -208.8359375 257.502929688 -232.502929688 c 0
 236.502929688 -256.169921875 209.669921875 -273.336914062 177.002929688 -284.00390625 c 1
 167.002929688 -276.670898438 164.3359375 -269.00390625 169.002929688 -261.00390625 c 1
 218.3359375 -240.336914062 242.668945312 -212.00390625 242.001953125 -176.00390625 c 0
 241.334960938 -158.00390625 234.16796875 -144.836914062 220.500976562 -136.50390625 c 0
 206.833984375 -128.170898438 191.000976562 -126.337890625 173.000976562 -131.004882812 c 1
 155.000976562 -129.671875 145.66796875 -120.671875 145.000976562 -104.004882812 c 0
 145.000976562 -92.671875 148.66796875 -82.8388671875 156.000976562 -74.505859375 c 0
 163.333984375 -66.1728515625 176.000976562 -62.005859375 194.000976562 -62.005859375 c 0
EndSplineSet
EndChar

StartChar: equal
Encoding: 61 61 45
Width: 540
GlyphClass: 2
Flags: W
LayerCount: 2
Fore
SplineSet
248 -270 m 1
 248 -65 l 1
 298 -65 l 1
 298 -270 l 1
 248 -270 l 1
172 367 m 2
 172 359.666992188 175.666992188 355.993164062 183 355.993164062 c 0
 209.666992188 372.66015625 233.666992188 385.327148438 255 393.994140625 c 0
 276.333007812 402.661132812 299 406.994140625 323 406.994140625 c 0
 362.333007812 406.994140625 391.666015625 395.661132812 410.999023438 372.994140625 c 0
 430.33203125 350.327148438 439.999023438 320.66015625 439.999023438 283.993164062 c 2
 439.999023438 110.993164062 l 2
 439.999023438 74.9931640625 441.999023438 52.16015625 445.999023438 42.4931640625 c 0
 449.999023438 32.826171875 460.666015625 26.9931640625 477.999023438 24.9931640625 c 2
 507.999023438 21.9931640625 l 2
 511.999023438 19.9931640625 513.666015625 15.826171875 512.999023438 9.4931640625 c 0
 512.33203125 3.16015625 509.999023438 -1.0068359375 505.999023438 -3.0068359375 c 0
 467.999023438 -1.0068359375 433.999023438 -0.0068359375 403.999023438 -0.0068359375 c 0
 371.999023438 -0.0068359375 338.33203125 -1.0068359375 302.999023438 -3.0068359375 c 0
 298.999023438 -0.33984375 296.666015625 3.8271484375 295.999023438 9.494140625 c 0
 295.33203125 15.1611328125 296.999023438 19.328125 300.999023438 21.9951171875 c 2
 319.999023438 24.9951171875 l 2
 341.999023438 27.662109375 355.166015625 33.3291015625 359.499023438 41.99609375 c 0
 363.83203125 50.6630859375 365.999023438 73.6630859375 365.999023438 110.99609375 c 2
 365.999023438 259.99609375 l 2
 365.999023438 325.99609375 334.666015625 358.99609375 271.999023438 358.99609375 c 0
 232.666015625 358.99609375 204.333007812 347.329101562 187 323.99609375 c 0
 177 311.99609375 172 292.329101562 172 264.99609375 c 2
 172 110.99609375 l 2
 172 84.3291015625 172.666992188 65.8291015625 174 55.49609375 c 0
 175.333007812 45.1630859375 178.5 37.99609375 183.5 33.99609375 c 0
 188.5 29.99609375 197.333007812 26.99609375 210 24.99609375 c 2
 236 21.99609375 l 2
 240 19.99609375 241.666992188 15.8291015625 241 9.49609375 c 0
 240.333007812 3.1630859375 238 -1.00390625 234 -3.00390625 c 0
 199.333007812 -1.00390625 166.333007812 -0.00390625 135 -0.00390625 c 0
 103 -0.00390625 69 -1.00390625 33 -3.00390625 c 0
 29 -0.3369140625 26.6669921875 3.830078125 26 9.4970703125 c 0
 25.3330078125 15.1640625 27 19.3310546875 31 21.998046875 c 2
 60 24.998046875 l 2
 78 26.998046875 88.8330078125 32.498046875 92.5 41.498046875 c 0
 96.1669921875 50.498046875 98 73.6650390625 98 110.998046875 c 2
 98 286.998046875 l 2
 98 312.998046875 95.6669921875 329.331054688 91 335.998046875 c 0
 86.3330078125 342.665039062 73 348.665039062 51 353.998046875 c 2
 42 355.998046875 l 2
 40 357.998046875 39 360.831054688 39 364.498046875 c 0
 39 368.165039062 40.3330078125 370.665039062 43 371.998046875 c 0
 97 380.665039062 137.333007812 400.33203125 164 430.999023438 c 1
 169.333007812 429.666015625 172 427.333007812 172 424 c 2
 172 367 l 2
245 680.993164062 m 0
 269 680.993164062 290.5 674.327148438 309.5 660.994140625 c 0
 328.5 647.661132812 338.333007812 625.661132812 339 594.994140625 c 0
 339.666992188 562.327148438 329.833984375 534.327148438 309.500976562 510.994140625 c 0
 289.16796875 487.661132812 262.000976562 470.661132812 228.000976562 459.994140625 c 1
 217.333984375 466.661132812 214.666992188 473.994140625 220 481.994140625 c 1
 269.333007812 503.994140625 293.666015625 532.327148438 292.999023438 566.994140625 c 0
 291.666015625 586.327148438 284.333007812 599.827148438 271 607.494140625 c 0
 257.666992188 615.161132812 242 616.661132812 224 611.994140625 c 1
 206 613.327148438 196.666992188 622.327148438 196 638.994140625 c 0
 196 650.327148438 199.666992188 660.16015625 207 668.493164062 c 0
 214.333007812 676.826171875 227 680.993164062 245 680.993164062 c 0
EndSplineSet
EndChar

StartChar: greater
Encoding: 62 62 46
Width: 609
GlyphClass: 2
Flags: W
LayerCount: 2
Fore
SplineSet
89 329 m 1
 88.99609375 321.99609375 l 1
 88.99609375 335.99609375 87.99609375 344.329101562 85.99609375 346.99609375 c 0
 83.99609375 349.663085938 77.99609375 350.99609375 67.99609375 350.99609375 c 2
 39.99609375 350.99609375 l 2
 36.6630859375 352.99609375 34.830078125 356.163085938 34.4970703125 360.49609375 c 0
 34.1640625 364.829101562 34.9970703125 368.662109375 36.9970703125 371.995117188 c 0
 66.9970703125 381.328125 88.330078125 391.661132812 100.997070312 402.994140625 c 0
 121.6640625 421.661132812 135.6640625 462.661132812 142.997070312 525.994140625 c 1
 152.997070312 529.994140625 159.997070312 528.327148438 163.997070312 520.994140625 c 1
 163.997070312 411.994140625 l 2
 163.997070312 402.661132812 164.830078125 397.161132812 166.497070312 395.494140625 c 0
 168.1640625 393.827148438 173.331054688 392.994140625 181.998046875 392.994140625 c 2
 272.998046875 392.994140625 l 1
 279.665039062 388.994140625 282.665039062 381.661132812 281.998046875 370.994140625 c 0
 281.331054688 360.327148438 278.6640625 353.66015625 273.997070312 350.993164062 c 2
 180.997070312 350.993164062 l 2
 174.330078125 350.993164062 169.997070312 350.66015625 167.997070312 349.993164062 c 0
 165.997070312 349.326171875 164.6640625 347.659179688 163.997070312 344.9921875 c 0
 163.330078125 342.325195312 162.997070312 337.325195312 162.997070312 329.9921875 c 2
 162.997070312 168.9921875 l 2
 162.997070312 132.325195312 166.830078125 104.825195312 174.497070312 86.4921875 c 0
 182.1640625 68.1591796875 202.6640625 52.6591796875 235.997070312 39.9921875 c 0
 259.330078125 31.9921875 285.330078125 26.8251953125 313.997070312 24.4921875 c 0
 342.6640625 22.1591796875 365.331054688 22.326171875 381.998046875 24.9931640625 c 0
 418.665039062 30.9931640625 444.83203125 41.826171875 460.499023438 57.4931640625 c 0
 476.166015625 73.16015625 483.999023438 86.3271484375 483.999023438 96.994140625 c 0
 487.33203125 117.661132812 481.83203125 134.661132812 467.499023438 147.994140625 c 0
 453.166015625 161.327148438 433.999023438 172.327148438 409.999023438 180.994140625 c 0
 343.999023438 207.661132812 310.999023438 248.328125 310.999023438 302.995117188 c 0
 310.999023438 338.328125 323.499023438 364.495117188 348.499023438 381.495117188 c 0
 373.499023438 398.495117188 406.33203125 406.995117188 446.999023438 406.995117188 c 0
 492.999023438 406.995117188 522.33203125 400.662109375 534.999023438 387.995117188 c 1
 545.666015625 363.328125 550.999023438 336.995117188 550.999023438 308.995117188 c 0
 548.999023438 305.662109375 545.499023438 303.329101562 540.499023438 301.99609375 c 0
 535.499023438 300.663085938 530.999023438 301.99609375 526.999023438 305.99609375 c 0
 508.33203125 353.99609375 478.999023438 377.99609375 438.999023438 377.99609375 c 0
 420.33203125 377.99609375 404.999023438 372.329101562 392.999023438 360.99609375 c 0
 380.999023438 349.663085938 374.999023438 334.99609375 374.999023438 316.99609375 c 0
 374.999023438 299.663085938 381.166015625 285.330078125 393.499023438 273.997070312 c 0
 405.83203125 262.6640625 425.33203125 249.331054688 451.999023438 233.998046875 c 0
 485.33203125 216.665039062 510.83203125 199.33203125 528.499023438 181.999023438 c 0
 546.166015625 164.666015625 554.666015625 140.333007812 553.999023438 109 c 0
 553.999023438 70.3330078125 536.999023438 41 502.999023438 21 c 0
 468.999023438 1 437.999023438 -10 409.999023438 -12 c 0
 361.33203125 -15.3330078125 326.999023438 -16.3330078125 306.999023438 -15 c 0
 298.33203125 -14.3330078125 291.33203125 -14 285.999023438 -14 c 0
 280.666015625 -14 263.333007812 -11.6669921875 234 -7 c 0
 137.333007812 10.3330078125 89 61.3330078125 89 146 c 2
 89 329 l 1
270.99609375 479.99609375 m 1
 255.994140625 479.995117188 l 1
 245.994140625 540.995117188 l 1
 245.994140625 544.995117188 l 1
 263.994140625 550.328125 276.827148438 557.828125 284.494140625 567.495117188 c 0
 292.161132812 577.162109375 294.328125 590.995117188 290.995117188 608.995117188 c 0
 286.328125 630.328125 278.828125 643.495117188 268.495117188 648.495117188 c 0
 258.162109375 653.495117188 245.329101562 655.328125 229.99609375 653.995117188 c 0
 226.663085938 653.995117188 218.49609375 647.828125 205.49609375 635.495117188 c 0
 192.49609375 623.162109375 181.329101562 616.995117188 171.99609375 616.995117188 c 0
 161.99609375 616.995117188 154.163085938 620.662109375 148.49609375 627.995117188 c 0
 142.829101562 635.328125 141.99609375 642.995117188 145.99609375 650.995117188 c 0
 150.663085938 660.328125 162.330078125 668.328125 180.997070312 674.995117188 c 0
 199.6640625 681.662109375 219.997070312 684.995117188 241.997070312 684.995117188 c 0
 279.997070312 684.995117188 308.1640625 674.495117188 326.497070312 653.495117188 c 0
 344.830078125 632.495117188 350.997070312 606.995117188 344.997070312 576.995117188 c 0
 342.997070312 566.995117188 336.1640625 557.995117188 324.497070312 549.995117188 c 0
 312.830078125 541.995117188 303.663085938 535.662109375 296.99609375 530.995117188 c 0
 292.99609375 527.662109375 288.663085938 520.329101562 283.99609375 508.99609375 c 0
 279.329101562 497.663085938 274.99609375 487.99609375 270.99609375 479.99609375 c 1
EndSplineSet
EndChar

StartChar: question
Encoding: 63 63 47
Width: 411
GlyphClass: 2
Flags: W
LayerCount: 2
Fore
SplineSet
240 683 m 1
 224.998046875 682.999023438 l 1
 214.998046875 743.999023438 l 1
 214.998046875 747.999023438 l 1
 232.998046875 753.33203125 245.831054688 760.83203125 253.498046875 770.499023438 c 0
 261.165039062 780.166015625 263.33203125 793.999023438 259.999023438 811.999023438 c 0
 255.33203125 833.33203125 247.83203125 846.499023438 237.499023438 851.499023438 c 0
 227.166015625 856.499023438 214.333007812 858.33203125 199 856.999023438 c 0
 195.666992188 856.999023438 187.5 850.83203125 174.5 838.499023438 c 0
 161.5 826.166015625 150.333007812 819.999023438 141 819.999023438 c 0
 131 819.999023438 123.166992188 823.666015625 117.5 830.999023438 c 0
 111.833007812 838.33203125 111 845.999023438 115 853.999023438 c 0
 119.666992188 863.33203125 131.333984375 871.33203125 150.000976562 877.999023438 c 0
 168.66796875 884.666015625 189.000976562 887.999023438 211.000976562 887.999023438 c 0
 249.000976562 887.999023438 277.16796875 877.499023438 295.500976562 856.499023438 c 0
 313.833984375 835.499023438 320.000976562 809.999023438 314.000976562 779.999023438 c 0
 312.000976562 769.999023438 305.16796875 760.999023438 293.500976562 752.999023438 c 0
 281.833984375 744.999023438 272.666992188 738.666015625 266 733.999023438 c 0
 262 730.666015625 257.666992188 723.333007812 253 712 c 0
 248.333007812 700.666992188 244 691 240 683 c 1
200.998046875 144.999023438 m 1
 121.00390625 144.997070312 l 1
 121.00390625 173.997070312 l 1
 201.00390625 173.997070312 l 1
 201.00390625 251.997070312 l 1
 88.3369140625 270.6640625 30.669921875 319.997070312 28.0029296875 399.997070312 c 0
 27.3359375 445.997070312 42.6689453125 493.997070312 74.001953125 543.997070312 c 0
 107.334960938 591.330078125 145.66796875 620.997070312 189.000976562 632.997070312 c 0
 232.333984375 644.997070312 268.000976562 646.330078125 296.000976562 636.997070312 c 0
 333.333984375 626.330078125 347.666992188 602.330078125 339 564.997070312 c 0
 337 556.997070312 332.333007812 550.497070312 325 545.497070312 c 0
 317.666992188 540.497070312 310 539.330078125 302 541.997070312 c 0
 230.666992188 568.6640625 176.833984375 572.831054688 140.500976562 554.498046875 c 0
 104.16796875 536.165039062 81.0009765625 496.998046875 71.0009765625 436.998046875 c 1
 69.0009765625 392.998046875 86.0009765625 362.498046875 122.000976562 345.498046875 c 0
 158.000976562 328.498046875 209.000976562 319.998046875 275.000976562 319.998046875 c 1
 275.000976562 173.998046875 l 1
 355.000976562 173.998046875 l 1
 355.000976562 144.998046875 l 1
 275.000976562 144.998046875 l 1
 275.000976562 122.998046875 l 2
 275.000976562 82.3310546875 278.000976562 56.3310546875 284.000976562 44.998046875 c 0
 290.000976562 33.6650390625 307.333984375 26.998046875 336.000976562 24.998046875 c 2
 372.000976562 22.998046875 l 2
 374.66796875 20.998046875 375.66796875 16.8310546875 375.000976562 10.498046875 c 0
 374.333984375 4.1650390625 372.666992188 -0.001953125 370 -2.001953125 c 0
 312 -0.001953125 267.333007812 0.998046875 236 0.998046875 c 0
 205.333007812 0.998046875 162.333007812 -0.001953125 107 -2.001953125 c 0
 103.666992188 -0.001953125 101.666992188 4.1650390625 101 10.498046875 c 0
 100.333007812 16.8310546875 101.666015625 20.998046875 104.999023438 22.998046875 c 2
 140.999023438 24.998046875 l 2
 160.33203125 25.6650390625 174.165039062 28.83203125 182.498046875 34.4990234375 c 0
 190.831054688 40.166015625 195.998046875 48.9990234375 197.998046875 60.9990234375 c 0
 199.998046875 72.9990234375 200.998046875 93.666015625 200.998046875 122.999023438 c 2
 200.998046875 144.999023438 l 1
EndSplineSet
EndChar

StartChar: at
Encoding: 64 64 48
Width: 333
GlyphClass: 2
Flags: W
LayerCount: 2
Fore
SplineSet
139 464 m 1
 139 670 l 1
 189 670 l 1
 189 464 l 1
 139 464 l 1
163 790 m 0
 201.666992188 790 231.5 779.83203125 252.5 759.499023438 c 0
 273.5 739.166015625 287 704.333007812 293 655 c 1
 287 649.666992188 280.666992188 649.666992188 274 655 c 1
 266.666992188 684.333007812 254.833984375 705 238.500976562 717 c 0
 222.16796875 729 197.334960938 735 164.001953125 735 c 0
 131.334960938 735 107.66796875 729 93.0009765625 717 c 0
 78.333984375 705 64.6669921875 684.333007812 52 655 c 0
 46 649.666992188 39.6669921875 649.666992188 33 655 c 1
 49.6669921875 745 93 790 163 790 c 0
200 -152.000976562 m 2
 200 -166.66796875 202.000976562 -177.166015625 206.000976562 -183.499023438 c 0
 210.000976562 -189.83203125 215.000976562 -193.665039062 221.000976562 -194.998046875 c 0
 227.000976562 -196.331054688 240.000976562 -197.6640625 260.000976562 -198.997070312 c 2
 278.000976562 -199.997070312 l 2
 280.000976562 -203.330078125 281.000976562 -207.330078125 281.000976562 -211.997070312 c 0
 281.000976562 -216.6640625 279.66796875 -219.331054688 277.000976562 -219.998046875 c 0
 229.66796875 -236.665039062 183.66796875 -256.998046875 139.000976562 -280.998046875 c 1
 125.000976562 -278.331054688 118.000976562 -275.331054688 118.000976562 -271.998046875 c 2
 126.000976562 -174.998046875 l 1
 126.000976562 140.001953125 l 1
 112.000976562 146.001953125 l 2
 95.333984375 154.001953125 81.833984375 153.834960938 71.5009765625 145.501953125 c 0
 61.16796875 137.168945312 49.0009765625 120.668945312 35.0009765625 96.001953125 c 0
 33.0009765625 93.3349609375 29.833984375 91.66796875 25.5009765625 91.0009765625 c 0
 21.16796875 90.333984375 18.66796875 92.333984375 18.0009765625 97.0009765625 c 0
 16.0009765625 126.333984375 24.333984375 151.333984375 43.0009765625 172.000976562 c 0
 64.333984375 196.66796875 92.0009765625 203.000976562 126.000976562 191.000976562 c 1
 126.000976562 282.000976562 l 2
 126.000976562 319.333984375 124.16796875 342.500976562 120.500976562 351.500976562 c 0
 116.833984375 360.500976562 106.000976562 366.000976562 88.0009765625 368.000976562 c 2
 56.0009765625 371.000976562 l 2
 52.66796875 375.000976562 51.16796875 379.833984375 51.5009765625 385.500976562 c 0
 51.833984375 391.16796875 54.0009765625 394.66796875 58.0009765625 396.000976562 c 0
 99.333984375 394.000976562 134.333984375 393.000976562 163.000976562 393.000976562 c 0
 194.333984375 393.000976562 229.000976562 394.000976562 267.000976562 396.000976562 c 0
 271.000976562 395.333984375 273.333984375 391.666992188 274.000976562 385 c 0
 274.66796875 378.333007812 273.000976562 373.666015625 269.000976562 370.999023438 c 2
 238.000976562 367.999023438 l 2
 220.000976562 365.999023438 209.16796875 360.499023438 205.500976562 351.499023438 c 0
 201.833984375 342.499023438 200.000976562 319.33203125 200.000976562 281.999023438 c 2
 200.000976562 162.999023438 l 1
 212.000976562 158.999023438 l 2
 239.333984375 147.666015625 267.666992188 163.999023438 297 207.999023438 c 0
 300.333007812 212.666015625 304 214.666015625 308 213.999023438 c 0
 312 213.33203125 314 210.665039062 314 205.998046875 c 0
 316 196.665039062 312.833007812 184.498046875 304.5 169.498046875 c 0
 296.166992188 154.498046875 286.666992188 142.331054688 276 132.998046875 c 0
 268.666992188 122.998046875 257.5 115.831054688 242.5 111.498046875 c 0
 227.5 107.165039062 213.333007812 107.33203125 200 111.999023438 c 1
 200 -152.000976562 l 2
EndSplineSet
EndChar

StartChar: A
Encoding: 65 65 49
Width: 440
GlyphClass: 2
Flags: W
LayerCount: 2
Fore
SplineSet
228 -60 m 1
 358 -276 l 1
 94 -276 l 1
 228 -60 l 1
227 -134 m 1
 154 -243 l 1
 298 -243 l 1
 227 -134 l 1
125 93 m 0
 122.333007812 79 127.500976562 65.166015625 140.500976562 51.4990234375 c 0
 153.500976562 37.83203125 173.000976562 30.9990234375 199.000976562 30.9990234375 c 0
 218.333984375 30.9990234375 241.000976562 40.9990234375 267.000976562 60.9990234375 c 0
 275.000976562 67.666015625 280.000976562 73.4990234375 282.000976562 78.4990234375 c 0
 284.000976562 83.4990234375 284.66796875 91.9990234375 284.000976562 103.999023438 c 2
 284.000976562 176.999023438 l 2
 284.000976562 179.666015625 283.66796875 181.833007812 283.000976562 183.5 c 0
 282.333984375 185.166992188 280.833984375 186.166992188 278.500976562 186.5 c 0
 276.16796875 186.833007812 274.334960938 187.333007812 273.001953125 188 c 0
 264.334960938 187.333007812 247.66796875 183 223.000976562 175 c 0
 162.333984375 151 129.666992188 123.666992188 125 93 c 0
355.000976562 286.999023438 m 2
 355.001953125 101.998046875 l 2
 355.001953125 65.3310546875 359.001953125 41.8310546875 367.001953125 31.498046875 c 0
 375.001953125 21.1650390625 388.334960938 21.6650390625 407.001953125 32.998046875 c 0
 412.334960938 36.3310546875 415.334960938 35.3310546875 416.001953125 29.998046875 c 0
 416.668945312 24.6650390625 414.168945312 17.998046875 408.501953125 9.998046875 c 0
 402.834960938 1.998046875 394.66796875 -3.6689453125 384.000976562 -7.001953125 c 0
 358.000976562 -16.3349609375 339.333984375 -17.66796875 328.000976562 -11.0009765625 c 0
 316.66796875 -4.333984375 304.66796875 6.9990234375 292.000976562 22.9990234375 c 0
 286.66796875 29.666015625 281.000976562 32.9990234375 275.000976562 32.9990234375 c 0
 269.66796875 32.9990234375 258.334960938 25.666015625 241.001953125 10.9990234375 c 0
 219.001953125 -5.66796875 191.668945312 -14.0009765625 159.001953125 -14.0009765625 c 0
 127.001953125 -14.0009765625 101.334960938 -6.333984375 82.001953125 8.9990234375 c 0
 57.3349609375 30.9990234375 46.001953125 54.666015625 48.001953125 79.9990234375 c 0
 55.3349609375 142.666015625 126.334960938 188.666015625 261.001953125 217.999023438 c 0
 263.668945312 217.999023438 268.168945312 219.166015625 274.501953125 221.499023438 c 0
 280.834960938 223.83203125 284.501953125 226.83203125 285.501953125 230.499023438 c 0
 286.501953125 234.166015625 287.001953125 240.666015625 287.001953125 249.999023438 c 2
 287.001953125 284.999023438 l 2
 287.001953125 318.33203125 282.168945312 340.999023438 272.501953125 352.999023438 c 0
 262.834960938 364.999023438 241.001953125 370.999023438 207.001953125 370.999023438 c 0
 178.334960938 371.666015625 156.834960938 364.666015625 142.501953125 349.999023438 c 0
 128.168945312 335.33203125 121.001953125 318.665039062 121.001953125 299.998046875 c 0
 121.668945312 295.331054688 123.168945312 289.498046875 125.501953125 282.498046875 c 0
 127.834960938 275.498046875 127.66796875 270.998046875 125.000976562 268.998046875 c 0
 107.000976562 256.331054688 87.66796875 249.998046875 67.0009765625 249.998046875 c 0
 57.66796875 249.998046875 53.0009765625 254.998046875 53.0009765625 264.998046875 c 0
 53.0009765625 278.998046875 57.0009765625 293.998046875 65.0009765625 309.998046875 c 0
 73.0009765625 325.998046875 85.16796875 341.831054688 101.500976562 357.498046875 c 0
 117.833984375 373.165039062 138.000976562 385.83203125 162.000976562 395.499023438 c 0
 186.000976562 405.166015625 213.000976562 408.999023438 243.000976562 406.999023438 c 0
 317.000976562 404.33203125 354.333984375 364.33203125 355.000976562 286.999023438 c 2
EndSplineSet
EndChar

StartChar: B
Encoding: 66 66 50
Width: 907
GlyphClass: 2
Flags: W
LayerCount: 2
Fore
SplineSet
83 -35 m 2
 82.0009765625 600.00390625 l 2
 82.0009765625 620.670898438 78.0009765625 633.337890625 70.0009765625 638.004882812 c 0
 62.0009765625 642.671875 46.333984375 645.671875 23.0009765625 647.004882812 c 2
 5.0009765625 649.004882812 l 2
 3.0009765625 652.337890625 2.0009765625 656.170898438 2.0009765625 660.50390625 c 0
 2.0009765625 664.836914062 3.333984375 667.669921875 6.0009765625 669.002929688 c 0
 49.333984375 683.669921875 95.0009765625 704.002929688 143.000976562 730.002929688 c 0
 145.000976562 731.3359375 149.000976562 730.668945312 155.000976562 728.001953125 c 0
 161.000976562 725.334960938 164.000976562 723.001953125 164.000976562 721.001953125 c 2
 156.000976562 604.001953125 l 1
 156.000976562 395.001953125 l 2
 156.000976562 381.001953125 159.333984375 374.001953125 166.000976562 374.001953125 c 0
 206.66796875 396.001953125 245.000976562 407.001953125 281.000976562 407.001953125 c 0
 308.333984375 407.001953125 333.333984375 402.334960938 356.000976562 393.001953125 c 1
 559.000976562 393.001953125 l 2
 575.66796875 393.001953125 605.000976562 394.001953125 647.000976562 396.001953125 c 0
 651.000976562 394.001953125 653.000976562 390.001953125 653.000976562 384.001953125 c 0
 653.000976562 378.001953125 651.333984375 373.668945312 648.000976562 371.001953125 c 2
 628.000976562 370.001953125 l 2
 613.333984375 367.334960938 604.833984375 363.66796875 602.500976562 359.000976562 c 0
 600.16796875 354.333984375 601.334960938 344.666992188 606.001953125 330 c 0
 626.001953125 269.333007812 651.001953125 205.666015625 681.001953125 138.999023438 c 0
 690.334960938 118.999023438 695.66796875 108.33203125 697.000976562 106.999023438 c 0
 701.000976562 108.999023438 707.333984375 121.666015625 716.000976562 144.999023438 c 0
 723.333984375 162.999023438 733.833984375 189.83203125 747.500976562 225.499023438 c 0
 761.16796875 261.166015625 769.66796875 282.999023438 773.000976562 290.999023438 c 0
 785.000976562 321.666015625 791.000976562 342.333007812 791.000976562 353 c 0
 791.000976562 361 785.000976562 366.333007812 773.000976562 369 c 2
 742.000976562 371 l 2
 739.333984375 374.333007812 738.333984375 378.833007812 739.000976562 384.5 c 0
 739.66796875 390.166992188 741.334960938 394 744.001953125 396 c 0
 783.334960938 394 811.001953125 393 827.001953125 393 c 0
 843.001953125 393 869.001953125 394 905.001953125 396 c 0
 909.001953125 394 911.001953125 390 911.001953125 384 c 0
 911.001953125 378 909.668945312 373.666992188 907.001953125 371 c 2
 884.001953125 370 l 2
 869.334960938 367.333007812 859.001953125 362.333007812 853.001953125 355 c 0
 847.001953125 347.666992188 833.001953125 323.333984375 811.001953125 282.000976562 c 0
 803.668945312 268.66796875 787.001953125 231.000976562 761.001953125 169.000976562 c 0
 735.001953125 107.000976562 721.001953125 73.66796875 719.001953125 69.0009765625 c 0
 702.334960938 29.66796875 691.334960938 2.66796875 686.001953125 -11.9990234375 c 0
 684.001953125 -14.666015625 680.668945312 -15.9990234375 676.001953125 -15.9990234375 c 0
 670.001953125 -15.9990234375 665.668945312 -14.666015625 663.001953125 -11.9990234375 c 0
 655.668945312 13.333984375 643.001953125 47.6669921875 625.001953125 91 c 2
 541.001953125 294 l 2
 529.001953125 324 519.668945312 343 513.001953125 351 c 1
 419.001953125 351 l 1
 454.334960938 314.333007812 472.001953125 267.666015625 472.001953125 210.999023438 c 0
 472.001953125 168.999023438 462.168945312 130.499023438 442.501953125 95.4990234375 c 0
 422.834960938 60.4990234375 395.66796875 33.33203125 361.000976562 13.9990234375 c 0
 326.333984375 -5.333984375 286.666992188 -15.0009765625 242 -15.0009765625 c 0
 218 -15.0009765625 193 -10.66796875 167 -2.0009765625 c 0
 160.333007812 -2.0009765625 157 -13.0009765625 157 -35.0009765625 c 2
 157 -104.000976562 l 1
 160 -172.000976562 l 2
 160 -175.333984375 156.333007812 -177.666992188 149 -179 c 1
 122.333007812 -148.333007812 82 -128.666015625 28 -119.999023438 c 0
 25.3330078125 -118.666015625 24 -116.166015625 24 -112.499023438 c 0
 24 -108.83203125 25 -105.999023438 27 -103.999023438 c 2
 36 -101.999023438 l 2
 58.6669921875 -95.33203125 72.1669921875 -88.83203125 76.5 -82.4990234375 c 0
 80.8330078125 -76.166015625 83 -60.3330078125 83 -35 c 2
154.000976562 291.00390625 m 2
 154.000976562 135.002929688 l 2
 154.000976562 99.0029296875 163.000976562 70.3359375 181.000976562 49.0029296875 c 0
 199.000976562 27.0029296875 224.333984375 16.0029296875 257.000976562 16.0029296875 c 0
 301.000976562 16.0029296875 333.833984375 31.8359375 355.500976562 63.5029296875 c 0
 377.16796875 95.169921875 388.000976562 134.669921875 388.000976562 182.002929688 c 0
 388.000976562 236.002929688 374.66796875 279.8359375 348.000976562 313.502929688 c 0
 321.333984375 347.169921875 284.000976562 364.002929688 236.000976562 364.002929688 c 0
 208.000976562 364.002929688 185.333984375 359.002929688 168.000976562 349.002929688 c 0
 158.66796875 341.669921875 154.000976562 322.336914062 154.000976562 291.00390625 c 2
EndSplineSet
EndChar

StartChar: C
Encoding: 67 67 51
Width: 579
GlyphClass: 2
Flags: W
LayerCount: 2
Fore
SplineSet
291 -177 m 1
 290.998046875 -170 l 2
 290.998046875 -141.333007812 300.998046875 -117 320.998046875 -97 c 0
 340.998046875 -77 365.331054688 -67 393.998046875 -67 c 0
 412.665039062 -67 428.33203125 -70.3330078125 440.999023438 -77 c 1
 436.33203125 -49.6669921875 424.499023438 6.5 405.499023438 91.5 c 0
 386.499023438 176.5 373.999023438 241.666992188 367.999023438 287 c 0
 365.999023438 300.333007812 362.999023438 321.666015625 358.999023438 350.999023438 c 1
 181.999023438 350.999023438 l 2
 173.33203125 350.999023438 168.33203125 349.999023438 166.999023438 347.999023438 c 0
 165.666015625 345.999023438 165.666015625 339.33203125 166.999023438 327.999023438 c 2
 200.999023438 3.9990234375 l 2
 203.666015625 -28.0009765625 207.333007812 -64.0009765625 212 -104.000976562 c 1
 240 -120.66796875 266.666992188 -146.000976562 292 -180.000976562 c 1
 292 -179.333984375 291.833007812 -178.666992188 291.5 -178 c 2
 291 -177 l 1
327.998046875 -248 m 1
 329.998046875 -251.333007812 331.165039062 -253.665039062 331.498046875 -254.998046875 c 0
 331.831054688 -256.331054688 331.998046875 -258.331054688 331.998046875 -260.998046875 c 0
 333.331054688 -266.998046875 331.998046875 -271.498046875 327.998046875 -274.498046875 c 0
 323.998046875 -277.498046875 319.165039062 -278.498046875 313.498046875 -277.498046875 c 0
 307.831054688 -276.498046875 303.6640625 -273.665039062 300.997070312 -268.998046875 c 0
 292.330078125 -254.998046875 281.830078125 -239.665039062 269.497070312 -222.998046875 c 0
 257.1640625 -206.331054688 240.997070312 -189.331054688 220.997070312 -171.998046875 c 0
 219.6640625 -170.665039062 218.6640625 -169.998046875 217.997070312 -169.998046875 c 1
 217.997070312 -169.998046875 l 1
 220.6640625 -187.331054688 219.331054688 -204.998046875 213.998046875 -222.998046875 c 0
 209.998046875 -238.331054688 200.665039062 -250.331054688 185.998046875 -258.998046875 c 0
 171.331054688 -267.665039062 153.998046875 -271.998046875 133.998046875 -271.998046875 c 0
 125.331054688 -271.998046875 114.998046875 -270.665039062 102.998046875 -267.998046875 c 0
 80.998046875 -260.665039062 62.3310546875 -248.165039062 46.998046875 -230.498046875 c 0
 31.6650390625 -212.831054688 22.6650390625 -192.6640625 19.998046875 -169.997070312 c 0
 16.6650390625 -140.6640625 24.33203125 -115.497070312 42.9990234375 -94.4970703125 c 0
 61.666015625 -73.4970703125 84.666015625 -64.330078125 111.999023438 -66.9970703125 c 0
 127.33203125 -68.9970703125 134.665039062 -69.9970703125 133.998046875 -69.9970703125 c 2
 93.998046875 317.002929688 l 2
 91.998046875 333.669921875 89.8310546875 343.502929688 87.498046875 346.502929688 c 0
 85.1650390625 349.502929688 78.998046875 351.002929688 68.998046875 351.002929688 c 2
 40.998046875 351.002929688 l 1
 32.998046875 356.3359375 31.3310546875 363.3359375 35.998046875 372.002929688 c 1
 65.3310546875 381.3359375 85.6640625 391.668945312 96.9970703125 403.001953125 c 0
 115.6640625 423.001953125 125.331054688 464.001953125 125.998046875 526.001953125 c 1
 135.998046875 530.001953125 142.998046875 528.334960938 146.998046875 521.001953125 c 2
 158.998046875 412.001953125 l 2
 160.331054688 403.334960938 161.831054688 398.001953125 163.498046875 396.001953125 c 0
 165.165039062 394.001953125 170.33203125 393.001953125 178.999023438 393.001953125 c 2
 353.999023438 393.001953125 l 1
 351.33203125 425.668945312 349.33203125 456.3359375 347.999023438 485.002929688 c 0
 343.33203125 561.669921875 350.33203125 618.836914062 368.999023438 656.50390625 c 0
 387.666015625 694.170898438 415.666015625 713.00390625 452.999023438 713.00390625 c 0
 480.999023438 713.670898438 503.666015625 705.170898438 520.999023438 687.50390625 c 0
 538.33203125 669.836914062 545.999023438 648.00390625 543.999023438 622.00390625 c 0
 543.999023438 608.670898438 540.499023438 597.837890625 533.499023438 589.504882812 c 0
 526.499023438 581.171875 518.666015625 578.338867188 509.999023438 581.005859375 c 0
 495.33203125 584.338867188 486.33203125 589.671875 482.999023438 597.004882812 c 0
 479.666015625 604.337890625 478.333007812 614.504882812 479 627.504882812 c 0
 479.666992188 640.504882812 477.666992188 650.171875 473 656.504882812 c 0
 468.333007812 662.837890625 458 666.004882812 442 666.004882812 c 0
 425.333007812 666.671875 414.166015625 655.671875 408.499023438 633.004882812 c 0
 402.83203125 610.337890625 400.999023438 591.337890625 402.999023438 576.004882812 c 0
 404.999023438 542.004882812 408.499023438 510.337890625 413.499023438 481.004882812 c 0
 418.499023438 451.671875 424.499023438 421.004882812 431.499023438 389.004882812 c 0
 438.499023438 357.004882812 445.166015625 326.837890625 451.499023438 298.504882812 c 0
 457.83203125 270.171875 463.999023438 241.004882812 469.999023438 211.004882812 c 0
 477.33203125 172.337890625 482.999023438 135.170898438 486.999023438 99.50390625 c 0
 490.999023438 63.8369140625 493.499023438 36.669921875 494.499023438 18.0029296875 c 0
 495.499023438 -0.6640625 496.166015625 -21.4970703125 496.499023438 -44.4970703125 c 0
 496.83203125 -67.4970703125 497.33203125 -87.9970703125 497.999023438 -105.997070312 c 1
 520.666015625 -123.997070312 542.166015625 -148.6640625 562.499023438 -179.997070312 c 0
 582.83203125 -211.330078125 593.33203125 -238.330078125 593.999023438 -260.997070312 c 0
 593.999023438 -267.6640625 591.999023438 -272.331054688 587.999023438 -274.998046875 c 0
 583.999023438 -277.665039062 579.499023438 -278.665039062 574.499023438 -277.998046875 c 0
 569.499023438 -277.331054688 565.33203125 -274.331054688 561.999023438 -268.998046875 c 0
 560.666015625 -266.331054688 557.499023438 -258.998046875 552.499023438 -246.998046875 c 0
 547.499023438 -234.998046875 540.666015625 -222.331054688 531.999023438 -208.998046875 c 0
 523.33203125 -195.665039062 512.665039062 -183.33203125 499.998046875 -171.999023438 c 0
 498.665039062 -170.666015625 497.665039062 -169.999023438 496.998046875 -169.999023438 c 1
 496.998046875 -169.999023438 l 1
 496.998046875 -188.666015625 492.331054688 -206.333007812 482.998046875 -223 c 0
 472.998046875 -238.333007812 460.498046875 -250.333007812 445.498046875 -259 c 0
 430.498046875 -267.666992188 413.331054688 -272 393.998046875 -272 c 0
 385.998046875 -272 375.998046875 -270.666992188 363.998046875 -268 c 0
 350.665039062 -264 338.665039062 -257.333007812 327.998046875 -248 c 1
384.998046875 -113.999023438 m 0
 366.998046875 -113.999023438 353.997070312 -123.33203125 345.997070312 -141.999023438 c 0
 342.6640625 -149.999023438 340.997070312 -158.666015625 340.997070312 -167.999023438 c 0
 340.997070312 -183.999023438 345.497070312 -197.499023438 354.497070312 -208.499023438 c 0
 363.497070312 -219.499023438 374.330078125 -224.999023438 386.997070312 -224.999023438 c 0
 391.6640625 -224.999023438 395.331054688 -224.666015625 397.998046875 -223.999023438 c 0
 428.665039062 -216.666015625 442.665039062 -198.999023438 439.998046875 -170.999023438 c 0
 437.331054688 -132.999023438 418.998046875 -113.999023438 384.998046875 -113.999023438 c 0
107.997070312 -113.999023438 m 0
 89.330078125 -113.999023438 77.3271484375 -123.330078125 71.994140625 -141.997070312 c 0
 68.6611328125 -153.330078125 67.328125 -161.997070312 67.9951171875 -167.997070312 c 0
 69.9951171875 -184.6640625 76.328125 -198.331054688 86.9951171875 -208.998046875 c 0
 97.662109375 -219.665039062 109.329101562 -224.998046875 121.99609375 -224.998046875 c 0
 126.663085938 -224.998046875 130.330078125 -224.665039062 132.997070312 -223.998046875 c 0
 157.6640625 -217.998046875 166.997070312 -200.331054688 160.997070312 -170.998046875 c 0
 156.330078125 -147.665039062 149.830078125 -132.33203125 141.497070312 -124.999023438 c 0
 133.1640625 -117.666015625 121.997070312 -113.999023438 107.997070312 -113.999023438 c 0
EndSplineSet
EndChar

StartChar: D
Encoding: 68 68 52
Width: 825
GlyphClass: 2
Flags: W
LayerCount: 2
Fore
SplineSet
424 363 m 1
 423.997070312 -56.9951171875 l 2
 423.997070312 -125.662109375 424.997070312 -169.662109375 426.997070312 -188.995117188 c 0
 428.997070312 -208.328125 436.997070312 -220.661132812 450.997070312 -225.994140625 c 0
 472.997070312 -233.327148438 487.997070312 -233.827148438 495.997070312 -227.494140625 c 0
 503.997070312 -221.161132812 508.1640625 -209.828125 508.497070312 -193.495117188 c 0
 508.830078125 -177.162109375 509.663085938 -166.995117188 510.99609375 -162.995117188 c 0
 512.99609375 -156.995117188 518.163085938 -152.828125 526.49609375 -150.495117188 c 0
 534.829101562 -148.162109375 543.162109375 -148.495117188 551.495117188 -151.495117188 c 0
 559.828125 -154.495117188 565.328125 -159.995117188 567.995117188 -167.995117188 c 0
 576.662109375 -191.995117188 573.329101562 -211.662109375 557.99609375 -226.995117188 c 0
 531.99609375 -250.328125 502.49609375 -263.828125 469.49609375 -267.495117188 c 0
 436.49609375 -271.162109375 408.329101562 -259.495117188 384.99609375 -232.495117188 c 0
 361.663085938 -205.495117188 349.99609375 -161.662109375 349.99609375 -100.995117188 c 0
 349.99609375 -29.662109375 349.663085938 14.337890625 348.99609375 31.0048828125 c 1
 344.99609375 30.0048828125 l 1
 299.663085938 0.0048828125 257.330078125 -14.9951171875 217.997070312 -14.9951171875 c 0
 163.997070312 -14.9951171875 119.997070312 3.671875 85.9970703125 41.0048828125 c 0
 51.9970703125 78.337890625 34.9970703125 123.670898438 34.9970703125 177.00390625 c 0
 34.9970703125 245.670898438 57.9970703125 301.170898438 103.997070312 343.50390625 c 0
 149.997070312 385.836914062 207.6640625 407.00390625 276.997070312 407.00390625 c 0
 304.997070312 407.00390625 327.330078125 404.00390625 343.997070312 398.00390625 c 0
 347.997070312 398.00390625 349.997070312 402.670898438 349.997070312 412.00390625 c 2
 349.997070312 600.00390625 l 2
 349.997070312 620.670898438 345.6640625 633.337890625 336.997070312 638.004882812 c 0
 328.330078125 642.671875 311.997070312 645.671875 287.997070312 647.004882812 c 2
 269.997070312 649.004882812 l 2
 267.997070312 652.337890625 266.997070312 656.170898438 266.997070312 660.50390625 c 0
 266.997070312 664.836914062 268.330078125 667.669921875 270.997070312 669.002929688 c 0
 316.330078125 684.3359375 362.997070312 704.668945312 410.997070312 730.001953125 c 1
 424.997070312 727.334960938 431.997070312 724.334960938 431.997070312 721.001953125 c 2
 423.997070312 646.001953125 l 1
 423.997070312 393.001953125 l 1
 689.997070312 393.001953125 l 2
 720.6640625 393.001953125 740.997070312 394.001953125 750.997070312 396.001953125 c 0
 754.997070312 394.001953125 756.6640625 390.668945312 755.997070312 386.001953125 c 0
 735.330078125 357.334960938 710.663085938 319.334960938 681.99609375 272.001953125 c 2
 560.99609375 69.001953125 l 2
 550.99609375 51.6689453125 546.99609375 40.6689453125 548.99609375 36.001953125 c 0
 550.99609375 31.3349609375 561.329101562 29.001953125 579.99609375 29.001953125 c 2
 613.99609375 29.001953125 l 2
 639.329101562 29.001953125 659.329101562 30.6689453125 673.99609375 34.001953125 c 0
 688.663085938 37.3349609375 702.330078125 46.001953125 714.997070312 60.001953125 c 0
 732.330078125 77.3349609375 744.997070312 96.66796875 752.997070312 118.000976562 c 0
 757.6640625 120.66796875 762.331054688 121.16796875 766.998046875 119.500976562 c 0
 771.665039062 117.833984375 774.33203125 115.000976562 774.999023438 111.000976562 c 0
 775.666015625 97.0009765625 773.499023438 80.833984375 768.499023438 62.5009765625 c 0
 763.499023438 44.16796875 758.666015625 24.66796875 753.999023438 4.0009765625 c 0
 749.33203125 -16.666015625 746.999023438 -36.9990234375 746.999023438 -56.9990234375 c 0
 745.666015625 -160.999023438 757.999023438 -217.33203125 783.999023438 -225.999023438 c 0
 806.666015625 -233.33203125 821.833007812 -233.999023438 829.5 -227.999023438 c 0
 837.166992188 -221.999023438 841.333984375 -210.666015625 842.000976562 -193.999023438 c 0
 842.66796875 -177.33203125 843.66796875 -166.999023438 845.000976562 -162.999023438 c 0
 847.000976562 -156.999023438 852.16796875 -152.83203125 860.500976562 -150.499023438 c 0
 868.833984375 -148.166015625 877.166992188 -148.499023438 885.5 -151.499023438 c 0
 893.833007812 -154.499023438 899.333007812 -159.999023438 902 -167.999023438 c 0
 910.666992188 -191.999023438 907.333984375 -211.666015625 892.000976562 -226.999023438 c 0
 850.000976562 -266.33203125 806.000976562 -277.33203125 760.000976562 -259.999023438 c 0
 714.000976562 -242.666015625 691.000976562 -189.666015625 691.000976562 -100.999023438 c 2
 692.000976562 0.0009765625 l 1
 547.000976562 0.0009765625 l 2
 489.000976562 0.0009765625 454.000976562 -0.9990234375 442.000976562 -2.9990234375 c 0
 438.000976562 -0.9990234375 436.000976562 2.333984375 436.000976562 7.0009765625 c 0
 456.66796875 31.0009765625 488.66796875 79.66796875 532.000976562 153.000976562 c 2
 638.000976562 333.000976562 l 2
 645.333984375 346.333984375 648.166992188 354.666992188 646.5 358 c 0
 644.833007812 361.333007812 639 363 629 363 c 2
 424 363 l 1
351.997070312 99.0048828125 m 2
 351.995117188 295.004882812 l 2
 351.995117188 308.337890625 347.662109375 321.337890625 338.995117188 334.004882812 c 0
 318.995117188 362.004882812 290.995117188 376.004882812 254.995117188 376.004882812 c 0
 211.662109375 376.004882812 177.829101562 359.837890625 153.49609375 327.504882812 c 0
 129.163085938 295.171875 116.99609375 256.004882812 116.99609375 210.004882812 c 0
 116.99609375 162.004882812 130.329101562 120.671875 156.99609375 86.0048828125 c 0
 183.663085938 51.337890625 219.99609375 34.0048828125 265.99609375 34.0048828125 c 0
 298.663085938 34.0048828125 324.330078125 43.337890625 342.997070312 62.0048828125 c 0
 348.997070312 68.0048828125 351.997070312 80.337890625 351.997070312 99.0048828125 c 2
EndSplineSet
EndChar

